# Blender 5.0.1
# www.blender.org
mtllib mdlAspas.mtl
o mdlVentiladorAspas
v 4.535704 3.308582 14.077491
v 4.281255 3.908600 14.077491
v 4.544636 3.308582 14.077491
v 4.553568 3.308582 14.077491
v 4.426858 3.961541 14.077491
v 4.551423 3.977664 14.077491
v 4.675988 3.961541 14.077491
v 4.818962 3.908600 14.077491
v 4.562258 3.308582 14.077491
v 4.570948 3.308582 14.077491
v 4.554785 3.337729 14.077491
v 5.155785 3.574398 14.077491
v 4.554785 3.322088 14.077491
v 4.554785 3.306448 14.077491
v 5.208725 3.428794 14.077491
v 5.224848 3.304229 14.077491
v 5.208725 3.179665 14.077491
v 5.155785 3.036691 14.077491
v 4.554785 3.291232 14.077491
v 4.554785 3.276016 14.077491
v 4.567142 3.299877 14.077491
v 4.821591 2.699859 14.077491
v 4.558210 3.299877 14.077491
v 4.549278 3.299877 14.077491
v 4.675988 2.646918 14.077491
v 4.551423 2.630795 14.077491
v 4.426858 2.646918 14.077491
v 4.283885 2.699859 14.077491
v 4.540588 3.299877 14.077491
v 4.531898 3.299877 14.077491
v 4.548051 3.270730 14.077491
v 3.947052 3.034061 14.077491
v 4.548051 3.286371 14.077491
v 4.548051 3.302011 14.077491
v 3.894111 3.179665 14.077491
v 3.877989 3.304229 14.077491
v 3.894111 3.428794 14.077491
v 3.947052 3.571768 14.077491
v 4.548051 3.317227 14.077491
v 4.548051 3.332444 14.077491
vn -0.0000 -0.0000 1.0000
vt 0.348814 0.502183
vt 0.355014 0.504747
vt 0.085888 0.924239
vt -0.000000 0.845707
vt 0.361215 0.507310
vt 0.167735 0.971175
vt 0.367247 0.509803
vt 0.258835 0.995726
vt 0.373280 0.512296
vt 0.373280 1.000000
vt -0.000000 0.016986
vt 0.010932 0.012681
vt 0.116338 0.499110
vt 0.000000 0.502183
vt 0.021863 0.008376
vt 0.207838 0.476094
vt 0.032498 0.004188
vt 0.290463 0.430541
vt 0.043133 0.000000
vt 0.375821 0.354188
vt 0.397746 1.000000
vt 0.391546 0.997437
vt 0.660672 0.577944
vt 0.746560 0.656477
vt 0.385345 0.994874
vt 0.578825 0.531008
vt 0.379312 0.992380
vt 0.487725 0.506457
vt 0.373280 0.989887
vt 0.373280 0.502183
vt 0.751642 0.485198
vt 0.740711 0.489503
vt 0.635304 0.003073
vt 0.751642 0.000000
vt 0.729779 0.493807
vt 0.543804 0.026089
vt 0.719144 0.497995
vt 0.461179 0.071642
vt 0.708509 0.502183
vt 0.375821 0.147996
s 1
usemtl Material.001
f 1/1/1 3/2/1 5/3/1 2/4/1
f 3/2/1 4/5/1 6/6/1 5/3/1
f 4/5/1 9/7/1 7/8/1 6/6/1
f 9/7/1 10/9/1 8/10/1 7/8/1
f 11/11/1 13/12/1 15/13/1 12/14/1
f 13/12/1 14/15/1 16/16/1 15/13/1
f 14/15/1 19/17/1 17/18/1 16/16/1
f 19/17/1 20/19/1 18/20/1 17/18/1
f 21/21/1 23/22/1 25/23/1 22/24/1
f 23/22/1 24/25/1 26/26/1 25/23/1
f 24/25/1 29/27/1 27/28/1 26/26/1
f 29/27/1 30/29/1 28/30/1 27/28/1
f 31/31/1 33/32/1 35/33/1 32/34/1
f 33/32/1 34/35/1 36/36/1 35/33/1
f 34/35/1 39/37/1 37/38/1 36/36/1
f 39/37/1 40/39/1 38/40/1 37/38/1
