# Blender 5.0.1
# www.blender.org
mtllib mdlBocina.mtl
o mdlBocina01
v 5.221931 0.331457 14.793025
v 5.205274 2.040086 14.728059
v 5.555697 0.297845 13.823449
v 5.539040 2.006474 13.758483
v 6.192039 0.353583 15.126207
v 6.175382 2.062211 15.061240
v 6.525805 0.319971 14.156631
v 6.509147 2.028599 14.091664
v 6.025357 0.862484 15.051187
v 6.003106 0.864725 15.115826
v 6.019794 0.795675 15.051588
v 5.997542 0.797916 15.116226
v 6.002017 0.731150 15.047706
v 5.979766 0.733390 15.112344
v 5.972710 0.671388 15.039688
v 5.950459 0.673629 15.104327
v 5.933000 0.618687 15.027845
v 5.910749 0.620928 15.092484
v 5.884412 0.575071 15.012631
v 5.862161 0.577312 15.077271
v 5.828814 0.542218 14.994632
v 5.806562 0.544458 15.059270
v 5.768342 0.521388 14.974537
v 5.746090 0.523629 15.039175
v 5.705319 0.513383 14.953119
v 5.683068 0.515624 15.017758
v 5.642169 0.518510 14.931203
v 5.619918 0.520751 14.995841
v 5.581318 0.536573 14.909630
v 5.559067 0.538814 14.974268
v 5.525104 0.566877 14.889228
v 5.502852 0.569117 14.953866
v 5.475687 0.608257 14.870782
v 5.453436 0.610498 14.935421
v 5.434967 0.659124 14.855001
v 5.412716 0.661364 14.919640
v 5.404509 0.717522 14.842492
v 5.382257 0.719763 14.907130
v 5.385482 0.781208 14.833735
v 5.363231 0.783448 14.898373
v 5.378619 0.847733 14.829065
v 5.356368 0.849974 14.893704
v 5.384182 0.914542 14.828665
v 5.361931 0.916783 14.893303
v 5.401959 0.979067 14.832547
v 5.379708 0.981308 14.897185
v 5.431265 1.038829 14.840564
v 5.409014 1.041070 14.905203
v 5.470976 1.091530 14.852407
v 5.448725 1.093771 14.917046
v 5.519564 1.135146 14.867620
v 5.497313 1.137386 14.932260
v 5.575162 1.168000 14.885621
v 5.552911 1.170240 14.950259
v 5.635634 1.188829 14.905716
v 5.613383 1.191070 14.970354
v 5.698657 1.196834 14.927133
v 5.676405 1.199075 14.991772
v 5.761806 1.191707 14.949049
v 5.739555 1.193948 15.013688
v 5.822658 1.173644 14.970623
v 5.800407 1.175885 15.035261
v 5.878872 1.143341 14.991025
v 5.856621 1.145581 15.055663
v 5.928288 1.101960 15.009470
v 5.906037 1.104201 15.074109
v 5.969008 1.051093 15.025251
v 5.946757 1.053334 15.089890
v 5.999467 0.992695 15.037761
v 5.977216 0.994936 15.102399
v 6.018494 0.929009 15.046518
v 5.996243 0.931250 15.111156
v 6.025357 0.862484 15.051187
v 6.003106 0.864725 15.115826
v 6.019794 0.795675 15.051588
v 5.997542 0.797916 15.116226
v 6.002017 0.731150 15.047706
v 5.979766 0.733390 15.112344
v 5.972710 0.671388 15.039688
v 5.950459 0.673629 15.104327
v 5.933000 0.618687 15.027845
v 5.910749 0.620928 15.092484
v 5.884412 0.575071 15.012631
v 5.862161 0.577312 15.077271
v 5.828814 0.542218 14.994632
v 5.806562 0.544458 15.059270
v 5.768342 0.521388 14.974537
v 5.746090 0.523629 15.039175
v 5.705319 0.513383 14.953119
v 5.683068 0.515624 15.017758
v 5.642169 0.518510 14.931203
v 5.619918 0.520751 14.995841
v 5.581318 0.536573 14.909630
v 5.559067 0.538814 14.974268
v 5.525104 0.566877 14.889228
v 5.502852 0.569117 14.953866
v 5.475687 0.608257 14.870782
v 5.453436 0.610498 14.935421
v 5.434967 0.659124 14.855001
v 5.412716 0.661364 14.919640
v 5.404509 0.717522 14.842492
v 5.382257 0.719763 14.907130
v 5.385482 0.781208 14.833735
v 5.363231 0.783448 14.898373
v 5.378619 0.847733 14.829065
v 5.356368 0.849974 14.893704
v 5.384182 0.914542 14.828665
v 5.361931 0.916783 14.893303
v 5.401959 0.979067 14.832547
v 5.379708 0.981308 14.897185
v 5.431265 1.038829 14.840564
v 5.409014 1.041070 14.905203
v 5.470976 1.091530 14.852407
v 5.448725 1.093771 14.917046
v 5.519564 1.135146 14.867620
v 5.497313 1.137386 14.932260
v 5.575162 1.168000 14.885621
v 5.552911 1.170240 14.950259
v 5.635634 1.188829 14.905716
v 5.613383 1.191070 14.970354
v 5.698657 1.196834 14.927133
v 5.676405 1.199075 14.991772
v 5.761806 1.191707 14.949049
v 5.739555 1.193948 15.013688
v 5.822658 1.173644 14.970623
v 5.800407 1.175885 15.035261
v 5.878872 1.143341 14.991025
v 5.856621 1.145581 15.055663
v 5.928288 1.101960 15.009470
v 5.906037 1.104201 15.074109
v 5.969008 1.051093 15.025251
v 5.946757 1.053334 15.089890
v 5.999467 0.992695 15.037761
v 5.977216 0.994936 15.102399
v 6.018494 0.929009 15.046518
v 5.996243 0.931250 15.111156
v 5.713329 0.728679 13.862414
v 6.360067 0.743429 14.084536
v 5.708332 1.241267 13.842925
v 6.355070 1.256018 14.065046
v 5.823729 1.626953 14.955639
v 5.801477 1.629193 15.020277
v 5.821503 1.600229 14.955799
v 5.799252 1.602470 15.020437
v 5.814393 1.574419 14.954247
v 5.792141 1.576660 15.018885
v 5.802670 1.550514 14.951039
v 5.780419 1.552755 15.015677
v 5.786786 1.529434 14.946302
v 5.764534 1.531675 15.010941
v 5.767351 1.511988 14.940217
v 5.745100 1.514228 15.004855
v 5.745111 1.498846 14.933017
v 5.722860 1.501087 14.997655
v 5.720922 1.490514 14.924978
v 5.698671 1.492755 14.989617
v 5.695714 1.487312 14.916411
v 5.673462 1.489553 14.981050
v 5.670453 1.489363 14.907645
v 5.648202 1.491604 14.972283
v 5.646113 1.496588 14.899015
v 5.623862 1.498829 14.963655
v 5.623627 1.508710 14.890855
v 5.601376 1.510951 14.955494
v 5.603860 1.525262 14.883477
v 5.581609 1.527503 14.948115
v 5.587573 1.545609 14.877165
v 5.565321 1.547849 14.941803
v 5.575389 1.568968 14.872161
v 5.553138 1.571209 14.936799
v 5.567779 1.594442 14.868658
v 5.545527 1.596683 14.933296
v 5.565033 1.621052 14.866791
v 5.542782 1.623293 14.931429
v 5.567259 1.647776 14.866630
v 5.545008 1.650017 14.931269
v 5.574369 1.673586 14.868183
v 5.552118 1.675827 14.932821
v 5.586092 1.697491 14.871389
v 5.563841 1.699731 14.936028
v 5.601976 1.718571 14.876127
v 5.579725 1.720812 14.940765
v 5.621411 1.736017 14.882213
v 5.599160 1.738258 14.946851
v 5.643651 1.749159 14.889413
v 5.621399 1.751400 14.954051
v 5.667840 1.757491 14.897450
v 5.645588 1.759732 14.962089
v 5.693048 1.760693 14.906017
v 5.670797 1.762934 14.970655
v 5.718308 1.758642 14.914783
v 5.696057 1.760883 14.979423
v 5.742649 1.751417 14.923413
v 5.720398 1.753658 14.988051
v 5.765134 1.739295 14.931574
v 5.742884 1.741536 14.996212
v 5.784901 1.722743 14.938952
v 5.762650 1.724984 15.003591
v 5.801189 1.702397 14.945265
v 5.778938 1.704637 15.009903
v 5.813373 1.679037 14.950268
v 5.791121 1.681278 15.014907
v 5.820983 1.653563 14.953772
v 5.798732 1.655804 15.018410
v 5.831224 0.858070 14.984874
v 5.808973 0.860311 15.049512
v 5.828999 0.831346 14.985034
v 5.806748 0.833587 15.049672
v 5.821888 0.805536 14.983481
v 5.799637 0.807777 15.048120
v 5.810165 0.781632 14.980274
v 5.787914 0.783872 15.044912
v 5.794281 0.760551 14.975537
v 5.772030 0.762792 15.040175
v 5.774846 0.743105 14.969452
v 5.752595 0.745346 15.034090
v 5.752607 0.729963 14.962252
v 5.730356 0.732204 15.026890
v 5.728418 0.721631 14.954213
v 5.706167 0.723872 15.018852
v 5.703209 0.718429 14.945646
v 5.680958 0.720670 15.010285
v 5.677949 0.720480 14.936880
v 5.655698 0.722721 15.001518
v 5.653608 0.727705 14.928250
v 5.631357 0.729946 14.992889
v 5.631123 0.739827 14.920090
v 5.608871 0.742068 14.984729
v 5.611356 0.756379 14.912712
v 5.589105 0.758620 14.977350
v 5.595068 0.776726 14.906400
v 5.572817 0.778967 14.971038
v 5.582885 0.800085 14.901396
v 5.560634 0.802326 14.966034
v 5.575274 0.825559 14.897893
v 5.553023 0.827800 14.962531
v 5.572529 0.852170 14.896026
v 5.550278 0.854410 14.960664
v 5.574754 0.878893 14.895864
v 5.552503 0.881134 14.960504
v 5.581865 0.904703 14.897418
v 5.559614 0.906944 14.962056
v 5.593587 0.928608 14.900624
v 5.571337 0.930849 14.965263
v 5.609472 0.949688 14.905362
v 5.587221 0.951929 14.970000
v 5.628907 0.967135 14.911448
v 5.606656 0.969375 14.976086
v 5.651146 0.980276 14.918648
v 5.628895 0.982517 14.983286
v 5.675335 0.988608 14.926685
v 5.653084 0.990849 14.991323
v 5.700544 0.991810 14.935252
v 5.678293 0.994051 14.999890
v 5.725804 0.989759 14.944018
v 5.703553 0.992000 15.008657
v 5.750144 0.982534 14.952648
v 5.727894 0.984775 15.017286
v 5.772630 0.970412 14.960809
v 5.750379 0.972653 15.025447
v 5.792397 0.953860 14.968187
v 5.770146 0.956101 15.032825
v 5.808685 0.933514 14.974500
v 5.786434 0.935755 15.039138
v 5.820868 0.910155 14.979503
v 5.798617 0.912395 15.044142
v 5.828479 0.884680 14.983006
v 5.806228 0.886921 15.047645
v 5.831224 0.858070 14.984874
v 5.808973 0.860311 15.049512
v 5.828999 0.831346 14.985034
v 5.806748 0.833587 15.049672
v 5.821888 0.805536 14.983481
v 5.799637 0.807777 15.048120
v 5.810165 0.781632 14.980274
v 5.787914 0.783872 15.044912
v 5.794281 0.760551 14.975537
v 5.772030 0.762792 15.040175
v 5.774846 0.743105 14.969452
v 5.752595 0.745346 15.034090
v 5.752607 0.729963 14.962252
v 5.730356 0.732204 15.026890
v 5.728418 0.721631 14.954213
v 5.706167 0.723872 15.018852
v 5.703209 0.718429 14.945646
v 5.680958 0.720670 15.010285
v 5.677949 0.720480 14.936880
v 5.655698 0.722721 15.001518
v 5.653608 0.727705 14.928250
v 5.631357 0.729946 14.992889
v 5.631123 0.739827 14.920090
v 5.608871 0.742068 14.984729
v 5.611356 0.756379 14.912712
v 5.589105 0.758620 14.977350
v 5.595068 0.776726 14.906400
v 5.572817 0.778967 14.971038
v 5.582885 0.800085 14.901396
v 5.560634 0.802326 14.966034
v 5.575274 0.825559 14.897893
v 5.553023 0.827800 14.962531
v 5.572529 0.852170 14.896026
v 5.550278 0.854410 14.960664
v 5.574754 0.878893 14.895864
v 5.552503 0.881134 14.960504
v 5.581865 0.904703 14.897418
v 5.559614 0.906944 14.962056
v 5.593587 0.928608 14.900624
v 5.571337 0.930849 14.965263
v 5.609472 0.949688 14.905362
v 5.587221 0.951929 14.970000
v 5.628907 0.967135 14.911448
v 5.606656 0.969375 14.976086
v 5.651146 0.980276 14.918648
v 5.628895 0.982517 14.983286
v 5.675335 0.988608 14.926685
v 5.653084 0.990849 14.991323
v 5.700544 0.991810 14.935252
v 5.678293 0.994051 14.999890
v 5.725804 0.989759 14.944018
v 5.703553 0.992000 15.008657
v 5.750144 0.982534 14.952648
v 5.727894 0.984775 15.017286
v 5.772630 0.970412 14.960809
v 5.750379 0.972653 15.025447
v 5.792397 0.953860 14.968187
v 5.770146 0.956101 15.032825
v 5.808685 0.933514 14.974500
v 5.786434 0.935755 15.039138
v 5.820868 0.910155 14.979503
v 5.798617 0.912395 15.044142
v 5.828479 0.884680 14.983006
v 5.806228 0.886921 15.047645
v 6.017861 1.631366 15.021952
v 5.995610 1.633607 15.086591
v 6.012298 1.564557 15.022353
v 5.990047 1.566798 15.086991
v 5.994521 1.500032 15.018471
v 5.972270 1.502273 15.083109
v 5.965215 1.440271 15.010453
v 5.942964 1.442512 15.075092
v 5.925504 1.387570 14.998610
v 5.903253 1.389811 15.063250
v 5.876916 1.343954 14.983397
v 5.854665 1.346195 15.048036
v 5.821318 1.311100 14.965397
v 5.799067 1.313341 15.030035
v 5.760846 1.290271 14.945302
v 5.738595 1.292511 15.009940
v 5.697824 1.282266 14.923884
v 5.675572 1.284506 14.988523
v 5.634673 1.287393 14.901968
v 5.612422 1.289634 14.966606
v 5.573822 1.305456 14.880395
v 5.551571 1.307696 14.945033
v 5.517608 1.335759 14.859993
v 5.495357 1.338000 14.924631
v 5.468191 1.377140 14.841547
v 5.445940 1.379380 14.906186
v 5.427471 1.428006 14.825767
v 5.405221 1.430247 14.890405
v 5.397013 1.486405 14.813257
v 5.374762 1.488645 14.877895
v 5.377986 1.550090 14.804500
v 5.355735 1.552331 14.869138
v 5.371123 1.616616 14.799830
v 5.348872 1.618857 14.864470
v 5.376687 1.683425 14.799430
v 5.354435 1.685666 14.864068
v 5.394463 1.747950 14.803312
v 5.372212 1.750191 14.867950
v 5.423770 1.807712 14.811329
v 5.401519 1.809952 14.875968
v 5.463480 1.860413 14.823172
v 5.441229 1.862653 14.887811
v 5.512068 1.904028 14.838386
v 5.489817 1.906269 14.903025
v 5.567667 1.936882 14.856386
v 5.545415 1.939123 14.921024
v 5.628139 1.957712 14.876481
v 5.605887 1.959953 14.941119
v 5.691161 1.965717 14.897898
v 5.668910 1.967958 14.962537
v 5.754311 1.960590 14.919815
v 5.732060 1.962831 14.984453
v 5.815162 1.942527 14.941388
v 5.792911 1.944768 15.006026
v 5.871377 1.912223 14.961790
v 5.849125 1.914464 15.026428
v 5.920793 1.870843 14.980235
v 5.898542 1.873084 15.044874
v 5.961513 1.819976 14.996017
v 5.939262 1.822217 15.060655
v 5.991971 1.761578 15.008526
v 5.969720 1.763819 15.073164
v 6.010998 1.697892 15.017283
v 5.988747 1.700133 15.081922
vn -0.9456 -0.0216 -0.3247
vn 0.3253 -0.0328 -0.9450
vn 0.9456 0.0216 0.3247
vn -0.3253 0.0328 0.9450
vn 0.0097 -0.9992 0.0380
vn -0.0097 0.9992 -0.0380
vn -0.9420 0.0765 -0.3269
vn -0.9077 0.2694 -0.3218
vn -0.8385 0.4520 -0.3043
vn -0.7371 0.6172 -0.2751
vn -0.6074 0.7587 -0.2354
vn -0.4543 0.8711 -0.1866
vn -0.2838 0.9499 -0.1306
vn -0.1024 0.9923 -0.0696
vn 0.0830 0.9965 -0.0060
vn 0.2652 0.9625 0.0579
vn 0.4371 0.8914 0.1196
vn 0.5923 0.7861 0.1766
vn 0.7247 0.6506 0.2269
vn 0.8293 0.4901 0.2685
vn 0.9020 0.3107 0.2997
vn 0.9400 0.1194 0.3195
vn 0.9420 -0.0765 0.3269
vn 0.9077 -0.2694 0.3218
vn 0.8385 -0.4520 0.3043
vn 0.7371 -0.6172 0.2751
vn 0.6074 -0.7587 0.2354
vn 0.4543 -0.8711 0.1866
vn 0.2838 -0.9499 0.1306
vn 0.1024 -0.9923 0.0696
vn -0.0830 -0.9965 0.0060
vn -0.2652 -0.9625 -0.0579
vn -0.4371 -0.8914 -0.1196
vn -0.5923 -0.7861 -0.1766
vn -0.7247 -0.6506 -0.2269
vn -0.8293 -0.4901 -0.2685
vn -0.9020 -0.3107 -0.2997
vn -0.9400 -0.1194 -0.3195
vt 0.333333 0.333333
vt 0.000000 0.333333
vt 0.000000 0.000000
vt 0.333333 0.000000
vt 0.333333 0.666667
vt 0.000000 0.666667
vt 0.666667 0.333333
vt 0.666667 0.000000
vt 0.666667 0.666667
vt 0.333333 1.000000
vt 0.000000 1.000000
vt 1.000000 0.000000
vt 1.000000 0.333333
vt 0.788889 0.902776
vt 0.788889 0.915782
vt 0.766667 0.915782
vt 0.766667 0.902776
vt 0.788889 0.928288
vt 0.766667 0.928288
vt 0.788889 0.939814
vt 0.766667 0.939814
vt 0.977313 0.333333
vt 0.977313 0.347151
vt 0.955091 0.347151
vt 0.955091 0.333333
vt 0.977313 0.363989
vt 0.955091 0.363989
vt 0.977313 0.383198
vt 0.955091 0.383198
vt 0.977313 0.404042
vt 0.955091 0.404042
vt 0.977313 0.425719
vt 0.955091 0.425719
vt 0.977313 0.447396
vt 0.955091 0.447396
vt 0.977313 0.468239
vt 0.955091 0.468239
vt 0.977313 0.487449
vt 0.955091 0.487449
vt 0.977313 0.504286
vt 0.955091 0.504286
vt 0.977313 0.518104
vt 0.955091 0.518104
vt 0.833333 0.939814
vt 0.833333 0.928288
vt 0.855555 0.928288
vt 0.855555 0.939814
vt 0.833333 0.915782
vt 0.855555 0.915782
vt 0.833333 0.902776
vt 0.855555 0.902776
vt 0.833333 0.889770
vt 0.855555 0.889770
vt 0.833333 0.877263
vt 0.855555 0.877263
vt 0.833333 0.865738
vt 0.855555 0.865738
vt 0.932869 0.347151
vt 0.932869 0.333333
vt 0.932869 0.363989
vt 0.932869 0.383198
vt 0.932869 0.404042
vt 0.932869 0.425719
vt 0.932869 0.447396
vt 0.932869 0.468239
vt 0.932869 0.487449
vt 0.932869 0.504286
vt 0.932869 0.518104
vt 0.788889 0.865738
vt 0.788889 0.877263
vt 0.766667 0.877263
vt 0.766667 0.865738
vt 0.726663 0.553805
vt 0.713805 0.548230
vt 0.701694 0.538660
vt 0.690794 0.525462
vt 0.681524 0.509143
vt 0.674241 0.490331
vt 0.669224 0.469747
vt 0.666667 0.448184
vt 0.666667 0.426469
vt 0.669224 0.405438
vt 0.674241 0.385898
vt 0.681524 0.368601
vt 0.690794 0.354211
vt 0.701694 0.343281
vt 0.713805 0.336232
vt 0.726663 0.333333
vt 0.739772 0.334697
vt 0.752629 0.340271
vt 0.764741 0.349841
vt 0.775641 0.363039
vt 0.784910 0.379358
vt 0.792194 0.398171
vt 0.797210 0.418755
vt 0.799768 0.440318
vt 0.799768 0.462033
vt 0.797210 0.483064
vt 0.792194 0.502603
vt 0.784910 0.519901
vt 0.775641 0.534291
vt 0.764741 0.545220
vt 0.752629 0.552270
vt 0.739772 0.555169
vt 0.788889 0.889770
vt 0.766667 0.889770
vt 0.726663 0.555169
vt 0.739772 0.556533
vt 0.752629 0.562107
vt 0.764741 0.571677
vt 0.775641 0.584875
vt 0.784910 0.601194
vt 0.792194 0.620006
vt 0.797210 0.640590
vt 0.799768 0.662153
vt 0.799768 0.683868
vt 0.797210 0.704899
vt 0.792194 0.724439
vt 0.784910 0.741736
vt 0.775641 0.756126
vt 0.764741 0.767056
vt 0.752629 0.774105
vt 0.739772 0.777004
vt 0.726663 0.775640
vt 0.713805 0.770066
vt 0.701694 0.760496
vt 0.690794 0.747298
vt 0.681524 0.730979
vt 0.674241 0.712166
vt 0.669224 0.691582
vt 0.666667 0.670019
vt 0.666667 0.648304
vt 0.669224 0.627273
vt 0.674241 0.607734
vt 0.681524 0.590436
vt 0.690794 0.576046
vt 0.701694 0.565117
vt 0.713805 0.558067
vt 0.811111 0.902776
vt 0.811111 0.915782
vt 0.811111 0.928288
vt 0.811111 0.939814
vt 0.955091 0.702875
vt 0.932869 0.702875
vt 0.932869 0.689057
vt 0.955091 0.689057
vt 0.932869 0.672220
vt 0.955091 0.672220
vt 0.932869 0.653010
vt 0.955091 0.653010
vt 0.932869 0.632167
vt 0.955091 0.632167
vt 0.932869 0.610490
vt 0.955091 0.610490
vt 0.932869 0.588813
vt 0.955091 0.588813
vt 0.932869 0.567969
vt 0.955091 0.567969
vt 0.932869 0.548760
vt 0.955091 0.548760
vt 0.932869 0.531922
vt 0.955091 0.531922
vt 0.877778 0.939814
vt 0.877778 0.928288
vt 0.877778 0.915782
vt 0.877778 0.902776
vt 0.877778 0.889770
vt 0.877778 0.877263
vt 0.877778 0.865738
vt 0.977313 0.702875
vt 0.977313 0.689057
vt 0.977313 0.672220
vt 0.977313 0.653010
vt 0.977313 0.632167
vt 0.977313 0.610490
vt 0.977313 0.588813
vt 0.977313 0.567969
vt 0.977313 0.548760
vt 0.977313 0.531922
vt 0.811111 0.865738
vt 0.811111 0.877263
vt 0.380472 0.669565
vt 0.393329 0.666667
vt 0.406439 0.668031
vt 0.419296 0.673605
vt 0.431407 0.683175
vt 0.442307 0.696373
vt 0.451577 0.712692
vt 0.458860 0.731504
vt 0.463877 0.752088
vt 0.466434 0.773651
vt 0.466434 0.795366
vt 0.463877 0.816397
vt 0.458860 0.835937
vt 0.451577 0.853234
vt 0.442307 0.867624
vt 0.431407 0.878554
vt 0.419296 0.885603
vt 0.406439 0.888502
vt 0.393329 0.887138
vt 0.380472 0.881564
vt 0.368360 0.871994
vt 0.357460 0.858796
vt 0.348191 0.842477
vt 0.340908 0.823664
vt 0.335891 0.803080
vt 0.333333 0.781517
vt 0.333333 0.759803
vt 0.335891 0.738771
vt 0.340908 0.719232
vt 0.348191 0.701935
vt 0.357460 0.687545
vt 0.368360 0.676615
vt 0.811111 0.889770
vt 0.539540 0.888502
vt 0.526430 0.887138
vt 0.513573 0.881564
vt 0.501462 0.871994
vt 0.490562 0.858796
vt 0.481292 0.842477
vt 0.474009 0.823664
vt 0.468992 0.803080
vt 0.466434 0.781517
vt 0.466434 0.759803
vt 0.468992 0.738771
vt 0.474009 0.719232
vt 0.481292 0.701935
vt 0.490562 0.687545
vt 0.501462 0.676615
vt 0.513573 0.669565
vt 0.526430 0.666667
vt 0.539540 0.668031
vt 0.552397 0.673605
vt 0.564508 0.683175
vt 0.575409 0.696373
vt 0.584678 0.712692
vt 0.591961 0.731505
vt 0.596978 0.752088
vt 0.599536 0.773652
vt 0.599536 0.795366
vt 0.596978 0.816397
vt 0.591961 0.835937
vt 0.584678 0.853234
vt 0.575409 0.867624
vt 0.564509 0.878554
vt 0.552397 0.885603
vt 0.766667 0.777004
vt 0.766667 0.999226
vt 0.666667 0.999226
vt 0.666667 0.777004
vt 0.422222 0.903317
vt 0.444445 0.903317
vt 0.444445 0.908519
vt 0.422222 0.908519
vt 0.444445 0.913522
vt 0.422222 0.913522
vt 0.444445 0.918132
vt 0.422222 0.918132
vt 0.922222 0.939646
vt 0.900000 0.939646
vt 0.900000 0.934119
vt 0.922222 0.934119
vt 0.900000 0.927384
vt 0.922222 0.927384
vt 0.900000 0.919700
vt 0.922222 0.919700
vt 0.900000 0.911363
vt 0.922222 0.911363
vt 0.900000 0.902692
vt 0.922222 0.902692
vt 0.900000 0.894021
vt 0.922222 0.894021
vt 0.900000 0.885684
vt 0.922222 0.885684
vt 0.900000 0.878000
vt 0.922222 0.878000
vt 0.900000 0.871265
vt 0.922222 0.871265
vt 0.900000 0.865738
vt 0.922222 0.865738
vt 0.466667 0.918132
vt 0.444444 0.918132
vt 0.444444 0.913522
vt 0.466667 0.913522
vt 0.444444 0.908519
vt 0.466667 0.908519
vt 0.444444 0.903317
vt 0.466667 0.903317
vt 0.444444 0.898115
vt 0.466667 0.898115
vt 0.444444 0.893112
vt 0.466667 0.893112
vt 0.444444 0.888502
vt 0.466667 0.888502
vt 0.955091 0.961555
vt 0.932869 0.961555
vt 0.932869 0.956028
vt 0.955091 0.956028
vt 0.932869 0.949293
vt 0.955091 0.949293
vt 0.932869 0.941609
vt 0.955091 0.941609
vt 0.932869 0.933271
vt 0.955091 0.933271
vt 0.932869 0.924601
vt 0.955091 0.924601
vt 0.932869 0.915930
vt 0.955091 0.915930
vt 0.932869 0.907592
vt 0.955091 0.907592
vt 0.932869 0.899909
vt 0.955091 0.899909
vt 0.932869 0.893174
vt 0.955091 0.893174
vt 0.932869 0.887646
vt 0.955091 0.887646
vt 0.422222 0.888502
vt 0.444445 0.888502
vt 0.444445 0.893112
vt 0.422222 0.893112
vt 0.618391 0.756560
vt 0.623534 0.755401
vt 0.628778 0.755946
vt 0.633921 0.758176
vt 0.638765 0.762004
vt 0.643125 0.767283
vt 0.646833 0.773811
vt 0.649746 0.781336
vt 0.651753 0.789569
vt 0.652776 0.798195
vt 0.652776 0.806881
vt 0.651753 0.815293
vt 0.649746 0.823109
vt 0.646833 0.830028
vt 0.643125 0.835784
vt 0.638765 0.840156
vt 0.633921 0.842975
vt 0.628778 0.844135
vt 0.623534 0.843589
vt 0.618391 0.841360
vt 0.613546 0.837532
vt 0.609186 0.832252
vt 0.605479 0.825725
vt 0.602565 0.818200
vt 0.600559 0.809966
vt 0.599536 0.801341
vt 0.599536 0.792655
vt 0.600559 0.784243
vt 0.602565 0.776427
vt 0.605479 0.769508
vt 0.609186 0.763752
vt 0.613546 0.759380
vt 0.444445 0.898115
vt 0.422222 0.898115
vt 0.628778 0.932869
vt 0.623534 0.932323
vt 0.618391 0.930094
vt 0.613546 0.926266
vt 0.609186 0.920986
vt 0.605479 0.914459
vt 0.602565 0.906934
vt 0.600559 0.898700
vt 0.599536 0.890075
vt 0.599536 0.881389
vt 0.600559 0.872977
vt 0.602565 0.865161
vt 0.605479 0.858242
vt 0.609186 0.852486
vt 0.613546 0.848114
vt 0.618391 0.845294
vt 0.623534 0.844135
vt 0.628778 0.844680
vt 0.633921 0.846910
vt 0.638765 0.850738
vt 0.643125 0.856017
vt 0.646833 0.862545
vt 0.649746 0.870070
vt 0.651753 0.878303
vt 0.652776 0.886929
vt 0.652776 0.895615
vt 0.651753 0.904027
vt 0.649746 0.911843
vt 0.646833 0.918762
vt 0.643125 0.924518
vt 0.638765 0.928890
vt 0.633921 0.931709
vt 0.488889 0.903317
vt 0.488889 0.908519
vt 0.488889 0.913522
vt 0.488889 0.918132
vt 0.355556 0.888502
vt 0.355556 0.894029
vt 0.333333 0.894029
vt 0.333333 0.888502
vt 0.355556 0.900764
vt 0.333333 0.900764
vt 0.355556 0.908448
vt 0.333333 0.908448
vt 0.355556 0.916785
vt 0.333333 0.916785
vt 0.355556 0.925456
vt 0.333333 0.925456
vt 0.355556 0.934127
vt 0.333333 0.934127
vt 0.355556 0.942464
vt 0.333333 0.942464
vt 0.355556 0.950148
vt 0.333333 0.950148
vt 0.355556 0.956883
vt 0.333333 0.956883
vt 0.355556 0.962410
vt 0.333333 0.962410
vt 0.511111 0.913522
vt 0.511111 0.918132
vt 0.511111 0.908519
vt 0.511111 0.903317
vt 0.488889 0.898115
vt 0.511111 0.898115
vt 0.488889 0.893112
vt 0.511111 0.893112
vt 0.488889 0.888502
vt 0.511111 0.888502
vt 0.377778 0.888502
vt 0.377778 0.894029
vt 0.377778 0.900764
vt 0.377778 0.908448
vt 0.377778 0.916785
vt 0.377778 0.925456
vt 0.377778 0.934127
vt 0.377778 0.942464
vt 0.377778 0.950148
vt 0.377778 0.956883
vt 0.377778 0.962410
vt 0.790665 0.865192
vt 0.785522 0.862963
vt 0.780677 0.859135
vt 0.776317 0.853855
vt 0.772610 0.847328
vt 0.769696 0.839803
vt 0.767690 0.831569
vt 0.766667 0.822944
vt 0.766667 0.814258
vt 0.767690 0.805846
vt 0.769696 0.798030
vt 0.772610 0.791111
vt 0.776317 0.785355
vt 0.780677 0.780983
vt 0.785522 0.778163
vt 0.790665 0.777004
vt 0.795909 0.777549
vt 0.801052 0.779779
vt 0.805896 0.783607
vt 0.810256 0.788886
vt 0.813964 0.795414
vt 0.816877 0.802939
vt 0.818884 0.811172
vt 0.819907 0.819798
vt 0.819907 0.828483
vt 0.818884 0.836896
vt 0.816877 0.844712
vt 0.813964 0.851631
vt 0.810256 0.857387
vt 0.805896 0.861759
vt 0.801052 0.864578
vt 0.795909 0.865738
vt 0.843906 0.777004
vt 0.849149 0.777549
vt 0.854292 0.779779
vt 0.859137 0.783607
vt 0.863497 0.788886
vt 0.867205 0.795414
vt 0.870118 0.802939
vt 0.872125 0.811172
vt 0.873148 0.819798
vt 0.873148 0.828483
vt 0.872125 0.836896
vt 0.870118 0.844712
vt 0.867205 0.851631
vt 0.863497 0.857387
vt 0.859137 0.861758
vt 0.854292 0.864578
vt 0.849149 0.865738
vt 0.843906 0.865192
vt 0.838763 0.862962
vt 0.833918 0.859134
vt 0.829558 0.853855
vt 0.825850 0.847328
vt 0.822937 0.839803
vt 0.820930 0.831569
vt 0.819907 0.822944
vt 0.819907 0.814258
vt 0.820930 0.805846
vt 0.822937 0.798030
vt 0.825850 0.791111
vt 0.829558 0.785355
vt 0.833918 0.780983
vt 0.838763 0.778163
vt 0.533333 0.903317
vt 0.533333 0.908519
vt 0.533333 0.913522
vt 0.533333 0.918132
vt 0.400000 0.962410
vt 0.400000 0.956883
vt 0.400000 0.950148
vt 0.400000 0.942464
vt 0.400000 0.934127
vt 0.400000 0.925456
vt 0.400000 0.916785
vt 0.400000 0.908448
vt 0.400000 0.900764
vt 0.400000 0.894029
vt 0.400000 0.888502
vt 0.555556 0.918132
vt 0.555556 0.913522
vt 0.555556 0.908519
vt 0.555556 0.903317
vt 0.533333 0.898115
vt 0.555556 0.898115
vt 0.533333 0.893112
vt 0.555556 0.893112
vt 0.533333 0.888502
vt 0.555556 0.888502
vt 0.422222 0.962410
vt 0.422222 0.956883
vt 0.422222 0.950148
vt 0.422222 0.942464
vt 0.422222 0.934127
vt 0.422222 0.925456
vt 0.422222 0.916785
vt 0.422222 0.908448
vt 0.422222 0.900764
vt 0.422222 0.894029
vt 0.892003 0.778163
vt 0.897146 0.777004
vt 0.902390 0.777549
vt 0.907533 0.779779
vt 0.912377 0.783607
vt 0.916737 0.788886
vt 0.920445 0.795414
vt 0.923358 0.802939
vt 0.925365 0.811172
vt 0.926388 0.819798
vt 0.926388 0.828483
vt 0.925365 0.836896
vt 0.923358 0.844712
vt 0.920445 0.851631
vt 0.916737 0.857387
vt 0.912377 0.861758
vt 0.907533 0.864578
vt 0.902390 0.865738
vt 0.897146 0.865192
vt 0.892003 0.862962
vt 0.887158 0.859134
vt 0.882798 0.853855
vt 0.879091 0.847328
vt 0.876177 0.839803
vt 0.874171 0.831569
vt 0.873148 0.822944
vt 0.873148 0.814258
vt 0.874171 0.805846
vt 0.876177 0.798030
vt 0.879091 0.791111
vt 0.882798 0.785355
vt 0.887158 0.780983
vt 0.628778 0.755401
vt 0.623534 0.754855
vt 0.618391 0.752626
vt 0.613546 0.748798
vt 0.609186 0.743518
vt 0.605479 0.736991
vt 0.602565 0.729466
vt 0.600559 0.721232
vt 0.599536 0.712607
vt 0.599536 0.703921
vt 0.600559 0.695509
vt 0.602565 0.687693
vt 0.605479 0.680774
vt 0.609186 0.675018
vt 0.613546 0.670646
vt 0.618391 0.667826
vt 0.623534 0.666667
vt 0.628778 0.667212
vt 0.633921 0.669442
vt 0.638765 0.673270
vt 0.643125 0.678549
vt 0.646833 0.685077
vt 0.649746 0.692602
vt 0.651753 0.700835
vt 0.652776 0.709461
vt 0.652776 0.718146
vt 0.651753 0.726559
vt 0.649746 0.734375
vt 0.646833 0.741294
vt 0.643125 0.747050
vt 0.638765 0.751422
vt 0.633921 0.754241
vt 0.900000 0.902776
vt 0.900000 0.915782
vt 0.900000 0.928288
vt 0.900000 0.939814
vt 0.932869 0.873828
vt 0.955091 0.873828
vt 0.932869 0.856991
vt 0.955091 0.856991
vt 0.932869 0.837781
vt 0.955091 0.837781
vt 0.932869 0.816938
vt 0.955091 0.816938
vt 0.932869 0.795261
vt 0.955091 0.795261
vt 0.932869 0.773584
vt 0.955091 0.773584
vt 0.932869 0.752741
vt 0.955091 0.752741
vt 0.932869 0.733531
vt 0.955091 0.733531
vt 0.932869 0.716693
vt 0.955091 0.716693
vt 0.977313 0.887646
vt 0.977313 0.873828
vt 0.977313 0.856991
vt 0.977313 0.837781
vt 0.977313 0.816938
vt 0.977313 0.795261
vt 0.977313 0.773584
vt 0.977313 0.752741
vt 0.977313 0.733531
vt 0.977313 0.716693
vt 0.900000 0.877263
vt 0.846906 0.336232
vt 0.859764 0.333333
vt 0.872873 0.334697
vt 0.885730 0.340271
vt 0.897842 0.349841
vt 0.908742 0.363039
vt 0.918012 0.379358
vt 0.925295 0.398171
vt 0.930311 0.418755
vt 0.932869 0.440318
vt 0.932869 0.462033
vt 0.930311 0.483064
vt 0.925295 0.502603
vt 0.918012 0.519901
vt 0.908742 0.534291
vt 0.897842 0.545220
vt 0.885730 0.552270
vt 0.872873 0.555169
vt 0.859764 0.553805
vt 0.846906 0.548230
vt 0.834795 0.538660
vt 0.823895 0.525462
vt 0.814625 0.509143
vt 0.807342 0.490331
vt 0.802325 0.469747
vt 0.799768 0.448184
vt 0.799768 0.426469
vt 0.802325 0.405438
vt 0.807342 0.385898
vt 0.814625 0.368601
vt 0.823895 0.354211
vt 0.834795 0.343281
vt 0.900000 0.889770
vt 0.872873 0.777004
vt 0.859764 0.775640
vt 0.846906 0.770066
vt 0.834795 0.760496
vt 0.823895 0.747298
vt 0.814625 0.730979
vt 0.807342 0.712166
vt 0.802325 0.691582
vt 0.799768 0.670019
vt 0.799768 0.648304
vt 0.802325 0.627273
vt 0.807342 0.607734
vt 0.814625 0.590436
vt 0.823895 0.576046
vt 0.834795 0.565117
vt 0.846906 0.558067
vt 0.859764 0.555169
vt 0.872873 0.556533
vt 0.885730 0.562107
vt 0.897842 0.571677
vt 0.908742 0.584875
vt 0.918012 0.601194
vt 0.925295 0.620006
vt 0.930311 0.640590
vt 0.932869 0.662153
vt 0.932869 0.683868
vt 0.930311 0.704899
vt 0.925295 0.724439
vt 0.918012 0.741736
vt 0.908742 0.756126
vt 0.897842 0.767056
vt 0.885730 0.774105
s 1
usemtl Material.003
f 1/1/1 2/2/1 4/3/1 3/4/1
f 3/5/2 4/6/2 8/2/2 7/1/2
f 7/7/3 8/1/3 6/4/3 5/8/3
f 5/9/4 6/5/4 2/1/4 1/7/4
f 3/5/5 7/10/5 5/11/5 1/6/5
f 8/12/6 4/13/6 2/7/6 6/8/6
f 9/14/7 11/15/7 12/16/7 10/17/7
f 11/15/8 13/18/8 14/19/8 12/16/8
f 13/18/9 15/20/9 16/21/9 14/19/9
f 15/22/10 17/23/10 18/24/10 16/25/10
f 17/23/11 19/26/11 20/27/11 18/24/11
f 19/26/12 21/28/12 22/29/12 20/27/12
f 21/28/13 23/30/13 24/31/13 22/29/13
f 23/30/14 25/32/14 26/33/14 24/31/14
f 25/32/15 27/34/15 28/35/15 26/33/15
f 27/34/16 29/36/16 30/37/16 28/35/16
f 29/36/17 31/38/17 32/39/17 30/37/17
f 31/38/18 33/40/18 34/41/18 32/39/18
f 33/40/19 35/42/19 36/43/19 34/41/19
f 35/44/20 37/45/20 38/46/20 36/47/20
f 37/45/21 39/48/21 40/49/21 38/46/21
f 39/48/22 41/50/22 42/51/22 40/49/22
f 41/50/23 43/52/23 44/53/23 42/51/23
f 43/52/24 45/54/24 46/55/24 44/53/24
f 45/54/25 47/56/25 48/57/25 46/55/25
f 47/25/26 49/24/26 50/58/26 48/59/26
f 49/24/27 51/27/27 52/60/27 50/58/27
f 51/27/28 53/29/28 54/61/28 52/60/28
f 53/29/29 55/31/29 56/62/29 54/61/29
f 55/31/30 57/33/30 58/63/30 56/62/30
f 57/33/31 59/35/31 60/64/31 58/63/31
f 59/35/32 61/37/32 62/65/32 60/64/32
f 61/37/33 63/39/33 64/66/33 62/65/33
f 63/39/34 65/41/34 66/67/34 64/66/34
f 65/41/35 67/43/35 68/68/35 66/67/35
f 67/69/36 69/70/36 70/71/36 68/72/36
f 12/73/2 14/74/2 16/75/2 18/76/2 20/77/2 22/78/2 24/79/2 26/80/2 28/81/2 30/82/2 32/83/2 34/84/2 36/85/2 38/86/2 40/87/2 42/88/2 44/89/2 46/90/2 48/91/2 50/92/2 52/93/2 54/94/2 56/95/2 58/96/2 60/97/2 62/98/2 64/99/2 66/100/2 68/101/2 70/102/2 72/103/2 10/104/2
f 69/70/37 71/105/37 72/106/37 70/71/37
f 71/105/38 9/14/38 10/17/38 72/106/38
f 9/107/4 71/108/4 69/109/4 67/110/4 65/111/4 63/112/4 61/113/4 59/114/4 57/115/4 55/116/4 53/117/4 51/118/4 49/119/4 47/120/4 45/121/4 43/122/4 41/123/4 39/124/4 37/125/4 35/126/4 33/127/4 31/128/4 29/129/4 27/130/4 25/131/4 23/132/4 21/133/4 19/134/4 17/135/4 15/136/4 13/137/4 11/138/4
f 73/14/23 74/139/23 76/140/23 75/15/23
f 75/15/24 76/140/24 78/141/24 77/18/24
f 77/18/25 78/141/25 80/142/25 79/20/25
f 79/143/26 80/144/26 82/145/26 81/146/26
f 81/146/27 82/145/27 84/147/27 83/148/27
f 83/148/28 84/147/28 86/149/28 85/150/28
f 85/150/29 86/149/29 88/151/29 87/152/29
f 87/152/30 88/151/30 90/153/30 89/154/30
f 89/154/31 90/153/31 92/155/31 91/156/31
f 91/156/32 92/155/32 94/157/32 93/158/32
f 93/158/33 94/157/33 96/159/33 95/160/33
f 95/160/34 96/159/34 98/161/34 97/162/34
f 97/162/35 98/161/35 100/68/35 99/43/35
f 99/163/36 100/47/36 102/46/36 101/164/36
f 101/164/37 102/46/37 104/49/37 103/165/37
f 103/165/38 104/49/38 106/51/38 105/166/38
f 105/166/7 106/51/7 108/53/7 107/167/7
f 107/167/8 108/53/8 110/55/8 109/168/8
f 109/168/9 110/55/9 112/57/9 111/169/9
f 111/170/10 112/143/10 114/146/10 113/171/10
f 113/171/11 114/146/11 116/148/11 115/172/11
f 115/172/12 116/148/12 118/150/12 117/173/12
f 117/173/13 118/150/13 120/152/13 119/174/13
f 119/174/14 120/152/14 122/154/14 121/175/14
f 121/175/15 122/154/15 124/156/15 123/176/15
f 123/176/16 124/156/16 126/158/16 125/177/16
f 125/177/17 126/158/17 128/160/17 127/178/17
f 127/178/18 128/160/18 130/162/18 129/179/18
f 129/179/19 130/162/19 132/43/19 131/42/19
f 131/69/20 132/180/20 134/181/20 133/70/20
f 76/182/4 74/183/4 136/184/4 134/185/4 132/186/4 130/187/4 128/188/4 126/189/4 124/190/4 122/191/4 120/192/4 118/193/4 116/194/4 114/195/4 112/196/4 110/197/4 108/198/4 106/199/4 104/200/4 102/201/4 100/202/4 98/203/4 96/204/4 94/205/4 92/206/4 90/207/4 88/208/4 86/209/4 84/210/4 82/211/4 80/212/4 78/213/4
f 133/70/21 134/181/21 136/214/21 135/105/21
f 135/105/22 136/214/22 74/139/22 73/14/22
f 73/215/2 75/216/2 77/217/2 79/218/2 81/219/2 83/220/2 85/221/2 87/222/2 89/223/2 91/224/2 93/225/2 95/226/2 97/227/2 99/228/2 101/229/2 103/230/2 105/231/2 107/232/2 109/233/2 111/234/2 113/235/2 115/236/2 117/237/2 119/238/2 121/239/2 123/240/2 125/241/2 127/242/2 129/243/2 131/244/2 133/245/2 135/246/2
f 137/247/4 138/248/4 140/249/4 139/250/4
f 141/251/23 142/252/23 144/253/23 143/254/23
f 143/254/24 144/253/24 146/255/24 145/256/24
f 145/256/25 146/255/25 148/257/25 147/258/25
f 147/259/26 148/260/26 150/261/26 149/262/26
f 149/262/27 150/261/27 152/263/27 151/264/27
f 151/264/28 152/263/28 154/265/28 153/266/28
f 153/266/29 154/265/29 156/267/29 155/268/29
f 155/268/30 156/267/30 158/269/30 157/270/30
f 157/270/31 158/269/31 160/271/31 159/272/31
f 159/272/32 160/271/32 162/273/32 161/274/32
f 161/274/33 162/273/33 164/275/33 163/276/33
f 163/276/34 164/275/34 166/277/34 165/278/34
f 165/278/35 166/277/35 168/279/35 167/280/35
f 167/281/36 168/282/36 170/283/36 169/284/36
f 169/284/37 170/283/37 172/285/37 171/286/37
f 171/286/38 172/285/38 174/287/38 173/288/38
f 173/288/7 174/287/7 176/289/7 175/290/7
f 175/290/8 176/289/8 178/291/8 177/292/8
f 177/292/9 178/291/9 180/293/9 179/294/9
f 179/295/10 180/296/10 182/297/10 181/298/10
f 181/298/11 182/297/11 184/299/11 183/300/11
f 183/300/12 184/299/12 186/301/12 185/302/12
f 185/302/13 186/301/13 188/303/13 187/304/13
f 187/304/14 188/303/14 190/305/14 189/306/14
f 189/306/15 190/305/15 192/307/15 191/308/15
f 191/308/16 192/307/16 194/309/16 193/310/16
f 193/310/17 194/309/17 196/311/17 195/312/17
f 195/312/18 196/311/18 198/313/18 197/314/18
f 197/314/19 198/313/19 200/315/19 199/316/19
f 199/317/20 200/318/20 202/319/20 201/320/20
f 144/321/4 142/322/4 204/323/4 202/324/4 200/325/4 198/326/4 196/327/4 194/328/4 192/329/4 190/330/4 188/331/4 186/332/4 184/333/4 182/334/4 180/335/4 178/336/4 176/337/4 174/338/4 172/339/4 170/340/4 168/341/4 166/342/4 164/343/4 162/344/4 160/345/4 158/346/4 156/347/4 154/348/4 152/349/4 150/350/4 148/351/4 146/352/4
f 201/320/21 202/319/21 204/353/21 203/354/21
f 203/354/22 204/353/22 142/252/22 141/251/22
f 141/355/2 143/356/2 145/357/2 147/358/2 149/359/2 151/360/2 153/361/2 155/362/2 157/363/2 159/364/2 161/365/2 163/366/2 165/367/2 167/368/2 169/369/2 171/370/2 173/371/2 175/372/2 177/373/2 179/374/2 181/375/2 183/376/2 185/377/2 187/378/2 189/379/2 191/380/2 193/381/2 195/382/2 197/383/2 199/384/2 201/385/2 203/386/2
f 205/387/7 207/388/7 208/286/7 206/288/7
f 207/388/8 209/389/8 210/284/8 208/286/8
f 209/389/9 211/390/9 212/281/9 210/284/9
f 211/391/10 213/392/10 214/393/10 212/394/10
f 213/392/11 215/395/11 216/396/11 214/393/11
f 215/395/12 217/397/12 218/398/12 216/396/12
f 217/397/13 219/399/13 220/400/13 218/398/13
f 219/399/14 221/401/14 222/402/14 220/400/14
f 221/401/15 223/403/15 224/404/15 222/402/15
f 223/403/16 225/405/16 226/406/16 224/404/16
f 225/405/17 227/407/17 228/408/17 226/406/17
f 227/407/18 229/409/18 230/410/18 228/408/18
f 229/409/19 231/411/19 232/412/19 230/410/19
f 231/390/20 233/389/20 234/413/20 232/414/20
f 233/389/21 235/388/21 236/415/21 234/413/21
f 235/388/22 237/387/22 238/416/22 236/415/22
f 237/387/23 239/417/23 240/418/23 238/416/23
f 239/417/24 241/419/24 242/420/24 240/418/24
f 241/419/25 243/421/25 244/422/25 242/420/25
f 243/423/26 245/424/26 246/392/26 244/391/26
f 245/424/27 247/425/27 248/395/27 246/392/27
f 247/425/28 249/426/28 250/397/28 248/395/28
f 249/426/29 251/427/29 252/399/29 250/397/29
f 251/427/30 253/428/30 254/401/30 252/399/30
f 253/428/31 255/429/31 256/403/31 254/401/31
f 255/429/32 257/430/32 258/405/32 256/403/32
f 257/430/33 259/431/33 260/407/33 258/405/33
f 259/431/34 261/432/34 262/409/34 260/407/34
f 261/432/35 263/433/35 264/411/35 262/409/35
f 263/421/36 265/419/36 266/292/36 264/294/36
f 208/434/2 210/435/2 212/436/2 214/437/2 216/438/2 218/439/2 220/440/2 222/441/2 224/442/2 226/443/2 228/444/2 230/445/2 232/446/2 234/447/2 236/448/2 238/449/2 240/450/2 242/451/2 244/452/2 246/453/2 248/454/2 250/455/2 252/456/2 254/457/2 256/458/2 258/459/2 260/460/2 262/461/2 264/462/2 266/463/2 268/464/2 206/465/2
f 265/419/37 267/417/37 268/290/37 266/292/37
f 267/417/38 205/387/38 206/288/38 268/290/38
f 205/466/4 267/467/4 265/468/4 263/469/4 261/470/4 259/471/4 257/472/4 255/473/4 253/474/4 251/475/4 249/476/4 247/477/4 245/478/4 243/479/4 241/480/4 239/481/4 237/482/4 235/483/4 233/484/4 231/485/4 229/486/4 227/487/4 225/488/4 223/489/4 221/490/4 219/491/4 217/492/4 215/493/4 213/494/4 211/495/4 209/496/4 207/497/4
f 269/416/23 270/498/23 272/499/23 271/415/23
f 271/415/24 272/499/24 274/500/24 273/413/24
f 273/413/25 274/500/25 276/501/25 275/414/25
f 275/502/26 276/433/26 278/432/26 277/503/26
f 277/503/27 278/432/27 280/431/27 279/504/27
f 279/504/28 280/431/28 282/430/28 281/505/28
f 281/505/29 282/430/29 284/429/29 283/506/29
f 283/506/30 284/429/30 286/428/30 285/507/30
f 285/507/31 286/428/31 288/427/31 287/508/31
f 287/508/32 288/427/32 290/426/32 289/509/32
f 289/509/33 290/426/33 292/425/33 291/510/33
f 291/510/34 292/425/34 294/424/34 293/511/34
f 293/511/35 294/424/35 296/423/35 295/512/35
f 295/513/36 296/501/36 298/500/36 297/514/36
f 297/514/37 298/500/37 300/499/37 299/515/37
f 299/515/38 300/499/38 302/498/38 301/516/38
f 301/516/7 302/498/7 304/517/7 303/518/7
f 303/518/8 304/517/8 306/519/8 305/520/8
f 305/520/9 306/519/9 308/521/9 307/522/9
f 307/523/10 308/502/10 310/503/10 309/524/10
f 309/524/11 310/503/11 312/504/11 311/525/11
f 311/525/12 312/504/12 314/505/12 313/526/12
f 313/526/13 314/505/13 316/506/13 315/527/13
f 315/527/14 316/506/14 318/507/14 317/528/14
f 317/528/15 318/507/15 320/508/15 319/529/15
f 319/529/16 320/508/16 322/509/16 321/530/16
f 321/530/17 322/509/17 324/510/17 323/531/17
f 323/531/18 324/510/18 326/511/18 325/532/18
f 325/532/19 326/511/19 328/512/19 327/317/19
f 327/422/20 328/521/20 330/519/20 329/420/20
f 272/533/4 270/534/4 332/535/4 330/536/4 328/537/4 326/538/4 324/539/4 322/540/4 320/541/4 318/542/4 316/543/4 314/544/4 312/545/4 310/546/4 308/547/4 306/548/4 304/549/4 302/550/4 300/551/4 298/552/4 296/553/4 294/554/4 292/555/4 290/556/4 288/557/4 286/558/4 284/559/4 282/560/4 280/561/4 278/562/4 276/563/4 274/564/4
f 329/420/21 330/519/21 332/517/21 331/418/21
f 331/418/22 332/517/22 270/498/22 269/416/22
f 269/565/2 271/566/2 273/567/2 275/568/2 277/569/2 279/570/2 281/571/2 283/572/2 285/573/2 287/574/2 289/575/2 291/576/2 293/577/2 295/578/2 297/579/2 299/580/2 301/581/2 303/582/2 305/583/2 307/584/2 309/585/2 311/586/2 313/587/2 315/588/2 317/589/2 319/590/2 321/591/2 323/592/2 325/593/2 327/594/2 329/595/2 331/596/2
f 333/166/23 334/597/23 336/598/23 335/165/23
f 335/165/24 336/598/24 338/599/24 337/164/24
f 337/164/25 338/599/25 340/600/25 339/163/25
f 339/316/26 340/315/26 342/601/26 341/602/26
f 341/602/27 342/601/27 344/603/27 343/604/27
f 343/604/28 344/603/28 346/605/28 345/606/28
f 345/606/29 346/605/29 348/607/29 347/608/29
f 347/608/30 348/607/30 350/609/30 349/610/30
f 349/610/31 350/609/31 352/611/31 351/612/31
f 351/612/32 352/611/32 354/613/32 353/614/32
f 353/614/33 354/613/33 356/615/33 355/616/33
f 355/616/34 356/615/34 358/617/34 357/618/34
f 357/618/35 358/617/35 360/144/35 359/143/35
f 359/44/36 360/142/36 362/141/36 361/45/36
f 361/45/37 362/141/37 364/140/37 363/48/37
f 363/48/38 364/140/38 366/139/38 365/50/38
f 365/50/7 366/139/7 368/214/7 367/52/7
f 367/52/8 368/214/8 370/181/8 369/54/8
f 369/54/9 370/181/9 372/180/9 371/56/9
f 371/619/10 372/316/10 374/602/10 373/620/10
f 373/620/11 374/602/11 376/604/11 375/621/11
f 375/621/12 376/604/12 378/606/12 377/622/12
f 377/622/13 378/606/13 380/608/13 379/623/13
f 379/623/14 380/608/14 382/610/14 381/624/14
f 381/624/15 382/610/15 384/612/15 383/625/15
f 383/625/16 384/612/16 386/614/16 385/626/16
f 385/626/17 386/614/17 388/616/17 387/627/17
f 387/627/18 388/616/18 390/618/18 389/628/18
f 389/628/19 390/618/19 392/143/19 391/170/19
f 391/169/20 392/279/20 394/629/20 393/168/20
f 336/630/4 334/631/4 396/632/4 394/633/4 392/634/4 390/635/4 388/636/4 386/637/4 384/638/4 382/639/4 380/640/4 378/641/4 376/642/4 374/643/4 372/644/4 370/645/4 368/646/4 366/647/4 364/648/4 362/649/4 360/650/4 358/651/4 356/652/4 354/653/4 352/654/4 350/655/4 348/656/4 346/657/4 344/658/4 342/659/4 340/660/4 338/661/4
f 393/168/21 394/629/21 396/662/21 395/167/21
f 395/167/22 396/662/22 334/597/22 333/166/22
f 333/663/2 335/664/2 337/665/2 339/666/2 341/667/2 343/668/2 345/669/2 347/670/2 349/671/2 351/672/2 353/673/2 355/674/2 357/675/2 359/676/2 361/677/2 363/678/2 365/679/2 367/680/2 369/681/2 371/682/2 373/683/2 375/684/2 377/685/2 379/686/2 381/687/2 383/688/2 385/689/2 387/690/2 389/691/2 391/692/2 393/693/2 395/694/2
