# Blender 5.0.1
# www.blender.org
mtllib mdlCuelloP.mtl
o Cuello
v -6.214865 4.601345 -1.295473
v -6.213569 4.601345 -1.280529
v -6.209382 4.601345 -1.266126
v -6.202466 4.601345 -1.252817
v -6.193085 4.601345 -1.241112
v -6.181602 4.601345 -1.231462
v -6.168457 4.601345 -1.224239
v -6.154154 4.601345 -1.219718
v -6.139246 4.601345 -1.218074
v -6.124302 4.601345 -1.219371
v -6.109899 4.601345 -1.223558
v -6.096590 4.601345 -1.230474
v -6.084885 4.601345 -1.239854
v -6.075235 4.601345 -1.251337
v -6.068011 4.601345 -1.264483
v -6.063490 4.601345 -1.278784
v -6.061847 4.601345 -1.293694
v -6.063144 4.601345 -1.308637
v -6.067330 4.601345 -1.323040
v -6.074247 4.601345 -1.336350
v -6.083626 4.601345 -1.348054
v -6.095110 4.601345 -1.357704
v -6.108255 4.601345 -1.364928
v -6.122557 4.601345 -1.369449
v -6.137466 4.601345 -1.371093
v -6.152410 4.601345 -1.369796
v -6.166813 4.601345 -1.365609
v -6.180123 4.601345 -1.358693
v -6.191827 4.601345 -1.349312
v -6.201477 4.601345 -1.337829
v -6.208701 4.601345 -1.324684
v -6.213222 4.601345 -1.310382
v -6.220353 4.634166 -1.295537
v -6.218963 4.634166 -1.279522
v -6.214476 4.634166 -1.264086
v -6.207064 4.634166 -1.249821
v -6.197011 4.634166 -1.237277
v -6.184704 4.634166 -1.226935
v -6.170615 4.634166 -1.219193
v -6.155288 4.634166 -1.214348
v -6.139309 4.634166 -1.212586
v -6.123294 4.634166 -1.213976
v -6.107858 4.634166 -1.218464
v -6.093594 4.634166 -1.225876
v -6.081049 4.634166 -1.235929
v -6.070708 4.634166 -1.248236
v -6.062965 4.634166 -1.262324
v -6.058121 4.634166 -1.277652
v -6.056359 4.634166 -1.293630
v -6.057749 4.634166 -1.309645
v -6.062236 4.634166 -1.325082
v -6.069648 4.634166 -1.339346
v -6.079701 4.634166 -1.351890
v -6.092009 4.634166 -1.362232
v -6.106096 4.634166 -1.369974
v -6.121424 4.634166 -1.374819
v -6.137403 4.634166 -1.376580
v -6.153418 4.634166 -1.375191
v -6.168854 4.634166 -1.370704
v -6.183118 4.634166 -1.363291
v -6.195662 4.634166 -1.353238
v -6.206005 4.634166 -1.340931
v -6.213746 4.634166 -1.326843
v -6.218591 4.634166 -1.311515
v -6.220353 4.681256 -1.295537
v -6.218963 4.681256 -1.279522
v -6.214476 4.681256 -1.264086
v -6.207064 4.681256 -1.249821
v -6.197011 4.681256 -1.237277
v -6.184704 4.681256 -1.226935
v -6.170615 4.681256 -1.219193
v -6.155288 4.681256 -1.214348
v -6.139309 4.681256 -1.212586
v -6.123294 4.681256 -1.213976
v -6.107858 4.681256 -1.218464
v -6.093594 4.681256 -1.225876
v -6.081049 4.681256 -1.235929
v -6.070708 4.681256 -1.248236
v -6.062965 4.681256 -1.262324
v -6.058121 4.681256 -1.277652
v -6.056359 4.681256 -1.293630
v -6.057749 4.681256 -1.309645
v -6.062236 4.681256 -1.325082
v -6.069648 4.681256 -1.339346
v -6.079701 4.681256 -1.351890
v -6.092009 4.681256 -1.362232
v -6.106096 4.681256 -1.369974
v -6.121424 4.681256 -1.374819
v -6.137403 4.681256 -1.376580
v -6.153418 4.681256 -1.375191
v -6.168854 4.681256 -1.370704
v -6.183118 4.681256 -1.363291
v -6.195662 4.681256 -1.353238
v -6.206005 4.681256 -1.340931
v -6.213746 4.681256 -1.326843
v -6.218591 4.681256 -1.311515
v -6.216946 4.709795 -1.295497
v -6.215614 4.709795 -1.280148
v -6.211313 4.709795 -1.265353
v -6.204209 4.709795 -1.251681
v -6.194574 4.709795 -1.239658
v -6.182778 4.709795 -1.229746
v -6.169275 4.709795 -1.222325
v -6.154584 4.709795 -1.217682
v -6.139270 4.709795 -1.215993
v -6.123920 4.709795 -1.217325
v -6.109125 4.709795 -1.221626
v -6.095453 4.709795 -1.228731
v -6.083431 4.709795 -1.238366
v -6.073518 4.709795 -1.250161
v -6.066097 4.709795 -1.263664
v -6.061454 4.709795 -1.278355
v -6.059766 4.709795 -1.293670
v -6.061098 4.709795 -1.309020
v -6.065399 4.709795 -1.323815
v -6.072504 4.709795 -1.337486
v -6.082139 4.709795 -1.349509
v -6.093934 4.709795 -1.359421
v -6.107436 4.709795 -1.366841
v -6.122128 4.709795 -1.371485
v -6.137443 4.709795 -1.373173
v -6.152792 4.709795 -1.371842
v -6.167587 4.709795 -1.367541
v -6.181259 4.709795 -1.360436
v -6.193282 4.709795 -1.350801
v -6.203194 4.709795 -1.339005
v -6.210614 4.709795 -1.325502
v -6.215258 4.709795 -1.310812
v -6.214790 4.764734 -1.295472
v -6.213494 4.764734 -1.280544
v -6.209311 4.764734 -1.266154
v -6.202402 4.764734 -1.252858
v -6.193031 4.764734 -1.241165
v -6.181559 4.764734 -1.231525
v -6.168427 4.764734 -1.224308
v -6.154139 4.764734 -1.219792
v -6.139245 4.764734 -1.218150
v -6.124316 4.764734 -1.219445
v -6.109927 4.764734 -1.223628
v -6.096631 4.764734 -1.230537
v -6.084938 4.764734 -1.239908
v -6.075298 4.764734 -1.251381
v -6.068081 4.764734 -1.264512
v -6.063565 4.764734 -1.278800
v -6.061923 4.764734 -1.293695
v -6.063218 4.764734 -1.308623
v -6.067400 4.764734 -1.323012
v -6.074310 4.764734 -1.336309
v -6.083681 4.764734 -1.348002
v -6.095153 4.764734 -1.357642
v -6.108285 4.764734 -1.364859
v -6.122573 4.764734 -1.369375
v -6.137467 4.764734 -1.371017
v -6.152396 4.764734 -1.369722
v -6.166785 4.764734 -1.365539
v -6.180081 4.764734 -1.358629
v -6.191774 4.764734 -1.349259
v -6.201415 4.764734 -1.337786
v -6.208631 4.764734 -1.324654
v -6.213148 4.764734 -1.310366
v -6.213901 4.815392 -1.295462
v -6.212621 4.815392 -1.280707
v -6.208487 4.815392 -1.266485
v -6.201658 4.815392 -1.253343
v -6.192395 4.815392 -1.241785
v -6.181057 4.815392 -1.232258
v -6.168077 4.815392 -1.225124
v -6.153955 4.815392 -1.220661
v -6.139235 4.815392 -1.219038
v -6.124479 4.815392 -1.220318
v -6.110257 4.815392 -1.224452
v -6.097115 4.815392 -1.231282
v -6.085558 4.815392 -1.240543
v -6.076030 4.815392 -1.251882
v -6.068897 4.815392 -1.264862
v -6.064433 4.815392 -1.278984
v -6.062810 4.815392 -1.293705
v -6.064090 4.815392 -1.308460
v -6.068225 4.815392 -1.322682
v -6.075055 4.815392 -1.335824
v -6.084316 4.815392 -1.347381
v -6.095655 4.815392 -1.356909
v -6.108635 4.815392 -1.364042
v -6.122756 4.815392 -1.368506
v -6.137478 4.815392 -1.370129
v -6.152233 4.815392 -1.368848
v -6.166454 4.815392 -1.364715
v -6.179596 4.815392 -1.357885
v -6.191154 4.815392 -1.348623
v -6.200682 4.815392 -1.337284
v -6.207815 4.815392 -1.324305
v -6.212278 4.815392 -1.310183
v -6.213901 4.872471 -1.295462
v -6.212621 4.872471 -1.280707
v -6.208487 4.872471 -1.266485
v -6.201658 4.872471 -1.253343
v -6.192395 4.872471 -1.241785
v -6.181057 4.872471 -1.232258
v -6.168077 4.872471 -1.225124
v -6.153955 4.872471 -1.220661
v -6.139235 4.872471 -1.219038
v -6.124479 4.872471 -1.220318
v -6.110257 4.872471 -1.224452
v -6.097115 4.872471 -1.231282
v -6.085558 4.872471 -1.240543
v -6.076030 4.872471 -1.251882
v -6.068897 4.872471 -1.264862
v -6.064433 4.872471 -1.278984
v -6.062810 4.872471 -1.293705
v -6.064090 4.872471 -1.308460
v -6.068225 4.872471 -1.322682
v -6.075055 4.872471 -1.335824
v -6.084316 4.872471 -1.347381
v -6.095655 4.872471 -1.356909
v -6.108635 4.872471 -1.364042
v -6.122756 4.872471 -1.368506
v -6.137478 4.872471 -1.370129
v -6.152233 4.872471 -1.368848
v -6.166455 4.872471 -1.364715
v -6.179596 4.872471 -1.357885
v -6.191154 4.872471 -1.348623
v -6.200682 4.872471 -1.337284
v -6.207815 4.872471 -1.324305
v -6.212278 4.872471 -1.310183
v -6.217874 4.904577 -1.295508
v -6.216527 4.904577 -1.279977
v -6.212175 4.904577 -1.265007
v -6.204987 4.904577 -1.251174
v -6.195238 4.904577 -1.239009
v -6.183303 4.904577 -1.228980
v -6.169641 4.904577 -1.221472
v -6.154776 4.904577 -1.216774
v -6.139281 4.904577 -1.215065
v -6.123749 4.904577 -1.216413
v -6.108779 4.904577 -1.220764
v -6.094947 4.904577 -1.227953
v -6.082781 4.904577 -1.237702
v -6.072753 4.904577 -1.249637
v -6.065245 4.904577 -1.263299
v -6.060546 4.904577 -1.278164
v -6.058837 4.904577 -1.293659
v -6.060185 4.904577 -1.309190
v -6.064537 4.904577 -1.324159
v -6.071725 4.904577 -1.337993
v -6.081474 4.904577 -1.350157
v -6.093410 4.904577 -1.360187
v -6.107072 4.904577 -1.367695
v -6.121936 4.904577 -1.372393
v -6.137432 4.904577 -1.374101
v -6.152962 4.904577 -1.372754
v -6.167932 4.904577 -1.368402
v -6.181766 4.904577 -1.361214
v -6.193930 4.904577 -1.351465
v -6.203959 4.904577 -1.339530
v -6.211467 4.904577 -1.325868
v -6.216166 4.904577 -1.311004
v -6.217874 4.968447 -1.295508
v -6.216527 4.968447 -1.279977
v -6.212175 4.968447 -1.265007
v -6.204987 4.968447 -1.251174
v -6.195238 4.968447 -1.239009
v -6.183303 4.968447 -1.228980
v -6.169641 4.968447 -1.221472
v -6.154776 4.968447 -1.216774
v -6.139281 4.968447 -1.215065
v -6.123749 4.968447 -1.216413
v -6.108779 4.968447 -1.220764
v -6.094947 4.968447 -1.227953
v -6.082781 4.968447 -1.237702
v -6.072753 4.968447 -1.249637
v -6.065245 4.968447 -1.263299
v -6.060546 4.968447 -1.278164
v -6.058837 4.968447 -1.293659
v -6.060185 4.968447 -1.309190
v -6.064537 4.968447 -1.324159
v -6.071725 4.968447 -1.337993
v -6.081474 4.968447 -1.350157
v -6.093410 4.968447 -1.360187
v -6.107072 4.968447 -1.367695
v -6.121936 4.968447 -1.372393
v -6.137432 4.968447 -1.374101
v -6.152962 4.968447 -1.372754
v -6.167932 4.968447 -1.368402
v -6.181766 4.968447 -1.361214
v -6.193930 4.968447 -1.351465
v -6.203959 4.968447 -1.339530
v -6.211467 4.968447 -1.325868
v -6.216166 4.968447 -1.311004
vn 0.8137 0.1649 0.5575
vn 0.6893 0.1649 0.7055
vn 0.6965 0.0823 0.7129
vn 0.8222 0.0823 0.5633
vn 0.1812 0.1649 0.9695
vn -0.0115 0.1649 0.9862
vn -0.0116 0.0823 0.9965
vn 0.1831 0.0823 0.9797
vn -0.5575 0.1649 0.8137
vn -0.7055 0.1649 0.6893
vn -0.7129 0.0823 0.6965
vn -0.5633 0.0823 0.8222
vn -0.9695 0.1649 0.1812
vn -0.9862 0.1649 -0.0115
vn -0.9965 0.0823 -0.0116
vn -0.9797 0.0823 0.1830
vn -0.8137 0.1649 -0.5575
vn -0.6893 0.1649 -0.7055
vn -0.6965 0.0823 -0.7128
vn -0.8222 0.0823 -0.5633
vn -0.1812 0.1649 -0.9695
vn 0.0115 0.1649 -0.9862
vn 0.0116 0.0823 -0.9965
vn -0.1831 0.0823 -0.9796
vn 0.5575 0.1649 -0.8137
vn 0.7055 0.1649 -0.6893
vn 0.7129 0.0823 -0.6965
vn 0.5633 0.0823 -0.8222
vn 0.9695 0.1649 -0.1812
vn 0.9862 0.1649 0.0115
vn 0.9965 0.0823 0.0116
vn 0.9797 0.0823 -0.1831
vn 0.9068 0.1649 0.3880
vn 0.9163 0.0823 0.3921
vn 0.3668 0.1649 0.9156
vn 0.3707 0.0823 0.9251
vn -0.3880 0.1649 0.9068
vn -0.3921 0.0823 0.9162
vn -0.9156 0.1649 0.3668
vn -0.9251 0.0823 0.3707
vn 0.9156 0.1649 -0.3668
vn 0.9251 0.0823 -0.3706
vn -0.9068 0.1649 -0.3880
vn -0.9162 0.0823 -0.3921
vn -0.3668 0.1649 -0.9156
vn -0.3707 0.0823 -0.9251
vn 0.3880 0.1649 -0.9068
vn 0.3921 0.0823 -0.9162
vn 0.9651 0.1649 0.2037
vn 0.9751 0.0823 0.2058
vn 0.5384 0.1649 0.8264
vn 0.5440 0.0823 0.8350
vn -0.2036 0.1649 0.9651
vn -0.2058 0.0823 0.9751
vn -0.8264 0.1649 0.5384
vn -0.8350 0.0823 0.5440
vn 0.2037 0.1649 -0.9650
vn 0.2058 0.0823 -0.9751
vn 0.8264 0.1649 -0.5384
vn 0.8350 0.0823 -0.5440
vn -0.9651 0.1649 -0.2037
vn -0.9751 0.0823 -0.2058
vn -0.5384 0.1649 -0.8264
vn -0.5440 0.0823 -0.8350
vn 0.6976 -0.0592 0.7140
vn 0.8235 -0.0592 0.5642
vn -0.0116 -0.0592 0.9982
vn 0.1834 -0.0592 0.9813
vn -0.7140 -0.0592 0.6976
vn -0.5642 -0.0592 0.8235
vn -0.9982 -0.0592 -0.0116
vn -0.9813 -0.0592 0.1833
vn 0.7140 -0.0592 -0.6976
vn 0.5642 -0.0592 -0.8235
vn 0.9982 -0.0592 0.0116
vn 0.9813 -0.0592 -0.1834
vn -0.6976 -0.0592 -0.7140
vn -0.8235 -0.0592 -0.5642
vn 0.0116 -0.0592 -0.9982
vn -0.1834 -0.0592 -0.9813
vn 0.9178 -0.0592 0.3927
vn 0.3713 -0.0592 0.9266
vn -0.3927 -0.0592 0.9178
vn -0.9266 -0.0592 0.3713
vn -0.3713 -0.0592 -0.9266
vn 0.3927 -0.0592 -0.9178
vn 0.9266 -0.0592 -0.3712
vn -0.9178 -0.0592 -0.3927
vn 0.9767 -0.0592 0.2061
vn 0.5449 -0.0592 0.8364
vn -0.2061 -0.0592 0.9767
vn -0.8364 -0.0592 0.5449
vn -0.9767 -0.0592 -0.2061
vn -0.5449 -0.0592 -0.8364
vn 0.2061 -0.0592 -0.9767
vn 0.8364 -0.0592 -0.5449
vn 0.6966 -0.0791 0.7130
vn 0.8224 -0.0791 0.5634
vn -0.0116 -0.0791 0.9968
vn 0.1831 -0.0791 0.9799
vn -0.7130 -0.0791 0.6966
vn -0.5634 -0.0791 0.8224
vn -0.9968 -0.0791 -0.0116
vn -0.9799 -0.0791 0.1831
vn 0.9968 -0.0791 0.0116
vn 0.9799 -0.0791 -0.1831
vn -0.6966 -0.0791 -0.7130
vn -0.8224 -0.0791 -0.5634
vn 0.0116 -0.0791 -0.9968
vn -0.1831 -0.0791 -0.9799
vn 0.7130 -0.0791 -0.6966
vn 0.5634 -0.0791 -0.8224
vn 0.9165 -0.0791 0.3922
vn 0.3708 -0.0791 0.9254
vn -0.3922 -0.0791 0.9165
vn -0.9253 -0.0791 0.3708
vn 0.3922 -0.0791 -0.9165
vn 0.9254 -0.0791 -0.3707
vn -0.9165 -0.0791 -0.3922
vn -0.3707 -0.0791 -0.9254
vn 0.9754 -0.0791 0.2058
vn 0.5442 -0.0791 0.8352
vn -0.2058 -0.0791 0.9754
vn -0.8352 -0.0791 0.5442
vn -0.5442 -0.0791 -0.8352
vn 0.2058 -0.0791 -0.9754
vn 0.8353 -0.0791 -0.5441
vn -0.9754 -0.0791 -0.2058
vn 0.6986 -0.0284 0.7150
vn 0.8246 -0.0284 0.5650
vn -0.0116 -0.0284 0.9995
vn 0.1836 -0.0284 0.9826
vn -0.7150 -0.0284 0.6986
vn -0.5650 -0.0284 0.8246
vn -0.9995 -0.0284 -0.0116
vn -0.9826 -0.0284 0.1836
vn -0.6986 -0.0284 -0.7150
vn -0.8246 -0.0284 -0.5650
vn 0.0116 -0.0284 -0.9995
vn -0.1836 -0.0284 -0.9826
vn 0.7150 -0.0284 -0.6986
vn 0.5650 -0.0284 -0.8246
vn 0.9995 -0.0284 0.0116
vn 0.9826 -0.0284 -0.1836
vn 0.9190 -0.0284 0.3932
vn 0.3718 -0.0284 0.9279
vn -0.3932 -0.0284 0.9190
vn -0.9279 -0.0284 0.3718
vn 0.9279 -0.0284 -0.3718
vn -0.9190 -0.0284 -0.3932
vn -0.3718 -0.0284 -0.9279
vn 0.3932 -0.0284 -0.9190
vn 0.9781 -0.0284 0.2064
vn 0.5456 -0.0284 0.8375
vn -0.2064 -0.0284 0.9781
vn -0.8375 -0.0284 0.5456
vn 0.2064 -0.0284 -0.9781
vn 0.8375 -0.0284 -0.5456
vn -0.9781 -0.0284 -0.2064
vn -0.5456 -0.0284 -0.8375
vn 0.6988 -0.0088 0.7153
vn 0.8249 -0.0088 0.5652
vn -0.0116 -0.0088 0.9999
vn 0.1837 -0.0088 0.9829
vn -0.7153 -0.0088 0.6988
vn -0.5652 -0.0088 0.8249
vn -0.9999 -0.0088 -0.0116
vn -0.9829 -0.0088 0.1837
vn -0.6988 -0.0088 -0.7153
vn -0.8249 -0.0088 -0.5652
vn 0.0116 -0.0088 -0.9999
vn -0.1837 -0.0088 -0.9829
vn 0.7153 -0.0088 -0.6988
vn 0.5652 -0.0088 -0.8249
vn 0.9999 -0.0088 0.0116
vn 0.9829 -0.0088 -0.1837
vn 0.9193 -0.0088 0.3934
vn 0.3719 -0.0088 0.9282
vn -0.3934 -0.0088 0.9193
vn -0.9282 -0.0088 0.3719
vn -0.9193 -0.0088 -0.3934
vn -0.3719 -0.0088 -0.9282
vn 0.3934 -0.0088 -0.9193
vn 0.9282 -0.0088 -0.3719
vn 0.9784 -0.0088 0.2065
vn 0.5458 -0.0088 0.8378
vn -0.2065 -0.0088 0.9784
vn -0.8378 -0.0088 0.5458
vn 0.8378 -0.0088 -0.5458
vn -0.9784 -0.0088 -0.2065
vn -0.5459 -0.0088 -0.8378
vn 0.2065 -0.0088 -0.9784
vn 0.6975 0.0618 0.7139
vn 0.8234 0.0618 0.5641
vn -0.0116 0.0618 0.9980
vn 0.1833 0.0618 0.9811
vn -0.7139 0.0618 0.6975
vn -0.5641 0.0618 0.8234
vn -0.9980 0.0618 -0.0116
vn -0.9811 0.0618 0.1833
vn 0.0116 0.0618 -0.9980
vn -0.1833 0.0618 -0.9811
vn 0.7139 0.0618 -0.6975
vn 0.5641 0.0618 -0.8234
vn 0.9980 0.0618 0.0116
vn 0.9811 0.0618 -0.1833
vn -0.6975 0.0618 -0.7139
vn -0.8234 0.0618 -0.5641
vn 0.9176 0.0618 0.3926
vn 0.3712 0.0618 0.9265
vn -0.3926 0.0618 0.9176
vn -0.9265 0.0618 0.3712
vn -0.9176 0.0617 -0.3926
vn -0.3712 0.0618 -0.9265
vn 0.3926 0.0618 -0.9176
vn 0.9265 0.0618 -0.3712
vn 0.9766 0.0618 0.2061
vn 0.5448 0.0618 0.8363
vn -0.2061 0.0618 0.9766
vn -0.8363 0.0618 0.5448
vn -0.9766 0.0618 -0.2061
vn -0.5448 0.0618 -0.8363
vn 0.2061 0.0618 -0.9766
vn 0.8363 0.0618 -0.5448
vn 0.6975 0.0613 0.7139
vn 0.8234 0.0613 0.5641
vn -0.0116 0.0613 0.9981
vn 0.1833 0.0613 0.9811
vn -0.7139 0.0613 0.6975
vn -0.5641 0.0613 0.8234
vn -0.9981 0.0613 -0.0116
vn -0.9811 0.0613 0.1833
vn 0.7139 0.0613 -0.6975
vn 0.5641 0.0613 -0.8234
vn 0.9981 0.0613 0.0116
vn 0.9811 0.0613 -0.1833
vn -0.6975 0.0613 -0.7139
vn -0.8234 0.0613 -0.5641
vn 0.0116 0.0613 -0.9981
vn -0.1833 0.0613 -0.9811
vn 0.9176 0.0613 0.3927
vn 0.3712 0.0613 0.9265
vn -0.3927 0.0613 0.9176
vn -0.9265 0.0613 0.3712
vn -0.3712 0.0613 -0.9265
vn 0.3927 0.0613 -0.9176
vn 0.9265 0.0613 -0.3712
vn -0.9176 0.0613 -0.3927
vn 0.9766 0.0613 0.2061
vn 0.5448 0.0613 0.8363
vn -0.2061 0.0613 0.9766
vn -0.8363 0.0613 0.5448
vn -0.9766 0.0613 -0.2061
vn -0.5448 0.0613 -0.8363
vn 0.2061 0.0613 -0.9766
vn 0.8363 0.0613 -0.5448
vn 0.6988 -0.0000 0.7153
vn 0.8250 -0.0000 0.5652
vn -0.0116 -0.0000 0.9999
vn 0.1837 -0.0000 0.9830
vn -0.7153 -0.0000 0.6988
vn -0.5652 -0.0000 0.8250
vn -0.9999 -0.0000 -0.0116
vn -0.9830 -0.0000 0.1837
vn 0.9999 -0.0000 0.0116
vn 0.9830 -0.0000 -0.1837
vn -0.6988 -0.0000 -0.7153
vn -0.8250 -0.0000 -0.5652
vn 0.0116 -0.0000 -0.9999
vn -0.1837 -0.0000 -0.9830
vn 0.7153 -0.0000 -0.6988
vn 0.5652 -0.0000 -0.8250
vn 0.9194 -0.0000 0.3934
vn 0.3719 -0.0000 0.9283
vn -0.3934 -0.0000 0.9194
vn -0.9283 -0.0000 0.3719
vn 0.3934 -0.0000 -0.9194
vn 0.9283 -0.0000 -0.3719
vn -0.9194 -0.0000 -0.3934
vn -0.3719 -0.0000 -0.9283
vn 0.9785 -0.0000 0.2065
vn 0.5459 -0.0000 0.8379
vn -0.2065 -0.0000 0.9785
vn -0.8379 -0.0000 0.5459
vn -0.5459 -0.0000 -0.8379
vn 0.2065 -0.0000 -0.9785
vn 0.8379 -0.0000 -0.5459
vn -0.9784 -0.0000 -0.2065
vt 0.831201 0.000709
vt 0.860211 0.000793
vt 0.859150 0.065665
vt 0.828059 0.065575
vt 0.946126 0.000544
vt 0.970719 0.000304
vt 0.977585 0.065141
vt 0.951228 0.065398
vt 0.168799 0.724004
vt 0.139788 0.723920
vt 0.140849 0.659048
vt 0.171941 0.659138
vt 0.053875 0.724169
vt 0.029281 0.724409
vt 0.022415 0.659572
vt 0.048772 0.659315
vt 0.418800 0.724003
vt 0.389791 0.723919
vt 0.390852 0.659047
vt 0.421941 0.659138
vt 0.303875 0.724168
vt 0.279281 0.724409
vt 0.272416 0.659572
vt 0.298773 0.659314
vt 0.581202 0.000711
vt 0.610212 0.000795
vt 0.609151 0.065667
vt 0.578061 0.065577
vt 0.696127 0.000546
vt 0.720721 0.000306
vt 0.727585 0.065142
vt 0.701228 0.065399
vt 0.803874 0.000544
vt 0.798773 0.065398
vt 0.918799 0.000709
vt 0.921942 0.065575
vt 0.196126 0.724169
vt 0.201228 0.659315
vt 0.081201 0.724004
vt 0.078060 0.659138
vt 0.668800 0.000711
vt 0.671942 0.065577
vt 0.446126 0.724168
vt 0.451229 0.659315
vt 0.331202 0.724003
vt 0.328061 0.659137
vt 0.553876 0.000546
vt 0.548774 0.065400
vt 0.779281 0.000304
vt 0.772416 0.065141
vt 0.889789 0.000793
vt 0.890850 0.065665
vt 0.220719 0.724409
vt 0.227585 0.659572
vt 0.110211 0.723919
vt 0.109150 0.659048
vt 0.529281 0.000306
vt 0.522416 0.065142
vt 0.639790 0.000796
vt 0.640851 0.065667
vt 0.470720 0.724408
vt 0.477586 0.659572
vt 0.360212 0.723919
vt 0.359151 0.659047
vt 0.758365 -0.000001
vt 0.750001 0.064814
vt 0.241635 0.724714
vt 0.250001 0.659899
vt 0.508367 0.000001
vt 0.500001 0.064816
vt 0.491635 0.724714
vt 0.500001 0.659899
vt 0.859150 0.158516
vt 0.828059 0.158425
vt 0.977585 0.157991
vt 0.951228 0.158249
vt 0.140849 0.566198
vt 0.171941 0.566288
vt 0.022415 0.566722
vt 0.048772 0.566465
vt 0.609151 0.158517
vt 0.578061 0.158427
vt 0.727585 0.157992
vt 0.701228 0.158250
vt 0.390852 0.566196
vt 0.421941 0.566287
vt 0.272416 0.566721
vt 0.298773 0.566464
vt 0.798773 0.158248
vt 0.921942 0.158426
vt 0.201228 0.566465
vt 0.078060 0.566288
vt 0.328061 0.566287
vt 0.548774 0.158250
vt 0.671942 0.158427
vt 0.451229 0.566464
vt 0.772416 0.157991
vt 0.890850 0.158516
vt 0.227585 0.566722
vt 0.109150 0.566198
vt 0.477586 0.566721
vt 0.359151 0.566196
vt 0.522416 0.157992
vt 0.640851 0.158517
vt 0.750001 0.064816
vt 0.750001 0.157666
vt 1.000000 0.064814
vt 1.000000 0.157664
vt 0.000000 0.659899
vt 0.000000 0.567049
vt 0.250001 0.659899
vt 0.250001 0.567048
vt 0.859808 0.214690
vt 0.830009 0.214603
vt 0.973322 0.214188
vt 0.948061 0.214434
vt 0.140192 0.510023
vt 0.169991 0.510109
vt 0.026678 0.510525
vt 0.051940 0.510279
vt 0.723324 0.214189
vt 0.698062 0.214436
vt 0.390192 0.510022
vt 0.419992 0.510109
vt 0.276678 0.510525
vt 0.301941 0.510279
vt 0.609810 0.214692
vt 0.580011 0.214605
vt 0.801939 0.214434
vt 0.919990 0.214603
vt 0.198060 0.510279
vt 0.080011 0.510109
vt 0.551941 0.214436
vt 0.669992 0.214606
vt 0.448062 0.510278
vt 0.330011 0.510109
vt 0.776678 0.214187
vt 0.890191 0.214690
vt 0.223323 0.510525
vt 0.109809 0.510023
vt 0.359810 0.510022
vt 0.526679 0.214189
vt 0.640193 0.214692
vt 0.473325 0.510525
vt 0.750001 0.157664
vt 0.755193 0.213874
vt 0.994807 0.213874
vt 0.005194 0.510839
vt 0.500001 0.157666
vt 0.505195 0.213876
vt 0.860226 0.322953
vt 0.831243 0.322869
vt 0.970624 0.322464
vt 0.946055 0.322704
vt 0.139775 0.401760
vt 0.168756 0.401845
vt 0.029376 0.402249
vt 0.053945 0.402010
vt 0.389775 0.401759
vt 0.418757 0.401843
vt 0.279376 0.402248
vt 0.303945 0.402008
vt 0.610226 0.322955
vt 0.581245 0.322870
vt 0.720626 0.322465
vt 0.696057 0.322705
vt 0.803945 0.322704
vt 0.918756 0.322869
vt 0.196056 0.402010
vt 0.081245 0.401845
vt 0.668756 0.322870
vt 0.446056 0.402008
vt 0.331245 0.401844
vt 0.553945 0.322705
vt 0.779375 0.322464
vt 0.889775 0.322953
vt 0.220625 0.402249
vt 0.110226 0.401760
vt 0.529377 0.322466
vt 0.639776 0.322954
vt 0.470625 0.402248
vt 0.360227 0.401759
vt 0.758481 0.322159
vt 0.991518 0.322160
vt 0.508482 0.322160
vt 0.008482 0.402554
vt 0.860397 0.422812
vt 0.831752 0.422729
vt 0.969514 0.422329
vt 0.945230 0.422566
vt 0.139603 0.301901
vt 0.168248 0.301985
vt 0.030486 0.302384
vt 0.054770 0.302148
vt 0.389604 0.301901
vt 0.418249 0.301984
vt 0.280487 0.302384
vt 0.304772 0.302147
vt 0.610397 0.422814
vt 0.581754 0.422730
vt 0.719514 0.422330
vt 0.695232 0.422567
vt 0.804769 0.422565
vt 0.918248 0.422729
vt 0.195231 0.302148
vt 0.081752 0.301985
vt 0.445231 0.302147
vt 0.331754 0.301984
vt 0.554771 0.422567
vt 0.668248 0.422730
vt 0.780486 0.422328
vt 0.889603 0.422812
vt 0.219513 0.302385
vt 0.110397 0.301901
vt 0.639604 0.422813
vt 0.469516 0.302384
vt 0.360399 0.301901
vt 0.530487 0.422330
vt 0.741520 0.322161
vt 0.740166 0.422029
vt 0.241519 0.402554
vt 0.240166 0.302686
vt 0.509836 0.422029
vt 0.009835 0.302686
vt 0.860397 0.535357
vt 0.831752 0.535274
vt 0.969514 0.534874
vt 0.945230 0.535111
vt 0.139603 0.189355
vt 0.168248 0.189439
vt 0.030486 0.189839
vt 0.054770 0.189602
vt 0.280487 0.189838
vt 0.304772 0.189601
vt 0.610397 0.535359
vt 0.581754 0.535276
vt 0.719514 0.534876
vt 0.695232 0.535113
vt 0.389604 0.189355
vt 0.418249 0.189438
vt 0.804769 0.535111
vt 0.918248 0.535274
vt 0.195231 0.189602
vt 0.081752 0.189439
vt 0.445231 0.189601
vt 0.331754 0.189438
vt 0.554771 0.535113
vt 0.668248 0.535276
vt 0.780486 0.534874
vt 0.889603 0.535357
vt 0.219513 0.189839
vt 0.110397 0.189355
vt 0.469516 0.189838
vt 0.360399 0.189355
vt 0.530487 0.534876
vt 0.639604 0.535359
vt 0.740166 0.534575
vt 0.240166 0.190140
vt 0.009835 0.190140
vt 0.509836 0.534575
vt 0.859629 0.598777
vt 0.829478 0.598689
vt 0.974483 0.598268
vt 0.948924 0.598518
vt 0.140370 0.125937
vt 0.170522 0.126024
vt 0.025516 0.126445
vt 0.051078 0.126195
vt 0.609631 0.598779
vt 0.579480 0.598692
vt 0.724485 0.598271
vt 0.698924 0.598521
vt 0.390373 0.125936
vt 0.420522 0.126023
vt 0.275517 0.126444
vt 0.301078 0.126195
vt 0.801077 0.598518
vt 0.920521 0.598689
vt 0.198923 0.126196
vt 0.079479 0.126024
vt 0.329480 0.126023
vt 0.551078 0.598519
vt 0.670523 0.598693
vt 0.448924 0.126195
vt 0.775517 0.598270
vt 0.890371 0.598777
vt 0.224484 0.126445
vt 0.109630 0.125937
vt 0.474485 0.126444
vt 0.359630 0.125936
vt 0.525517 0.598269
vt 0.640372 0.598780
vt 0.746223 0.597954
vt 0.246221 0.126762
vt 0.490166 0.190140
vt 0.496223 0.126761
vt 0.503780 0.597953
vt 0.859629 0.724712
vt 0.829478 0.724625
vt 0.974483 0.724204
vt 0.948923 0.724454
vt 0.140370 0.000001
vt 0.170522 0.000088
vt 0.025516 0.000509
vt 0.051078 0.000259
vt 0.724485 0.724206
vt 0.698924 0.724456
vt 0.390373 -0.000000
vt 0.420522 0.000087
vt 0.275517 0.000508
vt 0.301078 0.000259
vt 0.609631 0.724714
vt 0.579480 0.724627
vt 0.801077 0.724454
vt 0.920521 0.724625
vt 0.198923 0.000260
vt 0.079479 0.000088
vt 0.551078 0.724455
vt 0.670523 0.724627
vt 0.448924 0.000259
vt 0.329480 0.000087
vt 0.775517 0.724204
vt 0.890371 0.724713
vt 0.224484 0.000509
vt 0.109630 0.000001
vt 0.359630 -0.000000
vt 0.525517 0.724206
vt 0.640372 0.724714
vt 0.474485 0.000508
vt 0.746223 0.723888
vt 0.996221 0.597951
vt 0.996221 0.723887
vt 0.496223 0.000826
vt 0.253780 0.126761
vt 0.253780 0.000825
s 1
usemtl cuello
f 30/1/1 29/2/2 61/3/3 62/4/4
f 26/5/5 25/6/6 57/7/7 58/8/8
f 22/9/9 21/10/10 53/11/11 54/12/12
f 18/13/13 17/14/14 49/15/15 50/16/16
f 14/17/17 13/18/18 45/19/19 46/20/20
f 10/21/21 9/22/22 41/23/23 42/24/24
f 6/25/25 5/26/26 37/27/27 38/28/28
f 2/29/29 1/30/30 33/31/31 34/32/32
f 31/33/33 30/1/1 62/4/4 63/34/34
f 27/35/35 26/5/5 58/8/8 59/36/36
f 23/37/37 22/9/9 54/12/12 55/38/38
f 19/39/39 18/13/13 50/16/16 51/40/40
f 3/41/41 2/29/29 34/32/32 35/42/42
f 15/43/43 14/17/17 46/20/20 47/44/44
f 11/45/45 10/21/21 42/24/24 43/46/46
f 7/47/47 6/25/25 38/28/28 39/48/48
f 32/49/49 31/33/33 63/34/34 64/50/50
f 28/51/51 27/35/35 59/36/36 60/52/52
f 24/53/53 23/37/37 55/38/38 56/54/54
f 20/55/55 19/39/39 51/40/40 52/56/56
f 8/57/57 7/47/47 39/48/48 40/58/58
f 4/59/59 3/41/41 35/42/42 36/60/60
f 16/61/61 15/43/43 47/44/44 48/62/62
f 12/63/63 11/45/45 43/46/46 44/64/64
f 1/65/30 32/49/49 64/50/50 33/66/31
f 29/2/2 28/51/51 60/52/52 61/3/3
f 25/67/6 24/53/53 56/54/54 57/68/7
f 21/10/10 20/55/55 52/56/56 53/11/11
f 13/18/18 12/63/63 44/64/64 45/19/19
f 9/69/22 8/57/57 40/58/58 41/70/23
f 5/26/26 4/59/59 36/60/60 37/27/27
f 17/71/14 16/61/61 48/62/62 49/72/15
f 62/4/4 61/3/3 93/73/65 94/74/66
f 58/8/8 57/7/7 89/75/67 90/76/68
f 54/12/12 53/11/11 85/77/69 86/78/70
f 50/16/16 49/15/15 81/79/71 82/80/72
f 38/28/28 37/27/27 69/81/73 70/82/74
f 34/32/32 33/31/31 65/83/75 66/84/76
f 46/20/20 45/19/19 77/85/77 78/86/78
f 42/24/24 41/23/23 73/87/79 74/88/80
f 63/34/34 62/4/4 94/74/66 95/89/81
f 59/36/36 58/8/8 90/76/68 91/90/82
f 55/38/38 54/12/12 86/78/70 87/91/83
f 51/40/40 50/16/16 82/80/72 83/92/84
f 43/46/46 42/24/24 74/88/80 75/93/85
f 39/48/48 38/28/28 70/82/74 71/94/86
f 35/42/42 34/32/32 66/84/76 67/95/87
f 47/44/44 46/20/20 78/86/78 79/96/88
f 64/50/50 63/34/34 95/89/81 96/97/89
f 60/52/52 59/36/36 91/90/82 92/98/90
f 56/54/54 55/38/38 87/91/83 88/99/91
f 52/56/56 51/40/40 83/92/84 84/100/92
f 48/62/62 47/44/44 79/96/88 80/101/93
f 44/64/64 43/46/46 75/93/85 76/102/94
f 40/58/58 39/48/48 71/94/86 72/103/95
f 36/60/60 35/42/42 67/95/87 68/104/96
f 33/31/31 64/105/50 96/106/89 65/83/75
f 61/3/3 60/52/52 92/98/90 93/73/65
f 57/7/7 56/107/54 88/108/91 89/75/67
f 53/11/11 52/56/56 84/100/92 85/77/69
f 49/15/15 48/109/62 80/110/93 81/79/71
f 45/19/19 44/64/64 76/102/94 77/85/77
f 41/23/23 40/111/58 72/112/95 73/87/79
f 37/27/27 36/60/60 68/104/96 69/81/73
f 94/74/66 93/73/65 125/113/97 126/114/98
f 90/76/68 89/75/67 121/115/99 122/116/100
f 86/78/70 85/77/69 117/117/101 118/118/102
f 82/80/72 81/79/71 113/119/103 114/120/104
f 66/84/76 65/83/75 97/121/105 98/122/106
f 78/86/78 77/85/77 109/123/107 110/124/108
f 74/88/80 73/87/79 105/125/109 106/126/110
f 70/82/74 69/81/73 101/127/111 102/128/112
f 95/89/81 94/74/66 126/114/98 127/129/113
f 91/90/82 90/76/68 122/116/100 123/130/114
f 87/91/83 86/78/70 118/118/102 119/131/115
f 83/92/84 82/80/72 114/120/104 115/132/116
f 71/94/86 70/82/74 102/128/112 103/133/117
f 67/95/87 66/84/76 98/122/106 99/134/118
f 79/96/88 78/86/78 110/124/108 111/135/119
f 75/93/85 74/88/80 106/126/110 107/136/120
f 96/97/89 95/89/81 127/129/113 128/137/121
f 92/98/90 91/90/82 123/130/114 124/138/122
f 88/99/91 87/91/83 119/131/115 120/139/123
f 84/100/92 83/92/84 115/132/116 116/140/124
f 76/102/94 75/93/85 107/136/120 108/141/125
f 72/103/95 71/94/86 103/133/117 104/142/126
f 68/104/96 67/95/87 99/134/118 100/143/127
f 80/101/93 79/96/88 111/135/119 112/144/128
f 65/145/75 96/97/89 128/137/121 97/146/105
f 93/73/65 92/98/90 124/138/122 125/113/97
f 89/75/67 88/108/91 120/147/123 121/115/99
f 85/77/69 84/100/92 116/140/124 117/117/101
f 81/79/71 80/110/93 112/148/128 113/119/103
f 77/85/77 76/102/94 108/141/125 109/123/107
f 73/149/79 72/103/95 104/142/126 105/150/109
f 69/81/73 68/104/96 100/143/127 101/127/111
f 126/114/98 125/113/97 157/151/129 158/152/130
f 122/116/100 121/115/99 153/153/131 154/154/132
f 118/118/102 117/117/101 149/155/133 150/156/134
f 114/120/104 113/119/103 145/157/135 146/158/136
f 110/124/108 109/123/107 141/159/137 142/160/138
f 106/126/110 105/125/109 137/161/139 138/162/140
f 102/128/112 101/127/111 133/163/141 134/164/142
f 98/122/106 97/121/105 129/165/143 130/166/144
f 127/129/113 126/114/98 158/152/130 159/167/145
f 123/130/114 122/116/100 154/154/132 155/168/146
f 119/131/115 118/118/102 150/156/134 151/169/147
f 115/132/116 114/120/104 146/158/136 147/170/148
f 99/134/118 98/122/106 130/166/144 131/171/149
f 111/135/119 110/124/108 142/160/138 143/172/150
f 107/136/120 106/126/110 138/162/140 139/173/151
f 103/133/117 102/128/112 134/164/142 135/174/152
f 128/137/121 127/129/113 159/167/145 160/175/153
f 124/138/122 123/130/114 155/168/146 156/176/154
f 120/139/123 119/131/115 151/169/147 152/177/155
f 116/140/124 115/132/116 147/170/148 148/178/156
f 104/142/126 103/133/117 135/174/152 136/179/157
f 100/143/127 99/134/118 131/171/149 132/180/158
f 112/144/128 111/135/119 143/172/150 144/181/159
f 108/141/125 107/136/120 139/173/151 140/182/160
f 97/146/105 128/137/121 160/175/153 129/183/143
f 125/113/97 124/138/122 156/176/154 157/151/129
f 121/115/99 120/147/123 152/184/155 153/153/131
f 117/117/101 116/140/124 148/178/156 149/155/133
f 109/123/107 108/141/125 140/182/160 141/159/137
f 105/150/109 104/142/126 136/179/157 137/185/139
f 101/127/111 100/143/127 132/180/158 133/163/141
f 113/119/103 112/148/128 144/186/159 145/157/135
f 158/152/130 157/151/129 189/187/161 190/188/162
f 154/154/132 153/153/131 185/189/163 186/190/164
f 150/156/134 149/155/133 181/191/165 182/192/166
f 146/158/136 145/157/135 177/193/167 178/194/168
f 142/160/138 141/159/137 173/195/169 174/196/170
f 138/162/140 137/161/139 169/197/171 170/198/172
f 134/164/142 133/163/141 165/199/173 166/200/174
f 130/166/144 129/165/143 161/201/175 162/202/176
f 159/167/145 158/152/130 190/188/162 191/203/177
f 155/168/146 154/154/132 186/190/164 187/204/178
f 151/169/147 150/156/134 182/192/166 183/205/179
f 147/170/148 146/158/136 178/194/168 179/206/180
f 143/172/150 142/160/138 174/196/170 175/207/181
f 139/173/151 138/162/140 170/198/172 171/208/182
f 135/174/152 134/164/142 166/200/174 167/209/183
f 131/171/149 130/166/144 162/202/176 163/210/184
f 160/175/153 159/167/145 191/203/177 192/211/185
f 156/176/154 155/168/146 187/204/178 188/212/186
f 152/177/155 151/169/147 183/205/179 184/213/187
f 148/178/156 147/170/148 179/206/180 180/214/188
f 132/180/158 131/171/149 163/210/184 164/215/189
f 144/181/159 143/172/150 175/207/181 176/216/190
f 140/182/160 139/173/151 171/208/182 172/217/191
f 136/179/157 135/174/152 167/209/183 168/218/192
f 129/165/143 160/219/153 192/220/185 161/201/175
f 157/151/129 156/176/154 188/212/186 189/187/161
f 153/221/131 152/177/155 184/213/187 185/222/163
f 149/155/133 148/178/156 180/214/188 181/191/165
f 137/185/139 136/179/157 168/218/192 169/223/171
f 133/163/141 132/180/158 164/215/189 165/199/173
f 145/157/135 144/186/159 176/224/190 177/193/167
f 141/159/137 140/182/160 172/217/191 173/195/169
f 190/188/162 189/187/161 221/225/193 222/226/194
f 186/190/164 185/189/163 217/227/195 218/228/196
f 182/192/166 181/191/165 213/229/197 214/230/198
f 178/194/168 177/193/167 209/231/199 210/232/200
f 170/198/172 169/197/171 201/233/201 202/234/202
f 166/200/174 165/199/173 197/235/203 198/236/204
f 162/202/176 161/201/175 193/237/205 194/238/206
f 174/196/170 173/195/169 205/239/207 206/240/208
f 191/203/177 190/188/162 222/226/194 223/241/209
f 187/204/178 186/190/164 218/228/196 219/242/210
f 183/205/179 182/192/166 214/230/198 215/243/211
f 179/206/180 178/194/168 210/232/200 211/244/212
f 175/207/181 174/196/170 206/240/208 207/245/213
f 171/208/182 170/198/172 202/234/202 203/246/214
f 167/209/183 166/200/174 198/236/204 199/247/215
f 163/210/184 162/202/176 194/238/206 195/248/216
f 192/211/185 191/203/177 223/241/209 224/249/217
f 188/212/186 187/204/178 219/242/210 220/250/218
f 184/213/187 183/205/179 215/243/211 216/251/219
f 180/214/188 179/206/180 211/244/212 212/252/220
f 176/216/190 175/207/181 207/245/213 208/253/221
f 172/217/191 171/208/182 203/246/214 204/254/222
f 168/218/192 167/209/183 199/247/215 200/255/223
f 164/215/189 163/210/184 195/248/216 196/256/224
f 161/201/175 192/220/185 224/257/217 193/237/205
f 189/187/161 188/212/186 220/250/218 221/225/193
f 185/222/163 184/213/187 216/251/219 217/258/195
f 181/191/165 180/214/188 212/252/220 213/229/197
f 165/199/173 164/215/189 196/256/224 197/235/203
f 177/193/167 176/224/190 208/259/221 209/231/199
f 173/195/169 172/217/191 204/254/222 205/239/207
f 169/223/171 168/218/192 200/255/223 201/260/201
f 222/226/194 221/225/193 253/261/225 254/262/226
f 218/228/196 217/227/195 249/263/227 250/264/228
f 214/230/198 213/229/197 245/265/229 246/266/230
f 210/232/200 209/231/199 241/267/231 242/268/232
f 198/236/204 197/235/203 229/269/233 230/270/234
f 194/238/206 193/237/205 225/271/235 226/272/236
f 206/240/208 205/239/207 237/273/237 238/274/238
f 202/234/202 201/233/201 233/275/239 234/276/240
f 223/241/209 222/226/194 254/262/226 255/277/241
f 219/242/210 218/228/196 250/264/228 251/278/242
f 215/243/211 214/230/198 246/266/230 247/279/243
f 211/244/212 210/232/200 242/268/232 243/280/244
f 203/246/214 202/234/202 234/276/240 235/281/245
f 199/247/215 198/236/204 230/270/234 231/282/246
f 195/248/216 194/238/206 226/272/236 227/283/247
f 207/245/213 206/240/208 238/274/238 239/284/248
f 224/249/217 223/241/209 255/277/241 256/285/249
f 220/250/218 219/242/210 251/278/242 252/286/250
f 216/251/219 215/243/211 247/279/243 248/287/251
f 212/252/220 211/244/212 243/280/244 244/288/252
f 208/253/221 207/245/213 239/284/248 240/289/253
f 204/254/222 203/246/214 235/281/245 236/290/254
f 200/255/223 199/247/215 231/282/246 232/291/255
f 196/256/224 195/248/216 227/283/247 228/292/256
f 193/237/205 224/257/217 256/293/249 225/271/235
f 221/225/193 220/250/218 252/286/250 253/261/225
f 217/258/195 216/251/219 248/287/251 249/294/227
f 213/229/197 212/252/220 244/288/252 245/265/229
f 209/295/199 208/253/221 240/289/253 241/296/231
f 205/239/207 204/254/222 236/290/254 237/273/237
f 201/260/201 200/255/223 232/291/255 233/297/239
f 197/235/203 196/256/224 228/292/256 229/269/233
f 254/262/226 253/261/225 285/298/257 286/299/258
f 250/264/228 249/263/227 281/300/259 282/301/260
f 246/266/230 245/265/229 277/302/261 278/303/262
f 242/268/232 241/267/231 273/304/263 274/305/264
f 226/272/236 225/271/235 257/306/265 258/307/266
f 238/274/238 237/273/237 269/308/267 270/309/268
f 234/276/240 233/275/239 265/310/269 266/311/270
f 230/270/234 229/269/233 261/312/271 262/313/272
f 255/277/241 254/262/226 286/299/258 287/314/273
f 251/278/242 250/264/228 282/301/260 283/315/274
f 247/279/243 246/266/230 278/303/262 279/316/275
f 243/280/244 242/268/232 274/305/264 275/317/276
f 231/282/246 230/270/234 262/313/272 263/318/277
f 227/283/247 226/272/236 258/307/266 259/319/278
f 239/284/248 238/274/238 270/309/268 271/320/279
f 235/281/245 234/276/240 266/311/270 267/321/280
f 256/285/249 255/277/241 287/314/273 288/322/281
f 252/286/250 251/278/242 283/315/274 284/323/282
f 248/287/251 247/279/243 279/316/275 280/324/283
f 244/288/252 243/280/244 275/317/276 276/325/284
f 236/290/254 235/281/245 267/321/280 268/326/285
f 232/291/255 231/282/246 263/318/277 264/327/286
f 228/292/256 227/283/247 259/319/278 260/328/287
f 240/289/253 239/284/248 271/320/279 272/329/288
f 225/271/235 256/293/249 288/330/281 257/306/265
f 253/261/225 252/286/250 284/323/282 285/298/257
f 249/263/227 248/331/251 280/332/283 281/300/259
f 245/265/229 244/288/252 276/325/284 277/302/261
f 241/296/231 240/289/253 272/329/288 273/333/263
f 237/273/237 236/290/254 268/326/285 269/308/267
f 233/275/239 232/334/255 264/335/286 265/310/269
f 229/269/233 228/292/256 260/328/287 261/312/271
