# Blender 5.0.1
# www.blender.org
mtllib mdlPuertaDerecha.mtl.mtl
o mdlPuertaDerecha
v 7.681722 5.858038 18.465826
v 7.681722 0.253994 18.465828
v 7.681722 5.858039 21.519779
v 7.681722 0.253994 21.519781
v 7.559279 5.858038 18.465826
v 7.559279 0.253994 18.465828
v 7.559279 5.858039 21.519779
v 7.559279 0.253994 21.519781
v 7.620501 0.253994 18.465828
v 7.620501 5.858039 21.519779
v 7.620501 0.253994 21.519781
v 7.620501 5.858038 18.465826
vn -0.0000 1.0000 -0.0000
vn -0.0000 -0.0000 1.0000
vn -1.0000 -0.0000 -0.0000
vn -0.0000 -1.0000 -0.0000
vn 1.0000 -0.0000 -0.0000
vn -0.0000 -0.0000 -1.0000
vt 0.719585 0.898983
vt 0.686774 0.898983
vt 0.686774 0.124534
vt 0.719585 0.124534
vt 0.004702 0.838950
vt 0.992131 0.838950
vt 0.992131 0.759214
vt 0.004702 0.759214
vt 0.003582 0.005788
vt 1.001459 0.005788
vt 1.001459 1.003665
vt 0.003582 1.003665
vt 0.653873 0.898983
vt 0.621063 0.898983
vt 0.621063 0.124534
vt 0.653873 0.124534
vt -0.005178 0.007486
vt 0.994679 0.007486
vt 0.994679 1.007343
vt -0.005178 1.007343
vt 0.001332 0.522023
vt 0.995502 0.536770
vt 0.995126 0.616836
vt 0.000956 0.602088
vt 0.001707 0.441957
vt 0.995877 0.456704
vt 0.686684 0.898983
vt 0.686684 0.124534
vt 0.004702 0.926093
vt 0.992131 0.926094
vt 0.752396 0.898983
vt 0.752396 0.124534
s 1
usemtl puerta
f 12/1/1 5/2/1 7/3/1 10/4/1
f 11/5/2 10/6/2 7/7/2 8/8/2
f 8/9/3 7/10/3 5/11/3 6/12/3
f 9/13/4 2/14/4 4/15/4 11/16/4
f 2/17/5 1/18/5 3/19/5 4/20/5
f 9/21/6 12/22/6 1/23/6 2/24/6
f 6/25/6 5/26/6 12/22/6 9/21/6
f 6/27/4 9/13/4 11/16/4 8/28/4
f 4/29/2 3/30/2 10/6/2 11/5/2
f 1/31/1 12/1/1 10/4/1 3/32/1
