# Blender 5.0.1
# www.blender.org
mtllib mdlSol.mtl
o mdlSol
v 7.245594 6.507238 -17.564999
v 7.245568 6.507361 -17.604580
v 7.123065 6.497923 -17.564947
v 7.123040 6.498047 -17.604528
v 7.002671 6.473326 -17.564945
v 7.002645 6.473449 -17.604527
v 6.886309 6.433833 -17.564993
v 6.886283 6.433957 -17.604572
v 6.775814 6.380067 -17.565088
v 6.775788 6.380190 -17.604668
v 6.672929 6.312877 -17.565231
v 6.672903 6.313001 -17.604811
v 6.579277 6.233321 -17.565418
v 6.579250 6.233445 -17.604998
v 6.496334 6.142656 -17.565647
v 6.496307 6.142780 -17.605228
v 6.425408 6.042309 -17.565916
v 6.425382 6.042433 -17.605495
v 6.367618 5.933865 -17.566217
v 6.367592 5.933989 -17.605797
v 6.323875 5.819034 -17.566547
v 6.323850 5.819158 -17.606127
v 6.294871 5.699625 -17.566902
v 6.294845 5.699749 -17.606482
v 6.281061 5.577522 -17.567274
v 6.281034 5.577646 -17.606853
v 6.282662 5.454652 -17.567659
v 6.282637 5.454776 -17.607239
v 6.299652 5.332951 -17.568052
v 6.299626 5.333075 -17.607632
v 6.331760 5.214339 -17.568443
v 6.331734 5.214463 -17.608023
v 6.378482 5.100687 -17.568830
v 6.378456 5.100811 -17.608410
v 6.439080 4.993787 -17.569204
v 6.439054 4.993911 -17.608784
v 6.512598 4.895324 -17.569561
v 6.512571 4.895448 -17.609140
v 6.597877 4.806853 -17.569893
v 6.597850 4.806976 -17.609472
v 6.693572 4.729766 -17.570198
v 6.693545 4.729890 -17.609777
v 6.798173 4.665282 -17.570467
v 6.798147 4.665406 -17.610048
v 6.910033 4.614416 -17.570700
v 6.910007 4.614540 -17.610279
v 7.027385 4.577971 -17.570890
v 7.027359 4.578095 -17.610472
v 7.148380 4.556521 -17.571037
v 7.148354 4.556645 -17.610617
v 7.271109 4.550405 -17.571138
v 7.271083 4.550529 -17.610718
v 7.393637 4.559720 -17.571188
v 7.393611 4.559844 -17.610769
v 7.514031 4.584317 -17.571192
v 7.514005 4.584441 -17.610771
v 7.630393 4.623810 -17.571144
v 7.630367 4.623934 -17.610723
v 7.740889 4.677576 -17.571049
v 7.740862 4.677700 -17.610628
v 7.843773 4.744766 -17.570906
v 7.843747 4.744890 -17.610485
v 7.937426 4.824322 -17.570719
v 7.937400 4.824446 -17.610298
v 8.020369 4.914987 -17.570488
v 8.020343 4.915110 -17.610069
v 8.091294 5.015333 -17.570221
v 8.091269 5.015457 -17.609802
v 8.149084 5.123777 -17.569920
v 8.149058 5.123901 -17.609501
v 8.192827 5.238609 -17.569590
v 8.192801 5.238733 -17.609169
v 8.221831 5.358018 -17.569235
v 8.221806 5.358142 -17.608814
v 8.235641 5.480121 -17.568863
v 8.235616 5.480245 -17.608442
v 8.234039 5.602991 -17.568478
v 8.234014 5.603115 -17.608057
v 8.217051 5.724692 -17.568085
v 8.217025 5.724816 -17.607664
v 8.184942 5.843304 -17.567694
v 8.184916 5.843428 -17.607273
v 8.138221 5.956955 -17.567307
v 8.138195 5.957079 -17.606886
v 8.077622 6.063856 -17.566933
v 8.077597 6.063980 -17.606512
v 8.004105 6.162319 -17.566576
v 8.004079 6.162443 -17.606155
v 7.918826 6.250790 -17.566244
v 7.918800 6.250914 -17.605824
v 7.823131 6.327877 -17.565939
v 7.823105 6.328000 -17.605520
v 7.718529 6.392361 -17.565670
v 7.718503 6.392485 -17.605249
v 7.606670 6.443227 -17.565437
v 7.606644 6.443351 -17.605017
v 7.489317 6.479671 -17.565245
v 7.489292 6.479795 -17.604826
v 7.368323 6.501122 -17.565100
v 7.368297 6.501245 -17.604679
v 7.123021 6.498136 -17.632763
v 7.245549 6.507450 -17.632814
v 7.002627 6.473537 -17.632761
v 6.886265 6.434045 -17.632807
v 6.775769 6.380279 -17.632904
v 6.672884 6.313089 -17.633045
v 6.579232 6.233533 -17.633234
v 6.496289 6.142869 -17.633463
v 6.425364 6.042521 -17.633730
v 6.367573 5.934077 -17.634031
v 6.323831 5.819246 -17.634361
v 6.294826 5.699837 -17.634716
v 6.281016 5.577734 -17.635090
v 6.282618 5.454864 -17.635475
v 6.299607 5.333163 -17.635866
v 6.331716 5.214551 -17.636259
v 6.378437 5.100899 -17.636644
v 6.439035 4.993999 -17.637018
v 6.512553 4.895536 -17.637375
v 6.597832 4.807065 -17.637709
v 6.693527 4.729979 -17.638012
v 6.798129 4.665494 -17.638283
v 6.909988 4.614628 -17.638515
v 7.027340 4.578183 -17.638706
v 7.148335 4.556733 -17.638853
v 7.271064 4.550617 -17.638952
v 7.393592 4.559932 -17.639004
v 7.513987 4.584529 -17.639006
v 7.630349 4.624022 -17.638958
v 7.740844 4.677788 -17.638863
v 7.843729 4.744978 -17.638720
v 7.937381 4.824534 -17.638533
v 8.020325 4.915198 -17.638304
v 8.091250 5.015545 -17.638037
v 8.149040 5.123990 -17.637735
v 8.192782 5.238822 -17.637405
v 8.221787 5.358230 -17.637051
v 8.235598 5.480333 -17.636677
v 8.233995 5.603203 -17.636292
v 8.217006 5.724904 -17.635900
v 8.184897 5.843516 -17.635508
v 8.138176 5.957168 -17.635122
v 8.077579 6.064068 -17.634747
v 8.004061 6.162531 -17.634392
v 7.918782 6.251002 -17.634058
v 7.823086 6.328089 -17.633755
v 7.718485 6.392573 -17.633484
v 7.606625 6.443439 -17.633251
v 7.489273 6.479884 -17.633060
v 7.368278 6.501334 -17.632914
vn -0.0758 0.9971 0.0032
vn -0.2002 0.9798 0.0032
vn -0.3214 0.9469 0.0032
vn -0.4375 0.8992 0.0031
vn -0.5468 0.8373 0.0030
vn -0.6474 0.7621 0.0028
vn -0.7378 0.6750 0.0026
vn -0.8166 0.5772 0.0023
vn -0.8825 0.4703 0.0021
vn -0.9345 0.3560 0.0017
vn -0.9717 0.2360 0.0014
vn -0.9937 0.1124 0.0010
vn -0.9999 -0.0130 0.0006
vn -0.9904 -0.1383 0.0002
vn -0.9653 -0.2613 -0.0002
vn -0.9249 -0.3802 -0.0006
vn -0.8699 -0.4931 -0.0010
vn -0.8700 -0.4931 -0.0010
vn -0.8013 -0.5983 -0.0013
vn -0.7200 -0.6940 -0.0017
vn -0.6273 -0.7788 -0.0020
vn -0.5248 -0.8512 -0.0023
vn -0.4139 -0.9103 -0.0026
vn -0.2966 -0.9550 -0.0028
vn -0.1746 -0.9846 -0.0030
vn -0.0498 -0.9988 -0.0031
vn 0.0758 -0.9971 -0.0032
vn 0.2002 -0.9798 -0.0032
vn 0.3214 -0.9469 -0.0032
vn 0.4375 -0.8992 -0.0031
vn 0.5468 -0.8373 -0.0030
vn 0.6474 -0.7621 -0.0028
vn 0.7378 -0.6750 -0.0026
vn 0.8166 -0.5772 -0.0023
vn 0.8825 -0.4703 -0.0021
vn 0.9345 -0.3560 -0.0017
vn 0.9717 -0.2360 -0.0014
vn 0.9937 -0.1124 -0.0010
vn 0.9999 0.0130 -0.0006
vn 0.9904 0.1383 -0.0002
vn 0.9653 0.2613 0.0002
vn 0.9249 0.3802 0.0006
vn 0.8699 0.4931 0.0010
vn 0.8700 0.4931 0.0010
vn 0.8013 0.5983 0.0013
vn 0.7200 0.6940 0.0017
vn 0.6273 0.7788 0.0020
vn 0.5248 0.8512 0.0023
vn 0.4139 0.9103 0.0026
vn 0.2966 0.9550 0.0028
vn 0.1746 0.9846 0.0030
vn 0.0498 0.9988 0.0031
vn 0.0007 -0.0031 1.0000
vn -0.0007 0.0031 -1.0000
vt 1.000000 0.500000
vt 1.000000 1.000000
vt 0.980000 1.000000
vt 0.980000 0.500000
vt 0.960000 1.000000
vt 0.960000 0.500000
vt 0.940000 1.000000
vt 0.940000 0.500000
vt 0.920000 1.000000
vt 0.920000 0.500000
vt 0.900000 1.000000
vt 0.900000 0.500000
vt 0.880000 1.000000
vt 0.880000 0.500000
vt 0.860000 1.000000
vt 0.860000 0.500000
vt 0.840000 1.000000
vt 0.840000 0.500000
vt 0.820000 1.000000
vt 0.820000 0.500000
vt 0.800000 1.000000
vt 0.800000 0.500000
vt 0.780000 1.000000
vt 0.780000 0.500000
vt 0.760000 1.000000
vt 0.760000 0.500000
vt 0.740000 1.000000
vt 0.740000 0.500000
vt 0.720000 1.000000
vt 0.720000 0.500000
vt 0.700000 1.000000
vt 0.700000 0.500000
vt 0.680000 1.000000
vt 0.680000 0.500000
vt 0.660000 1.000000
vt 0.660000 0.500000
vt 0.640000 1.000000
vt 0.640000 0.500000
vt 0.620000 1.000000
vt 0.620000 0.500000
vt 0.600000 1.000000
vt 0.600000 0.500000
vt 0.580000 1.000000
vt 0.580000 0.500000
vt 0.560000 1.000000
vt 0.560000 0.500000
vt 0.540000 1.000000
vt 0.540000 0.500000
vt 0.520000 1.000000
vt 0.520000 0.500000
vt 0.500000 1.000000
vt 0.500000 0.500000
vt 0.480000 1.000000
vt 0.480000 0.500000
vt 0.460000 1.000000
vt 0.460000 0.500000
vt 0.440000 1.000000
vt 0.440000 0.500000
vt 0.420000 1.000000
vt 0.420000 0.500000
vt 0.400000 1.000000
vt 0.400000 0.500000
vt 0.380000 1.000000
vt 0.380000 0.500000
vt 0.360000 1.000000
vt 0.360000 0.500000
vt 0.340000 1.000000
vt 0.340000 0.500000
vt 0.320000 1.000000
vt 0.320000 0.500000
vt 0.300000 1.000000
vt 0.300000 0.500000
vt 0.280000 1.000000
vt 0.280000 0.500000
vt 0.260000 1.000000
vt 0.260000 0.500000
vt 0.240000 1.000000
vt 0.240000 0.500000
vt 0.220000 1.000000
vt 0.220000 0.500000
vt 0.200000 1.000000
vt 0.200000 0.500000
vt 0.180000 1.000000
vt 0.180000 0.500000
vt 0.160000 1.000000
vt 0.160000 0.500000
vt 0.140000 1.000000
vt 0.140000 0.500000
vt 0.120000 1.000000
vt 0.120000 0.500000
vt 0.100000 1.000000
vt 0.100000 0.500000
vt 0.080000 1.000000
vt 0.080000 0.500000
vt 0.060000 1.000000
vt 0.060000 0.500000
vt 0.040000 1.000000
vt 0.040000 0.500000
vt 0.020000 1.000000
vt 0.020000 0.500000
vt 0.000000 1.000000
vt 0.000000 0.500000
vt 0.750000 0.490000
vt 0.780080 0.488108
vt 0.809686 0.482460
vt 0.838350 0.473146
vt 0.865621 0.460314
vt 0.891068 0.444164
vt 0.914291 0.424952
vt 0.934923 0.402982
vt 0.952639 0.378598
vt 0.967158 0.352187
vt 0.978254 0.324164
vt 0.985749 0.294972
vt 0.989526 0.265070
vt 0.989526 0.234930
vt 0.985749 0.205028
vt 0.978254 0.175836
vt 0.967158 0.147813
vt 0.952639 0.121402
vt 0.934923 0.097018
vt 0.914291 0.075048
vt 0.891068 0.055836
vt 0.865621 0.039686
vt 0.838350 0.026854
vt 0.809686 0.017540
vt 0.780080 0.011892
vt 0.750000 0.010000
vt 0.719920 0.011892
vt 0.690314 0.017540
vt 0.661650 0.026854
vt 0.634379 0.039686
vt 0.608932 0.055836
vt 0.585709 0.075048
vt 0.565077 0.097018
vt 0.547361 0.121402
vt 0.532842 0.147813
vt 0.521746 0.175836
vt 0.514251 0.205028
vt 0.510474 0.234930
vt 0.510474 0.265070
vt 0.514251 0.294972
vt 0.521746 0.324164
vt 0.532842 0.352187
vt 0.547361 0.378598
vt 0.565077 0.402982
vt 0.585709 0.424952
vt 0.608932 0.444164
vt 0.634379 0.460314
vt 0.661650 0.473146
vt 0.690314 0.482460
vt 0.719920 0.488108
vt 0.280080 0.488108
vt 0.250000 0.490000
vt 0.219920 0.488108
vt 0.190314 0.482460
vt 0.161650 0.473146
vt 0.134379 0.460314
vt 0.108932 0.444164
vt 0.085709 0.424952
vt 0.065077 0.402982
vt 0.047361 0.378598
vt 0.032842 0.352187
vt 0.021746 0.324164
vt 0.014251 0.294972
vt 0.010474 0.265070
vt 0.010474 0.234930
vt 0.014251 0.205028
vt 0.021746 0.175836
vt 0.032842 0.147813
vt 0.047361 0.121402
vt 0.065077 0.097018
vt 0.085709 0.075048
vt 0.108932 0.055836
vt 0.134379 0.039686
vt 0.161650 0.026854
vt 0.190314 0.017540
vt 0.219920 0.011892
vt 0.250000 0.010000
vt 0.280080 0.011892
vt 0.309686 0.017540
vt 0.338350 0.026854
vt 0.365621 0.039686
vt 0.391068 0.055836
vt 0.414291 0.075048
vt 0.434923 0.097018
vt 0.452639 0.121402
vt 0.467158 0.147813
vt 0.478254 0.175836
vt 0.485749 0.205028
vt 0.489526 0.234930
vt 0.489526 0.265070
vt 0.485749 0.294972
vt 0.478254 0.324164
vt 0.467158 0.352187
vt 0.452639 0.378598
vt 0.434923 0.402982
vt 0.414291 0.424952
vt 0.391068 0.444164
vt 0.365621 0.460314
vt 0.338350 0.473146
vt 0.309686 0.482460
s 1
usemtl Material.013
f 1/1/1 2/2/1 4/3/1 3/4/1
f 3/4/2 4/3/2 6/5/2 5/6/2
f 5/6/3 6/5/3 8/7/3 7/8/3
f 7/8/4 8/7/4 10/9/4 9/10/4
f 9/10/5 10/9/5 12/11/5 11/12/5
f 11/12/6 12/11/6 14/13/6 13/14/6
f 13/14/7 14/13/7 16/15/7 15/16/7
f 15/16/8 16/15/8 18/17/8 17/18/8
f 17/18/9 18/17/9 20/19/9 19/20/9
f 19/20/10 20/19/10 22/21/10 21/22/10
f 21/22/11 22/21/11 24/23/11 23/24/11
f 23/24/12 24/23/12 26/25/12 25/26/12
f 25/26/13 26/25/13 28/27/13 27/28/13
f 27/28/14 28/27/14 30/29/14 29/30/14
f 29/30/15 30/29/15 32/31/15 31/32/15
f 31/32/16 32/31/16 34/33/16 33/34/16
f 33/34/17 34/33/18 36/35/18 35/36/17
f 35/36/19 36/35/19 38/37/19 37/38/19
f 37/38/20 38/37/20 40/39/20 39/40/20
f 39/40/21 40/39/21 42/41/21 41/42/21
f 41/42/22 42/41/22 44/43/22 43/44/22
f 43/44/23 44/43/23 46/45/23 45/46/23
f 45/46/24 46/45/24 48/47/24 47/48/24
f 47/48/25 48/47/25 50/49/25 49/50/25
f 49/50/26 50/49/26 52/51/26 51/52/26
f 51/52/27 52/51/27 54/53/27 53/54/27
f 53/54/28 54/53/28 56/55/28 55/56/28
f 55/56/29 56/55/29 58/57/29 57/58/29
f 57/58/30 58/57/30 60/59/30 59/60/30
f 59/60/31 60/59/31 62/61/31 61/62/31
f 61/62/32 62/61/32 64/63/32 63/64/32
f 63/64/33 64/63/33 66/65/33 65/66/33
f 65/66/34 66/65/34 68/67/34 67/68/34
f 67/68/35 68/67/35 70/69/35 69/70/35
f 69/70/36 70/69/36 72/71/36 71/72/36
f 71/72/37 72/71/37 74/73/37 73/74/37
f 73/74/38 74/73/38 76/75/38 75/76/38
f 75/76/39 76/75/39 78/77/39 77/78/39
f 77/78/40 78/77/40 80/79/40 79/80/40
f 79/80/41 80/79/41 82/81/41 81/82/41
f 81/82/42 82/81/42 84/83/42 83/84/42
f 83/84/43 84/83/44 86/85/44 85/86/43
f 85/86/45 86/85/45 88/87/45 87/88/45
f 87/88/46 88/87/46 90/89/46 89/90/46
f 89/90/47 90/89/47 92/91/47 91/92/47
f 91/92/48 92/91/48 94/93/48 93/94/48
f 93/94/49 94/93/49 96/95/49 95/96/49
f 95/96/50 96/95/50 98/97/50 97/98/50
f 54/53/27 52/51/27 126/51/27 127/53/27
f 97/98/51 98/97/51 100/99/51 99/100/51
f 99/100/52 100/99/52 2/101/52 1/102/52
f 1/103/53 3/104/53 5/105/53 7/106/53 9/107/53 11/108/53 13/109/53 15/110/53 17/111/53 19/112/53 21/113/53 23/114/53 25/115/53 27/116/53 29/117/53 31/118/53 33/119/53 35/120/53 37/121/53 39/122/53 41/123/53 43/124/53 45/125/53 47/126/53 49/127/53 51/128/53 53/129/53 55/130/53 57/131/53 59/132/53 61/133/53 63/134/53 65/135/53 67/136/53 69/137/53 71/138/53 73/139/53 75/140/53 77/141/53 79/142/53 81/143/53 83/144/53 85/145/53 87/146/53 89/147/53 91/148/53 93/149/53 95/150/53 97/151/53 99/152/53
f 101/153/54 102/154/54 150/155/54 149/156/54 148/157/54 147/158/54 146/159/54 145/160/54 144/161/54 143/162/54 142/163/54 141/164/54 140/165/54 139/166/54 138/167/54 137/168/54 136/169/54 135/170/54 134/171/54 133/172/54 132/173/54 131/174/54 130/175/54 129/176/54 128/177/54 127/178/54 126/179/54 125/180/54 124/181/54 123/182/54 122/183/54 121/184/54 120/185/54 119/186/54 118/187/54 117/188/54 116/189/54 115/190/54 114/191/54 113/192/54 112/193/54 111/194/54 110/195/54 109/196/54 108/197/54 107/198/54 106/199/54 105/200/54 104/201/54 103/202/54
f 72/71/36 70/69/36 135/69/36 136/71/36
f 90/89/46 88/87/46 144/87/46 145/89/46
f 10/9/4 8/7/4 104/7/4 105/9/4
f 28/27/13 26/25/13 113/25/13 114/27/13
f 46/45/23 44/43/23 122/43/23 123/45/23
f 64/63/32 62/61/32 131/61/32 132/63/32
f 82/81/41 80/79/41 140/79/41 141/81/41
f 100/99/51 98/97/51 149/97/51 150/99/51
f 20/19/9 18/17/9 109/17/9 110/19/9
f 38/37/19 36/35/19 118/35/19 119/37/19
f 56/55/28 54/53/28 127/53/28 128/55/28
f 74/73/37 72/71/37 136/71/37 137/73/37
f 92/91/47 90/89/47 145/89/47 146/91/47
f 12/11/5 10/9/5 105/9/5 106/11/5
f 30/29/14 28/27/14 114/27/14 115/29/14
f 48/47/24 46/45/24 123/45/24 124/47/24
f 4/3/1 2/2/1 102/2/1 101/3/1
f 66/65/33 64/63/33 132/63/33 133/65/33
f 84/83/42 82/81/42 141/81/42 142/83/42
f 2/101/52 100/99/52 150/99/52 102/101/52
f 22/21/10 20/19/10 110/19/10 111/21/10
f 40/39/20 38/37/20 119/37/20 120/39/20
f 58/57/29 56/55/29 128/55/29 129/57/29
f 76/75/38 74/73/38 137/73/38 138/75/38
f 94/93/48 92/91/48 146/91/48 147/93/48
f 14/13/6 12/11/6 106/11/6 107/13/6
f 32/31/15 30/29/15 115/29/15 116/31/15
f 50/49/25 48/47/25 124/47/25 125/49/25
f 68/67/34 66/65/34 133/65/34 134/67/34
f 86/85/44 84/83/44 142/83/44 143/85/44
f 6/5/2 4/3/2 101/3/2 103/5/2
f 24/23/11 22/21/11 111/21/11 112/23/11
f 42/41/21 40/39/21 120/39/21 121/41/21
f 60/59/30 58/57/30 129/57/30 130/59/30
f 78/77/39 76/75/39 138/75/39 139/77/39
f 96/95/49 94/93/49 147/93/49 148/95/49
f 16/15/7 14/13/7 107/13/7 108/15/7
f 34/33/16 32/31/16 116/31/16 117/33/16
f 52/51/26 50/49/26 125/49/26 126/51/26
f 70/69/35 68/67/35 134/67/35 135/69/35
f 88/87/45 86/85/45 143/85/45 144/87/45
f 8/7/3 6/5/3 103/5/3 104/7/3
f 26/25/12 24/23/12 112/23/12 113/25/12
f 44/43/22 42/41/22 121/41/22 122/43/22
f 62/61/31 60/59/31 130/59/31 131/61/31
f 80/79/40 78/77/40 139/77/40 140/79/40
f 98/97/50 96/95/50 148/95/50 149/97/50
f 18/17/8 16/15/8 108/15/8 109/17/8
f 36/35/18 34/33/18 117/33/18 118/35/18
o mdlSolPicos
v 7.238487 7.051924 -17.571606
v 7.238451 7.052094 -17.626005
v 6.557538 4.758041 -17.578335
v 6.735258 4.760530 -17.632843
v 7.979015 4.776579 -17.579210
v 7.978979 4.776749 -17.633610
v 6.532598 6.868045 -17.571716
v 6.532563 6.868215 -17.626118
v 6.996289 4.520585 -17.579365
v 6.993986 4.694623 -17.633219
v 8.246152 5.197916 -17.578068
v 8.037760 5.195369 -17.632338
v 5.993148 6.377045 -17.572899
v 5.993112 6.377215 -17.627298
v 7.495137 4.514354 -17.579712
v 7.492160 4.740050 -17.633404
v 8.286755 5.695147 -17.576538
v 7.988279 5.691425 -17.630754
v 5.743847 5.691526 -17.574881
v 5.743812 5.691696 -17.629280
v 7.939682 4.740779 -17.579296
v 7.939647 4.740950 -17.633696
v 8.091089 6.186572 -17.574871
v 7.921495 6.152193 -17.629269
v 5.841868 4.968701 -17.577206
v 5.841833 4.968871 -17.631605
v 8.227975 5.147934 -17.578211
v 8.041029 5.145667 -17.632496
v 7.706262 6.388172 -17.573988
v 7.706636 6.356899 -17.628487
v 6.264733 4.374336 -17.579342
v 6.264697 4.374506 -17.633741
v 8.293901 5.642444 -17.576706
v 8.046564 5.639389 -17.630955
v 7.217476 6.487564 -17.573357
v 7.218829 6.381247 -17.628092
v 6.915465 4.044736 -17.580801
v 6.915430 4.044906 -17.635201
v 8.123891 5.992241 -17.575500
v 7.943828 6.108746 -17.629419
v 6.738249 6.352880 -17.573463
v 6.738799 6.308162 -17.628004
v 7.644831 4.055490 -17.581245
v 7.644795 4.055661 -17.635645
v 7.753725 6.362910 -17.574099
v 7.754496 6.301200 -17.628693
v 6.379305 5.951810 -17.574482
v 6.461956 6.131675 -17.628374
v 8.285563 4.404133 -17.580576
v 8.285527 4.404303 -17.634975
v 7.270501 6.500212 -17.573351
v 7.272683 6.330346 -17.628286
v 6.219893 5.611862 -17.575441
v 6.401659 5.614403 -17.629953
v 8.690722 5.010707 -17.578945
v 8.690687 5.010878 -17.633345
v 6.785375 6.346948 -17.573513
v 6.785601 6.327059 -17.627975
v 6.300369 5.119511 -17.577034
v 6.493260 5.122197 -17.631554
v 8.767392 5.736108 -17.576725
v 8.767357 5.736279 -17.631126
v 6.408660 6.010314 -17.574318
v 6.409441 5.947828 -17.628916
v 6.600540 4.721034 -17.578478
v 6.749629 4.723149 -17.632971
v 8.497991 6.413979 -17.574427
v 8.497955 6.414149 -17.628828
v 6.225483 5.664753 -17.575279
v 6.406205 5.667281 -17.629791
v 7.051566 4.507813 -17.579441
v 7.049374 4.673391 -17.633322
v 7.944299 6.888860 -17.572578
v 7.944263 6.889030 -17.626980
v 6.280726 5.168936 -17.576868
v 6.433619 5.171101 -17.631361
v 7.550014 4.528750 -17.579702
v 7.547548 4.715323 -17.633518
vn -0.5192 0.1366 -0.8437
vn 0.0130 -0.9999 -0.0031
vn -0.0007 0.0031 -1.0000
vn 0.9509 0.3095 0.0003
vn 0.0007 -0.0031 1.0000
vn -0.9386 -0.1911 -0.2873
vn 0.1827 -0.3539 -0.9173
vn 0.4188 0.4063 -0.8121
vn -0.4570 -0.3889 -0.7999
vn 0.2393 -0.1419 -0.9605
vn 0.2291 0.7217 -0.6532
vn -0.3973 -0.9177 -0.0026
vn 0.5430 -0.0227 -0.8394
vn -0.2066 0.9783 0.0145
vn 0.0769 -0.9906 -0.1131
vn 0.4737 0.1683 -0.8644
vn -0.5859 0.7787 -0.2242
vn 0.3481 -0.5220 -0.7787
vn 0.2622 0.3182 -0.9111
vn -0.8362 0.3881 -0.3876
vn 0.3954 -0.2180 -0.8923
vn 0.2029 0.9370 0.2843
vn -0.9967 -0.0772 0.0269
vn 0.9983 -0.0480 0.0339
vn -0.1581 0.7261 0.6692
vn -0.4698 -0.2866 -0.8349
vn 0.7362 0.3731 -0.5647
vn -0.2593 0.3127 -0.9138
vn -0.3903 -0.6347 -0.6670
vn 0.5649 0.8121 -0.1461
vn -0.4751 0.1544 -0.8663
vn -0.0477 -0.9927 -0.1105
vn 0.0886 0.8650 -0.4939
vn -0.6168 -0.1280 -0.7766
vn 0.3773 -0.7794 0.5002
vn -0.2882 0.8413 -0.4573
vn -0.3391 -0.2284 -0.9126
vn 0.5643 -0.4462 -0.6946
vn -0.5148 0.4771 -0.7123
vn -0.1767 -0.3801 -0.9079
vn 0.9390 -0.1629 -0.3028
vt 1.000000 0.500000
vt 1.000000 1.000000
vt 0.666667 1.000000
vt 0.666667 0.500000
vt 0.333333 1.000000
vt 0.333333 0.500000
vt 0.457846 0.130000
vt 0.250000 0.490000
vt 0.042154 0.130000
vt 0.000000 1.000000
vt 0.000000 0.500000
vt 0.750000 0.490000
vt 0.957846 0.130000
vt 0.542154 0.130000
s 1
usemtl Material.013
f 151/203/55 152/204/55 154/205/55 153/206/55
f 153/206/56 154/205/56 156/207/56 155/208/56
f 154/209/57 152/210/57 156/211/57
f 155/208/58 156/207/58 152/212/58 151/213/58
f 151/214/59 153/215/59 155/216/59
f 157/203/60 158/204/60 160/205/60 159/206/60
f 159/206/61 160/205/61 162/207/61 161/208/61
f 160/209/57 158/210/57 162/211/57
f 161/208/62 162/207/62 158/212/62 157/213/62
f 157/214/59 159/215/59 161/216/59
f 163/203/63 164/204/63 166/205/63 165/206/63
f 165/206/64 166/205/64 168/207/64 167/208/64
f 166/209/57 164/210/57 168/211/57
f 167/208/65 168/207/65 164/212/65 163/213/65
f 163/214/59 165/215/59 167/216/59
f 169/203/66 170/204/66 172/205/66 171/206/66
f 171/206/67 172/205/67 174/207/67 173/208/67
f 172/209/57 170/210/57 174/211/57
f 173/208/68 174/207/68 170/212/68 169/213/68
f 169/214/59 171/215/59 173/216/59
f 175/203/69 176/204/69 178/205/69 177/206/69
f 177/206/70 178/205/70 180/207/70 179/208/70
f 178/209/57 176/210/57 180/211/57
f 179/208/71 180/207/71 176/212/71 175/213/71
f 175/214/59 177/215/59 179/216/59
f 181/203/72 182/204/72 184/205/72 183/206/72
f 183/206/73 184/205/73 186/207/73 185/208/73
f 184/209/57 182/210/57 186/211/57
f 185/208/74 186/207/74 182/212/74 181/213/74
f 181/214/59 183/215/59 185/216/59
f 187/203/75 188/204/75 190/205/75 189/206/75
f 189/206/76 190/205/76 192/207/76 191/208/76
f 190/209/57 188/210/57 192/211/57
f 191/208/77 192/207/77 188/212/77 187/213/77
f 187/214/59 189/215/59 191/216/59
f 193/203/78 194/204/78 196/205/78 195/206/78
f 195/206/79 196/205/79 198/207/79 197/208/79
f 196/209/57 194/210/57 198/211/57
f 197/208/80 198/207/80 194/212/80 193/213/80
f 193/214/59 195/215/59 197/216/59
f 199/203/81 200/204/81 202/205/81 201/206/81
f 201/206/82 202/205/82 204/207/82 203/208/82
f 202/209/57 200/210/57 204/211/57
f 203/208/83 204/207/83 200/212/83 199/213/83
f 199/214/59 201/215/59 203/216/59
f 205/203/84 206/204/84 208/205/84 207/206/84
f 207/206/85 208/205/85 210/207/85 209/208/85
f 208/209/57 206/210/57 210/211/57
f 209/208/86 210/207/86 206/212/86 205/213/86
f 205/214/59 207/215/59 209/216/59
f 211/203/87 212/204/87 214/205/87 213/206/87
f 213/206/88 214/205/88 216/207/88 215/208/88
f 214/209/57 212/210/57 216/211/57
f 215/208/89 216/207/89 212/212/89 211/213/89
f 211/214/59 213/215/59 215/216/59
f 217/203/90 218/204/90 220/205/90 219/206/90
f 219/206/91 220/205/91 222/207/91 221/208/91
f 220/209/57 218/210/57 222/211/57
f 221/208/92 222/207/92 218/212/92 217/213/92
f 217/214/59 219/215/59 221/216/59
f 223/203/93 224/204/93 226/205/93 225/206/93
f 225/206/94 226/205/94 228/207/94 227/208/94
f 226/209/57 224/210/57 228/211/57
f 227/208/95 228/207/95 224/212/95 223/213/95
f 223/214/59 225/215/59 227/216/59
