# Blender 5.0.1
# www.blender.org
mtllib mdlTecho.mtl
o mdlMapaBajo.001
v -8.500000 7.840697 12.500000
v -8.500000 7.840697 -12.500000
v 16.500000 7.840697 12.500000
v 16.500000 7.840697 -12.500000
v -8.500000 7.840697 0.000000
v 16.500000 7.840697 0.000000
v 16.500000 7.840697 -6.250000
v -8.500000 7.840697 -6.250000
v 16.500000 7.840697 6.250000
v 10.250000 7.840697 12.500000
v 10.250000 7.840697 -12.500000
v -2.250000 7.840697 -12.500000
v -2.250000 7.840697 12.500000
v 16.500000 7.840697 3.125000
v -8.500000 7.840697 9.375000
v 16.500000 7.840697 9.375000
v -15.889905 7.840697 0.000000
v -15.889905 7.840697 3.125000
v -15.889905 7.840697 6.250000
v -15.889905 7.840697 9.375000
v -2.250000 7.840697 25.730976
v 4.000000 7.840697 25.730976
v 10.250000 7.840697 25.730976
v 0.875000 7.840697 25.730976
v 7.125000 7.840697 25.730976
v 7.125000 7.840697 -19.722843
v 4.000000 7.840697 -19.722843
v 10.250000 7.840697 -19.722843
v 0.875000 7.840697 -19.722843
v -2.250000 7.840697 -19.722843
v -8.500000 7.750150 12.500000
v -8.500000 7.750150 -12.500000
v 16.500000 7.750150 -12.500000
v 16.500000 7.750150 12.500000
v 16.500000 7.750150 0.000000
v -8.500000 7.750150 0.000000
v 16.500000 7.750150 -6.250000
v -8.500000 7.750150 -6.250000
v 16.500000 7.750150 6.249999
v 10.250000 7.750150 12.500000
v 10.250000 7.750150 -12.500000
v -2.250000 7.750150 -12.500000
v -2.250000 7.750150 12.500000
v 16.500000 7.750150 3.124999
v -8.500000 7.750150 9.375000
v 16.500000 7.750150 9.375000
v -15.889905 7.750150 0.000000
v -15.889905 7.750150 6.249999
v -15.889905 7.750150 3.124999
v -15.889905 7.750150 9.375000
v 4.000000 7.750150 25.730976
v 10.250000 7.750150 25.730976
v -2.250000 7.750150 25.730976
v 0.875000 7.750150 25.730976
v 7.125000 7.750150 25.730976
v 4.000000 7.750150 -19.722843
v 10.250000 7.750150 -19.722843
v -2.250000 7.750150 -19.722843
v 0.875000 7.750150 -19.722843
v 7.125000 7.750150 -19.722843
v 10.250000 7.840697 19.115486
v -2.250000 7.840697 19.115486
v -2.250000 7.750150 19.115486
v 10.250000 7.750150 19.115486
v 10.250000 7.840697 15.807743
v -2.250000 7.840697 15.807743
v -2.250000 7.750150 15.807743
v 10.250000 7.750150 15.807743
v 10.250000 7.840697 22.423233
v -2.250000 7.840697 22.423233
v -2.250000 7.750150 22.423233
v 10.250000 7.750150 22.423233
v -12.194952 7.840697 0.000000
v -12.194952 7.840697 9.375000
v -12.194952 7.750150 9.375000
v -12.194952 7.750150 0.000000
v -5.375000 7.840697 -12.500000
v -5.375000 7.840697 12.500000
v -5.375000 7.750150 -12.500000
v -5.375000 7.750150 12.500000
v 13.375000 7.840697 12.500000
v 13.375000 7.840697 -12.500000
v 13.375000 7.750150 12.500000
v 13.375000 7.750150 -12.500000
v -2.250000 7.840697 -16.111423
v 10.250000 7.840697 -16.111423
v 10.250000 7.750150 -16.111423
v -2.250000 7.750150 -16.111423
v -8.500000 7.840697 -3.125000
v 16.500000 7.840697 -3.125000
v -8.500000 7.750150 -3.125000
v 16.500000 7.750150 -3.125000
v 16.500000 7.840697 -9.375002
v -8.500000 7.840697 -9.375002
v 16.500000 7.750150 -9.375002
v -8.500000 7.750150 -9.375002
v -8.500000 7.840697 12.500000
v -8.500000 7.840697 -12.500000
v 16.500000 7.840697 12.500000
v 16.500000 7.840697 -12.500000
v -8.500000 7.840697 0.000000
v 16.500000 7.840697 0.000000
v 16.500000 7.840697 -6.250000
v -8.500000 7.840697 -6.250000
v -8.500000 7.840697 6.250000
v 16.500000 7.840697 6.250000
v 4.000000 7.840697 -12.500000
v 4.000000 7.840697 12.500000
v 4.000000 7.840697 0.000000
v 4.000000 7.840697 -6.250000
v 4.000000 7.840697 6.250000
v 10.250000 7.840697 12.500000
v 10.250000 7.840697 -12.500000
v 10.250000 7.840697 0.000000
v 10.250000 7.840697 -6.250000
v 10.250000 7.840697 6.250000
v -2.250000 7.840697 -12.500000
v -2.250000 7.840697 0.000000
v -2.250000 7.840697 -6.250000
v -2.250000 7.840697 6.250000
v -2.250000 7.840697 12.500000
v 16.500000 7.840697 3.125000
v -8.500000 7.840697 3.125000
v 4.000000 7.840697 3.125000
v 10.250000 7.840697 3.125000
v -2.250000 7.840697 3.125000
v -8.500000 7.840697 9.375000
v 16.500000 7.840697 9.375000
v 4.000000 7.840697 9.375000
v 10.250000 7.840697 9.375000
v -2.250000 7.840697 9.375000
v -15.889905 7.840697 0.000000
v -15.889905 7.840697 3.125000
v -15.889905 7.840697 6.250000
v -15.889905 7.840697 9.375000
v -2.250000 7.840697 25.730976
v 4.000000 7.840697 25.730976
v 10.250000 7.840697 25.730976
v 0.875000 7.840697 12.500000
v 0.875000 7.840697 -12.500000
v 0.875000 7.840697 0.000000
v 0.875000 7.840697 -6.250000
v 0.875000 7.840697 6.250000
v 0.875000 7.840697 3.125000
v 0.875000 7.840697 9.375000
v 0.875000 7.840697 25.730976
v 7.125000 7.840697 -12.500000
v 7.125000 7.840697 0.000000
v 7.125000 7.840697 -6.250000
v 7.125000 7.840697 6.250000
v 7.125000 7.840697 12.500000
v 7.125000 7.840697 3.125000
v 7.125000 7.840697 9.375000
v 7.125000 7.840697 25.730976
v 7.125000 7.840697 -19.722843
v 4.000000 7.840697 -19.722843
v 10.250000 7.840697 -19.722843
v 0.875000 7.840697 -19.722843
v -2.250000 7.840697 -19.722843
v 10.250000 7.840697 19.115486
v 4.000000 7.840697 19.115486
v -2.250000 7.840697 19.115486
v 0.875000 7.840697 19.115486
v 7.125000 7.840697 19.115486
v 4.000000 7.840697 15.807743
v 10.250000 7.840697 15.807743
v -2.250000 7.840697 15.807743
v 0.875000 7.840697 15.807743
v 7.125000 7.840697 15.807743
v 10.250000 7.840697 22.423233
v -2.250000 7.840697 22.423233
v 0.875000 7.840697 22.423233
v 7.125000 7.840697 22.423233
v 4.000000 7.840697 22.423233
v -12.194952 7.840697 0.000000
v -12.194952 7.840697 3.125000
v -12.194952 7.840697 9.375000
v -12.194952 7.840697 6.250000
v -5.375000 7.840697 -12.500000
v -5.375000 7.840697 0.000000
v -5.375000 7.840697 -6.250000
v -5.375000 7.840697 6.250000
v -5.375000 7.840697 12.500000
v -5.375000 7.840697 3.125000
v -5.375000 7.840697 9.375000
v 13.375000 7.840697 12.500000
v 13.375000 7.840697 -12.500000
v 13.375000 7.840697 0.000000
v 13.375000 7.840697 -6.250000
v 13.375000 7.840697 6.250000
v 13.375000 7.840697 3.125000
v 13.375000 7.840697 9.375000
v -2.250000 7.840697 -16.111423
v 0.875000 7.840697 -16.111423
v 4.000000 7.840697 -16.111423
v 7.125000 7.840697 -16.111423
v 10.250000 7.840697 -16.111423
v -8.500000 7.840697 -3.125000
v 16.500000 7.840697 -3.125000
v 4.000000 7.840697 -3.125000
v 10.250000 7.840697 -3.125000
v -2.250000 7.840697 -3.125000
v 0.875000 7.840697 -3.125000
v 7.125000 7.840697 -3.125000
v -5.375000 7.840697 -3.125000
v 13.375000 7.840697 -3.125000
v 16.500000 7.840697 -9.375002
v -8.500000 7.840697 -9.375002
v 4.000000 7.840697 -9.375002
v 10.250000 7.840697 -9.375002
v -2.250000 7.840697 -9.375002
v 0.875000 7.840697 -9.375002
v 7.125000 7.840697 -9.375002
v -5.375000 7.840697 -9.375002
v 13.375000 7.840697 -9.375002
vn -0.0000 -0.0000 -1.0000
vn -1.0000 -0.0000 -0.0000
vn 1.0000 -0.0000 -0.0000
vn -0.0000 -0.0000 1.0000
vn -0.0000 1.0000 -0.0000
vt -0.577819 0.829807
vt -0.577819 1.742572
vt -1.078189 1.742572
vt -1.078189 0.829807
vt -0.707414 0.822062
vt 0.243784 0.822062
vt 0.243784 1.239183
vt -0.707414 1.239183
vt 2.796369 -1.102477
vt 2.796369 -0.189712
vt 2.307310 -0.189712
vt 2.307310 -1.102477
vt 1.194983 -1.309636
vt 0.243784 -1.309636
vt 0.243784 -1.703712
vt 1.194983 -1.703712
vt 1.194983 -0.521483
vt 0.243784 -0.521483
vt 0.243784 -0.915559
vt 1.194983 -0.915559
vt 0.243784 -2.097789
vt 1.194983 -2.097789
vt 1.194983 1.054824
vt 0.243784 1.054824
vt 0.243784 0.660748
vt 1.194983 0.660748
vt 1.194983 0.266671
vt 0.243784 0.266671
vt 0.243784 -0.127406
vt 1.194983 -0.127406
vt 0.243784 -1.680667
vt -0.707414 -1.680667
vt -0.707414 -2.097789
vt 1.194983 -0.521482
vt 2.384493 1.635818
vt 2.384493 0.723053
vt 2.884863 0.723053
vt 2.884863 1.635818
vt 1.037748 1.635818
vt 1.037748 0.723053
vt 1.460935 0.723053
vt 1.460935 1.635818
vt 0.614560 1.635818
vt 0.614560 0.723053
vt 1.884123 0.723053
vt 1.884123 1.635818
vt -0.707414 -1.309636
vt -1.658613 -1.309636
vt -1.658613 -1.703712
vt -0.707414 -1.703712
vt -0.077449 1.742572
vt -0.077449 0.829807
vt 0.345739 0.829807
vt 0.345739 1.742572
vt -0.707414 -0.521483
vt -1.658613 -0.521483
vt -1.658613 -0.915559
vt -0.707414 -0.915559
vt 3.308051 1.635818
vt 3.308051 0.723053
vt 3.731238 0.723053
vt 3.731238 1.635818
vt 2.796369 0.723053
vt 2.796369 -0.189712
vt 3.285428 -0.189712
vt 3.285428 0.723053
vt -2.347752 2.548584
vt -2.347752 1.635818
vt -1.924565 1.635818
vt -1.924565 2.548584
vt -0.707414 2.237054
vt -1.658613 2.237054
vt -1.658613 1.842977
vt -0.707414 1.842977
vt -0.707414 0.660747
vt -1.658613 0.660747
vt -1.658613 0.266671
vt -0.707414 0.266671
vt -0.707414 -0.127406
vt -1.658613 -0.127406
vt -1.501377 2.548584
vt -1.501377 1.635818
vt -1.078190 1.635818
vt -1.078190 2.548584
vt -1.658613 -2.097789
vt 1.037748 2.548584
vt 1.460935 2.548584
vt -0.707414 1.448900
vt -1.658613 1.448900
vt -1.658613 1.054824
vt -0.707414 1.054824
vt 0.243784 -0.846424
vt -0.707414 -0.846425
vt -0.707414 -1.263546
vt 0.243784 -1.263546
vt -0.707414 -0.012181
vt 0.243784 -0.012181
vt 0.243784 0.404940
vt -0.707414 0.404940
vt -0.707414 -0.429303
vt 0.243784 -0.429303
vt -0.707414 -0.429303
vt 1.884122 1.635818
vt 1.884122 0.723053
vt 0.614560 2.548584
vt -2.770940 2.548584
vt -2.770940 1.635818
vt 2.307310 0.723053
vt 3.285427 -1.102477
vt 3.285427 -0.189712
vt -0.707414 2.631130
vt -1.658613 2.631130
vt -1.753825 -0.523264
vt -2.258350 -0.523264
vt -2.258350 -1.027789
vt -1.753825 -1.027789
vt -1.753825 1.494838
vt -2.258350 1.494838
vt -2.258350 0.990312
vt -1.753825 0.990312
vt -1.753825 2.503889
vt -2.258350 2.503889
vt -2.258350 1.999363
vt -1.753825 1.999363
vt -1.753825 0.485787
vt -2.258350 0.485787
vt -2.258350 -0.018739
vt -1.753825 -0.018739
vt 0.264277 0.485787
vt -0.240249 0.485787
vt -0.240249 -0.018739
vt 0.264277 -0.018739
vt 0.264277 2.503889
vt -0.240249 2.503889
vt -0.240249 1.999363
vt 0.264277 1.999363
vt 0.264277 1.494838
vt -0.240249 1.494838
vt -0.240249 0.990312
vt 0.264277 0.990312
vt 0.264277 -0.523264
vt -0.240249 -0.523264
vt -0.240249 -1.027789
vt 0.264277 -1.027789
vt -0.744774 -2.629877
vt -1.249299 -2.629877
vt -1.249299 -3.163906
vt -0.744774 -3.163906
vt 0.264277 3.591472
vt 0.768803 3.591472
vt 0.768803 4.174529
vt 0.264277 4.174529
vt -0.744774 0.485787
vt -1.249299 0.485787
vt -1.249299 -0.018739
vt -0.744774 -0.018739
vt -0.744774 2.503889
vt -1.249299 2.503889
vt -1.249299 1.999363
vt -0.744774 1.999363
vt -0.744774 1.494838
vt -1.249299 1.494838
vt -1.249299 0.990312
vt -0.744774 0.990312
vt -0.744774 -0.523264
vt -1.249299 -0.523264
vt -1.249299 -1.027789
vt -0.744774 -1.027789
vt 1.273328 -0.523264
vt 0.768803 -0.523264
vt 0.768803 -1.027789
vt 1.273328 -1.027789
vt 1.273328 1.494838
vt 0.768803 1.494838
vt 0.768803 0.990312
vt 1.273328 0.990312
vt 1.273328 2.503889
vt 0.768803 2.503889
vt 0.768803 1.999363
vt 1.273328 1.999363
vt 1.273328 0.485787
vt 0.768803 0.485787
vt 0.768803 -0.018739
vt 1.273328 -0.018739
vt 2.374396 0.990312
vt 2.374396 0.485787
vt 2.970939 0.485787
vt 2.970939 0.990312
vt 2.374396 -0.018739
vt 2.374396 -0.523264
vt 2.970939 -0.523264
vt 2.970939 -0.018739
vt 0.264277 -2.629877
vt -0.240249 -2.629877
vt -0.240249 -3.163906
vt 0.264277 -3.163906
vt 0.768803 -2.629877
vt 0.768803 -3.163906
vt -0.744774 3.591472
vt -0.240249 3.591472
vt -0.240249 4.174529
vt -0.744774 4.174529
vt -1.249299 3.591472
vt -1.249299 4.174529
vt -0.240249 -1.561819
vt -0.744774 -1.561819
vt -0.744774 -2.095848
vt -0.240249 -2.095848
vt 0.768803 -1.561819
vt 0.264277 -1.561819
vt 0.264277 -2.095848
vt 0.768803 -2.095848
vt -1.249299 -1.561819
vt -1.249299 -2.095848
vt 1.777853 0.485787
vt 1.777853 -0.018739
vt 1.777853 -0.523264
vt 1.777853 0.990312
vt 1.777853 2.503889
vt 1.777853 1.999363
vt 1.777853 1.494838
vt 1.777853 -1.027789
vt -0.240249 3.008414
vt 0.264277 3.008414
vt -1.249299 3.008414
vt -0.744774 3.008414
vt 0.768803 3.008414
vt -1.753825 3.008414
vt 1.777853 3.008414
vt 1.273328 3.008414
vt -2.258350 3.008414
s 1
usemtl Techo
f 76/1/1 47/4/1 17/3/1 73/2/1
f 71/5/2 53/8/2 21/7/2 70/6/2
f 87/9/3 57/12/3 28/11/3 86/10/3
f 27/13/1 26/16/1 60/15/1 56/14/1
f 30/17/1 29/20/1 59/19/1 58/18/1
f 26/16/1 28/22/1 57/21/1 60/15/1
f 29/20/1 27/13/1 56/14/1 59/19/1
f 23/23/4 25/26/4 55/25/4 52/24/4
f 22/27/4 24/30/4 54/29/4 51/28/4
f 69/31/3 23/21/3 52/33/3 72/32/3
f 24/30/4 21/34/4 53/18/4 54/29/4
f 25/26/4 22/27/4 51/28/4 55/25/4
f 74/35/4 20/38/4 50/37/4 75/36/4
f 19/39/2 18/42/2 49/41/2 48/40/2
f 20/43/2 19/39/2 48/40/2 50/44/2
f 18/42/2 17/46/2 47/45/2 49/41/2
f 9/47/3 16/50/3 46/49/3 39/48/3
f 1/51/2 15/54/2 45/53/2 31/52/2
f 6/55/3 14/58/3 44/57/3 35/56/3
f 77/59/1 12/62/1 42/61/1 79/60/1
f 85/63/2 30/66/2 58/65/2 88/64/2
f 81/67/4 10/70/4 40/69/4 83/68/4
f 14/58/3 9/47/3 39/48/3 44/57/3
f 89/71/2 8/74/2 38/73/2 91/72/2
f 93/75/3 7/78/3 37/77/3 95/76/3
f 90/79/3 6/55/3 35/56/3 92/80/3
f 78/81/4 1/84/4 31/83/4 80/82/4
f 16/50/3 3/33/3 34/85/3 46/49/3
f 82/86/1 4/87/1 33/42/1 84/39/1
f 94/88/2 2/91/2 32/90/2 96/89/2
f 65/92/3 61/95/3 64/94/3 68/93/3
f 67/96/2 63/99/2 62/98/2 66/97/2
f 43/100/2 67/96/2 66/97/2 13/101/2
f 10/101/3 65/92/3 68/93/3 40/102/3
f 61/95/3 69/31/3 72/32/3 64/94/3
f 63/99/2 71/5/2 70/6/2 62/98/2
f 15/103/4 74/35/4 75/36/4 45/104/4
f 36/52/1 76/1/1 73/2/1 5/51/1
f 13/70/4 78/81/4 80/82/4 43/69/4
f 2/38/1 77/59/1 79/60/1 32/37/1
f 11/105/1 82/86/1 84/39/1 41/43/1
f 3/106/4 81/67/4 83/68/4 34/107/4
f 12/108/2 85/63/2 88/64/2 42/11/2
f 41/109/3 87/9/3 86/10/3 11/110/3
f 7/78/3 90/79/3 92/80/3 37/77/3
f 5/111/2 89/71/2 91/72/2 36/112/2
f 8/74/2 94/88/2 96/89/2 38/73/2
f 4/91/3 93/75/3 95/76/3 33/90/3
f 192/113/5 186/116/5 99/115/5 128/114/5
f 206/117/5 188/120/5 102/119/5 199/118/5
f 215/121/5 189/124/5 103/123/5 207/122/5
f 191/125/5 190/128/5 106/127/5 122/126/5
f 144/129/5 143/132/5 111/131/5 124/130/5
f 212/133/5 142/136/5 110/135/5 209/134/5
f 203/137/5 141/140/5 109/139/5 200/138/5
f 145/141/5 139/144/5 108/143/5 129/142/5
f 173/145/5 154/148/5 138/147/5 170/146/5
f 194/149/5 158/152/5 159/151/5 193/150/5
f 152/153/5 150/156/5 116/155/5 125/154/5
f 213/157/5 149/160/5 115/159/5 210/158/5
f 204/161/5 148/164/5 114/163/5 201/162/5
f 153/165/5 151/168/5 112/167/5 130/166/5
f 185/169/5 183/172/5 121/171/5 131/170/5
f 205/173/5 180/176/5 118/175/5 202/174/5
f 214/177/5 181/180/5 119/179/5 211/178/5
f 184/181/5 182/184/5 120/183/5 126/182/5
f 180/176/5 184/181/5 126/182/5 118/175/5
f 148/164/5 152/153/5 125/154/5 114/163/5
f 141/140/5 144/129/5 124/130/5 109/139/5
f 188/120/5 191/125/5 122/126/5 102/119/5
f 175/185/5 132/188/5 133/187/5 176/186/5
f 182/184/5 185/169/5 131/170/5 120/183/5
f 150/156/5 153/165/5 130/166/5 116/155/5
f 143/132/5 145/141/5 129/142/5 111/131/5
f 190/128/5 192/113/5 128/114/5 106/127/5
f 178/189/5 134/192/5 135/191/5 177/190/5
f 176/186/5 133/187/5 134/192/5 178/189/5
f 172/193/5 146/196/5 137/195/5 174/194/5
f 171/197/5 136/198/5 146/196/5 172/193/5
f 120/183/5 131/170/5 145/141/5 143/132/5
f 118/175/5 126/182/5 144/129/5 141/140/5
f 131/170/5 121/171/5 139/144/5 145/141/5
f 202/174/5 118/175/5 141/140/5 203/137/5
f 211/178/5 119/179/5 142/136/5 212/133/5
f 126/182/5 120/183/5 143/132/5 144/129/5
f 111/131/5 129/142/5 153/165/5 150/156/5
f 109/139/5 124/130/5 152/153/5 148/164/5
f 129/142/5 108/143/5 151/168/5 153/165/5
f 200/138/5 109/139/5 148/164/5 204/161/5
f 209/134/5 110/135/5 149/160/5 213/157/5
f 124/130/5 111/131/5 150/156/5 152/153/5
f 174/194/5 137/195/5 154/148/5 173/145/5
f 196/199/5 155/202/5 156/201/5 195/200/5
f 197/203/5 157/204/5 155/202/5 196/199/5
f 195/200/5 156/201/5 158/152/5 194/149/5
f 165/205/5 161/208/5 164/207/5 169/206/5
f 167/209/5 162/212/5 163/211/5 168/210/5
f 168/210/5 163/211/5 161/208/5 165/205/5
f 169/206/5 164/207/5 160/214/5 166/213/5
f 151/168/5 169/206/5 166/213/5 112/167/5
f 139/144/5 168/210/5 165/205/5 108/143/5
f 121/171/5 167/209/5 168/210/5 139/144/5
f 108/143/5 165/205/5 169/206/5 151/168/5
f 161/208/5 174/194/5 173/145/5 164/207/5
f 162/212/5 171/197/5 172/193/5 163/211/5
f 163/211/5 172/193/5 174/194/5 161/208/5
f 164/207/5 173/145/5 170/146/5 160/214/5
f 123/215/5 176/186/5 178/189/5 105/216/5
f 105/216/5 178/189/5 177/190/5 127/217/5
f 101/218/5 175/185/5 176/186/5 123/215/5
f 105/216/5 127/217/5 185/169/5 182/184/5
f 101/218/5 123/215/5 184/181/5 180/176/5
f 123/215/5 105/216/5 182/184/5 184/181/5
f 208/219/5 104/220/5 181/180/5 214/177/5
f 198/221/5 101/218/5 180/176/5 205/173/5
f 127/217/5 97/222/5 183/172/5 185/169/5
f 116/155/5 130/166/5 192/113/5 190/128/5
f 114/163/5 125/154/5 191/125/5 188/120/5
f 125/154/5 116/155/5 190/128/5 191/125/5
f 210/158/5 115/159/5 189/124/5 215/121/5
f 201/162/5 114/163/5 188/120/5 206/117/5
f 130/166/5 112/167/5 186/116/5 192/113/5
f 107/223/5 195/200/5 194/149/5 140/224/5
f 113/225/5 197/203/5 196/199/5 147/226/5
f 147/226/5 196/199/5 195/200/5 107/223/5
f 140/224/5 194/149/5 193/150/5 117/227/5
f 115/159/5 201/162/5 206/117/5 189/124/5
f 104/220/5 198/221/5 205/173/5 181/180/5
f 110/135/5 200/138/5 204/161/5 149/160/5
f 119/179/5 202/174/5 203/137/5 142/136/5
f 181/180/5 205/173/5 202/174/5 119/179/5
f 149/160/5 204/161/5 201/162/5 115/159/5
f 142/136/5 203/137/5 200/138/5 110/135/5
f 189/124/5 206/117/5 199/118/5 103/123/5
f 113/225/5 210/158/5 215/121/5 187/228/5
f 98/229/5 208/219/5 214/177/5 179/230/5
f 107/223/5 209/134/5 213/157/5 147/226/5
f 117/227/5 211/178/5 212/133/5 140/224/5
f 179/230/5 214/177/5 211/178/5 117/227/5
f 147/226/5 213/157/5 210/158/5 113/225/5
f 140/224/5 212/133/5 209/134/5 107/223/5
f 187/228/5 215/121/5 207/122/5 100/231/5
