# Blender 5.0.1
# www.blender.org
mtllib mdlVaso.mtl
o mdlVasoBase
v 1.934682 2.318182 14.316300
v 1.934682 2.979432 14.256952
v 1.963062 2.318182 14.319096
v 1.974640 2.979432 14.260888
v 1.990352 2.318182 14.327374
v 2.013063 2.979432 14.272543
v 2.015502 2.318182 14.340817
v 2.048474 2.979432 14.291471
v 2.037547 2.318182 14.358909
v 2.079512 2.979432 14.316943
v 2.055639 2.318182 14.380953
v 2.104984 2.979432 14.347980
v 2.069082 2.318182 14.406103
v 2.123912 2.979432 14.383392
v 2.077360 2.318182 14.433393
v 2.135567 2.979432 14.421815
v 2.080155 2.318182 14.461774
v 2.139503 2.979432 14.461774
v 2.077360 2.318182 14.490154
v 2.135567 2.979432 14.501732
v 2.069082 2.318182 14.517445
v 2.123912 2.979432 14.540155
v 2.055639 2.318182 14.542595
v 2.104984 2.979432 14.575566
v 2.037547 2.318182 14.564639
v 2.079512 2.979432 14.606605
v 2.015502 2.318182 14.582731
v 2.048474 2.979432 14.632076
v 1.990352 2.318182 14.596174
v 2.013063 2.979432 14.651004
v 1.963062 2.318182 14.604452
v 1.974640 2.979432 14.662660
v 1.934682 2.318182 14.607247
v 1.934682 2.979432 14.666595
v 1.906301 2.318182 14.604452
v 1.894723 2.979432 14.662660
v 1.879011 2.318182 14.596174
v 1.856300 2.979432 14.651004
v 1.853861 2.318182 14.582731
v 1.820889 2.979432 14.632076
v 1.831816 2.318182 14.564639
v 1.789851 2.979432 14.606605
v 1.813725 2.318182 14.542595
v 1.764379 2.979432 14.575566
v 1.800281 2.318182 14.517445
v 1.745451 2.979432 14.540155
v 1.792003 2.318182 14.490154
v 1.733796 2.979432 14.501732
v 1.789208 2.318182 14.461774
v 1.729860 2.979432 14.461774
v 1.792003 2.318182 14.433393
v 1.733796 2.979432 14.421815
v 1.800281 2.318182 14.406103
v 1.745451 2.979432 14.383392
v 1.813725 2.318182 14.380953
v 1.764379 2.979432 14.347980
v 1.831816 2.318182 14.358909
v 1.789851 2.979432 14.316943
v 1.853861 2.318182 14.340817
v 1.820889 2.979432 14.291471
v 1.879011 2.318182 14.327374
v 1.856300 2.979432 14.272543
v 1.906301 2.318182 14.319096
v 1.894723 2.979432 14.260888
vn 0.0976 -0.0890 -0.9912
vn 0.2891 -0.0890 -0.9531
vn 0.4695 -0.0890 -0.8784
vn 0.6319 -0.0890 -0.7699
vn 0.7699 -0.0890 -0.6319
vn 0.8784 -0.0890 -0.4695
vn 0.9531 -0.0890 -0.2891
vn 0.9912 -0.0890 -0.0976
vn 0.9912 -0.0890 0.0976
vn 0.9531 -0.0890 0.2891
vn 0.8784 -0.0890 0.4695
vn 0.7699 -0.0890 0.6319
vn 0.6319 -0.0890 0.7699
vn 0.4695 -0.0890 0.8784
vn 0.2891 -0.0890 0.9531
vn 0.0976 -0.0890 0.9912
vn -0.0976 -0.0890 0.9912
vn -0.2891 -0.0890 0.9531
vn -0.4695 -0.0890 0.8784
vn -0.6319 -0.0890 0.7699
vn -0.7699 -0.0890 0.6319
vn -0.8784 -0.0890 0.4695
vn -0.9531 -0.0890 0.2891
vn -0.9912 -0.0890 0.0976
vn -0.9912 -0.0890 -0.0976
vn -0.9531 -0.0890 -0.2891
vn -0.8784 -0.0890 -0.4695
vn -0.7699 -0.0890 -0.6319
vn -0.6319 -0.0890 -0.7699
vn -0.4695 -0.0890 -0.8784
vn -0.0000 1.0000 -0.0000
vn -0.2891 -0.0890 -0.9531
vn -0.0976 -0.0890 -0.9912
vn -0.0000 -1.0000 -0.0000
vt 0.929719 0.499977
vt 0.929719 1.002251
vt 0.902861 1.002251
vt 0.902861 0.499977
vt 0.876004 1.002251
vt 0.876004 0.499977
vt 0.849147 1.002251
vt 0.849147 0.499977
vt 0.822289 1.002251
vt 0.822289 0.499977
vt 0.795432 1.002251
vt 0.795432 0.499977
vt 0.768574 1.002251
vt 0.768574 0.499977
vt 0.741717 1.002251
vt 0.741717 0.499977
vt 0.714859 1.002251
vt 0.714859 0.499977
vt 0.688002 1.002251
vt 0.688002 0.499977
vt 0.661144 1.002251
vt 0.661144 0.499977
vt 0.634287 1.002251
vt 0.634287 0.499977
vt 0.607430 1.002251
vt 0.607430 0.499977
vt 0.580572 1.002251
vt 0.580572 0.499977
vt 0.553715 1.002251
vt 0.553715 0.499977
vt 0.526857 1.002251
vt 0.526857 0.499977
vt 0.500000 1.002251
vt 0.500000 0.499977
vt 0.473142 1.002251
vt 0.473142 0.499977
vt 0.446285 1.002251
vt 0.446285 0.499977
vt 0.419428 1.002251
vt 0.419428 0.499977
vt 0.392570 1.002251
vt 0.392570 0.499977
vt 0.365713 1.002251
vt 0.365713 0.499977
vt 0.338855 1.002251
vt 0.338855 0.499977
vt 0.311998 1.002251
vt 0.311998 0.499977
vt 0.285140 1.002251
vt 0.285140 0.499977
vt 0.258283 1.002251
vt 0.258283 0.499977
vt 0.231426 1.002251
vt 0.231426 0.499977
vt 0.204568 1.002251
vt 0.204568 0.499977
vt 0.177711 1.002251
vt 0.177711 0.499977
vt 0.150853 1.002251
vt 0.150853 0.499977
vt 0.123996 1.002251
vt 0.123996 0.499977
vt 0.325381 0.485299
vt 0.285140 0.489932
vt 0.244900 0.485299
vt 0.206206 0.471580
vt 0.170546 0.449301
vt 0.139289 0.419318
vt 0.113637 0.382784
vt 0.094576 0.341102
vt 0.082839 0.295875
vt 0.078876 0.248841
vt 0.082839 0.201806
vt 0.094576 0.156579
vt 0.113637 0.114897
vt 0.139289 0.078363
vt 0.170546 0.048380
vt 0.206206 0.026101
vt 0.244900 0.012382
vt 0.285140 0.007749
vt 0.325381 0.012382
vt 0.364075 0.026101
vt 0.399735 0.048380
vt 0.430992 0.078363
vt 0.456644 0.114897
vt 0.475704 0.156579
vt 0.487442 0.201806
vt 0.491406 0.248841
vt 0.487442 0.295875
vt 0.475704 0.341102
vt 0.456644 0.382784
vt 0.430992 0.419318
vt 0.399735 0.449301
vt 0.364075 0.471580
vt 0.097138 1.002251
vt 0.097138 0.499977
vt 0.070281 1.002251
vt 0.070281 0.499977
vt 0.714859 0.489932
vt 0.755100 0.485299
vt 0.793794 0.471580
vt 0.829454 0.449301
vt 0.860711 0.419318
vt 0.886363 0.382784
vt 0.905423 0.341102
vt 0.917161 0.295875
vt 0.921124 0.248841
vt 0.917161 0.201806
vt 0.905423 0.156579
vt 0.886363 0.114897
vt 0.860711 0.078363
vt 0.829454 0.048380
vt 0.793794 0.026101
vt 0.755100 0.012382
vt 0.714859 0.007749
vt 0.674619 0.012382
vt 0.635925 0.026101
vt 0.600265 0.048380
vt 0.569008 0.078363
vt 0.543356 0.114897
vt 0.524295 0.156579
vt 0.512557 0.201806
vt 0.508594 0.248841
vt 0.512557 0.295875
vt 0.524295 0.341102
vt 0.543356 0.382784
vt 0.569008 0.419318
vt 0.600265 0.449301
vt 0.635925 0.471580
vt 0.674619 0.485299
s 1
usemtl V_RedWhite.001
f 1/1/1 2/2/1 4/3/1 3/4/1
f 3/4/2 4/3/2 6/5/2 5/6/2
f 5/6/3 6/5/3 8/7/3 7/8/3
f 7/8/4 8/7/4 10/9/4 9/10/4
f 9/10/5 10/9/5 12/11/5 11/12/5
f 11/12/6 12/11/6 14/13/6 13/14/6
f 13/14/7 14/13/7 16/15/7 15/16/7
f 15/16/8 16/15/8 18/17/8 17/18/8
f 17/18/9 18/17/9 20/19/9 19/20/9
f 19/20/10 20/19/10 22/21/10 21/22/10
f 21/22/11 22/21/11 24/23/11 23/24/11
f 23/24/12 24/23/12 26/25/12 25/26/12
f 25/26/13 26/25/13 28/27/13 27/28/13
f 27/28/14 28/27/14 30/29/14 29/30/14
f 29/30/15 30/29/15 32/31/15 31/32/15
f 31/32/16 32/31/16 34/33/16 33/34/16
f 33/34/17 34/33/17 36/35/17 35/36/17
f 35/36/18 36/35/18 38/37/18 37/38/18
f 37/38/19 38/37/19 40/39/19 39/40/19
f 39/40/20 40/39/20 42/41/20 41/42/20
f 41/42/21 42/41/21 44/43/21 43/44/21
f 43/44/22 44/43/22 46/45/22 45/46/22
f 45/46/23 46/45/23 48/47/23 47/48/23
f 47/48/24 48/47/24 50/49/24 49/50/24
f 49/50/25 50/49/25 52/51/25 51/52/25
f 51/52/26 52/51/26 54/53/26 53/54/26
f 53/54/27 54/53/27 56/55/27 55/56/27
f 55/56/28 56/55/28 58/57/28 57/58/28
f 57/58/29 58/57/29 60/59/29 59/60/29
f 59/60/30 60/59/30 62/61/30 61/62/30
f 4/63/31 2/64/31 64/65/31 62/66/31 60/67/31 58/68/31 56/69/31 54/70/31 52/71/31 50/72/31 48/73/31 46/74/31 44/75/31 42/76/31 40/77/31 38/78/31 36/79/31 34/80/31 32/81/31 30/82/31 28/83/31 26/84/31 24/85/31 22/86/31 20/87/31 18/88/31 16/89/31 14/90/31 12/91/31 10/92/31 8/93/31 6/94/31
f 61/62/32 62/61/32 64/95/32 63/96/32
f 63/96/33 64/95/33 2/97/33 1/98/33
f 1/99/34 3/100/34 5/101/34 7/102/34 9/103/34 11/104/34 13/105/34 15/106/34 17/107/34 19/108/34 21/109/34 23/110/34 25/111/34 27/112/34 29/113/34 31/114/34 33/115/34 35/116/34 37/117/34 39/118/34 41/119/34 43/120/34 45/121/34 47/122/34 49/123/34 51/124/34 53/125/34 55/126/34 57/127/34 59/128/34 61/129/34 63/130/34
o mdlVasoTapa
v 1.931837 2.963936 14.243563
v 1.974408 2.963936 14.247756
v 1.931837 3.007578 14.249717
v 1.889266 2.963936 14.247756
v 1.848332 2.963936 14.260174
v 1.890467 3.007578 14.253792
v 1.850687 3.007578 14.265859
v 1.893619 3.007578 14.269640
v 1.856870 3.007578 14.280787
v 1.931837 3.007578 14.265875
v 1.893619 3.019069 14.269639
v 1.893849 3.019506 14.270793
v 1.856870 3.019069 14.280787
v 1.931837 3.019069 14.265875
v 1.970055 3.019069 14.269639
v 1.931837 3.019506 14.267052
v 1.969825 3.019506 14.270794
v 1.931837 3.019826 14.270267
v 1.969198 3.019826 14.273947
v 1.931837 3.019943 14.274657
v 1.894476 3.019826 14.273946
v 1.858551 3.019826 14.284844
v 1.895333 3.019943 14.278253
v 1.860231 3.019943 14.288901
v 1.898801 3.019943 14.295689
v 1.899657 3.019826 14.299995
v 1.867034 3.019943 14.305325
v 1.931837 3.019943 14.292435
v 1.964874 3.019943 14.295688
v 1.931837 3.019826 14.296826
v 1.964017 3.019826 14.299995
v 1.931837 3.019506 14.300040
v 1.963390 3.019506 14.303148
v 1.931837 3.019069 14.301217
v 1.900285 3.019506 14.303148
v 1.869944 3.019506 14.312351
v 1.900514 3.019069 14.304302
v 1.870395 3.019069 14.313438
v 1.900514 3.007578 14.304302
v 1.870395 3.007578 14.313438
v 1.931837 3.007578 14.301217
v 1.914209 3.007578 14.373151
v 1.897258 3.007578 14.378293
v 1.931837 3.007578 14.371415
v 1.917208 3.022818 14.388229
v 1.903141 3.022818 14.392496
v 1.931837 3.022818 14.386788
v 1.946466 3.022818 14.388229
v 1.960533 3.022818 14.392496
v 1.949465 3.007578 14.373151
v 1.966416 3.007578 14.378293
v 1.963160 3.007578 14.304302
v 1.993279 3.007578 14.313438
v 1.963160 3.019069 14.304302
v 1.993279 3.019069 14.313438
v 1.993730 3.019506 14.312351
v 2.021038 3.019068 14.328276
v 2.021692 3.019506 14.327297
v 2.045368 3.019068 14.348243
v 2.021038 3.007578 14.328276
v 2.045368 3.007578 14.348243
v 1.982038 3.007578 14.386643
v 1.995731 3.007578 14.397881
v 1.973497 3.022818 14.399426
v 1.984860 3.022818 14.408751
v 1.994185 3.022818 14.420114
v 2.001115 3.022818 14.433078
v 2.006968 3.007578 14.411572
v 2.015318 3.007578 14.427195
v 2.065335 3.007578 14.372573
v 2.080172 3.007578 14.400331
v 2.065335 3.019067 14.372573
v 2.066315 3.019505 14.371919
v 2.080172 3.019067 14.400331
v 2.081262 3.019505 14.399879
v 2.089309 3.019065 14.430450
v 2.090467 3.019504 14.430221
v 2.092394 3.019064 14.461774
v 2.089309 3.007578 14.430450
v 2.092394 3.007578 14.461774
v 2.020460 3.007578 14.444145
v 2.022196 3.007578 14.461774
v 2.005382 3.022818 14.447145
v 2.006823 3.022818 14.461774
v 2.005382 3.022818 14.476402
v 2.001115 3.022818 14.490469
v 2.020460 3.007578 14.479402
v 2.015318 3.007578 14.496352
v 2.089309 3.007578 14.493096
v 2.080172 3.007578 14.523216
v 2.089309 3.019062 14.493096
v 2.090472 3.019503 14.493328
v 2.080172 3.019059 14.523216
v 2.081271 3.019501 14.523671
v 2.065335 3.019056 14.550974
v 2.066328 3.019500 14.551638
v 2.045368 3.019051 14.575304
v 2.065335 3.007578 14.550974
v 2.045368 3.007578 14.575304
v 2.006968 3.007578 14.511974
v 1.995731 3.007578 14.525667
v 1.994185 3.022818 14.503433
v 1.984860 3.022818 14.514796
v 1.973497 3.022818 14.524122
v 1.960533 3.022818 14.531052
v 1.982038 3.007578 14.536904
v 1.966416 3.007578 14.545255
v 2.021038 3.007578 14.595271
v 1.993279 3.007578 14.610108
v 2.021038 3.019045 14.595271
v 2.021709 3.019494 14.596276
v 1.993279 3.019036 14.610108
v 1.993674 3.019490 14.611274
v 1.993279 3.019027 14.610108
v 1.993829 3.019485 14.611222
v 1.963160 3.019022 14.619246
v 1.993279 3.007578 14.610108
v 1.963160 3.007578 14.619246
v 1.963160 3.007578 14.619246
v 1.931837 3.007578 14.622330
v 1.963160 3.007578 14.619246
v 1.963160 3.019015 14.619246
v 1.949465 3.007578 14.550396
v 1.931837 3.007578 14.552133
v 1.946466 3.022818 14.535318
v 1.931837 3.022818 14.536759
v 1.917208 3.022818 14.535318
v 1.903141 3.022818 14.531052
v 1.914209 3.007578 14.550396
v 1.897258 3.007578 14.545255
v 1.900514 3.007578 14.619246
v 1.870395 3.007578 14.610108
v 1.900514 3.007578 14.619246
v 1.900514 3.019036 14.619246
v 1.900354 3.019490 14.620465
v 1.870395 3.019045 14.610108
v 1.900514 3.019027 14.619246
v 1.900192 3.019485 14.620444
v 1.931837 3.019022 14.622330
v 1.931920 3.019483 14.623577
v 1.931837 3.019015 14.622330
v 1.931837 3.007578 14.622330
v 1.931837 3.019479 14.623577
v 1.931837 3.019015 14.622330
v 1.931754 3.019479 14.623586
v 1.963160 3.019015 14.619246
v 1.931837 3.007578 14.622330
v 1.963487 3.019479 14.620461
v 1.964152 3.019819 14.623802
v 1.963403 3.019479 14.620468
v 1.964068 3.019819 14.623810
v 1.963322 3.019483 14.620483
v 1.963982 3.019820 14.623802
v 1.964963 3.019943 14.628311
v 1.995117 3.019820 14.614329
v 1.996796 3.019943 14.618597
v 1.994949 3.019822 14.614352
v 1.996763 3.019943 14.618518
v 2.023543 3.019823 14.599022
v 2.026049 3.019943 14.602772
v 2.048535 3.019824 14.578472
v 2.051703 3.019943 14.581639
v 2.069041 3.019824 14.553450
v 2.046216 3.019497 14.576153
v 2.072746 3.019943 14.555926
v 2.084273 3.019825 14.524915
v 2.088375 3.019943 14.526613
v 2.093650 3.019825 14.493960
v 2.097991 3.019943 14.494823
v 2.096810 3.019825 14.461774
v 2.101226 3.019943 14.461774
v 2.093633 3.019825 14.429590
v 2.093577 3.019504 14.461774
v 2.097957 3.019943 14.428730
v 2.084240 3.019826 14.398646
v 2.088308 3.019943 14.396961
v 2.068993 3.019826 14.370130
v 2.072650 3.019943 14.367685
v 2.048476 3.019826 14.345135
v 2.051585 3.019943 14.342026
v 2.023479 3.019826 14.324622
v 2.046201 3.019506 14.347410
v 2.025920 3.019943 14.320969
v 1.994960 3.019826 14.309381
v 1.996641 3.019943 14.305323
v 2.003442 3.019943 14.288903
v 2.005123 3.019826 14.284845
v 1.968342 3.019943 14.278254
v 2.035790 3.019943 14.306197
v 2.038231 3.019826 14.302544
v 2.064141 3.019943 14.329470
v 2.067250 3.019826 14.326361
v 2.087405 3.019943 14.357826
v 2.091063 3.019826 14.355382
v 2.104687 3.019943 14.390177
v 2.108756 3.019826 14.388492
v 2.115323 3.019943 14.425276
v 2.119647 3.019825 14.424416
v 2.118903 3.019943 14.461774
v 2.123319 3.019825 14.461774
v 2.115289 3.019943 14.498264
v 2.119630 3.019825 14.499128
v 2.104621 3.019943 14.533343
v 2.108722 3.019825 14.535042
v 2.087310 3.019943 14.565657
v 2.091015 3.019824 14.568133
v 2.064023 3.019943 14.593959
v 2.067190 3.019824 14.597127
v 2.035661 3.019943 14.617156
v 2.038167 3.019823 14.620907
v 2.003321 3.019943 14.634351
v 2.005135 3.019822 14.638516
v 2.003288 3.019943 14.634271
v 2.004967 3.019820 14.638539
v 1.968252 3.019943 14.644842
v 1.969233 3.019820 14.649351
v 1.968239 3.019943 14.644779
v 1.969147 3.019819 14.649343
v 1.968239 3.019943 14.644777
v 1.964976 3.019943 14.628373
v 1.964976 3.019943 14.628376
v 1.931837 3.019943 14.631639
v 1.931754 3.019819 14.626993
v 1.931837 3.019943 14.631638
v 1.931837 3.019943 14.648362
v 1.931920 3.019819 14.653008
v 1.931837 3.019943 14.648365
v 1.931837 3.019819 14.653018
v 1.931837 3.019943 14.648429
v 1.931754 3.019820 14.653042
v 1.895412 3.019943 14.644896
v 1.931837 3.019943 14.631574
v 1.898722 3.019943 14.628257
v 1.931920 3.019820 14.626960
v 1.899536 3.019820 14.623743
v 1.931837 3.019819 14.626984
v 1.899704 3.019822 14.623733
v 1.898738 3.019943 14.628173
v 1.868669 3.019823 14.614276
v 1.866943 3.019943 14.618443
v 1.869932 3.019494 14.611225
v 1.840148 3.019824 14.598996
v 1.837659 3.019943 14.602721
v 1.841970 3.019497 14.596270
v 1.815155 3.019824 14.578456
v 1.812004 3.019943 14.581607
v 1.817462 3.019500 14.576149
v 1.794648 3.019825 14.553440
v 1.790957 3.019943 14.555906
v 1.797350 3.019501 14.551635
v 1.779413 3.019825 14.524910
v 1.775324 3.019943 14.526604
v 1.782407 3.019503 14.523670
v 1.770034 3.019825 14.493958
v 1.765703 3.019943 14.494820
v 1.773205 3.019504 14.493327
v 1.766872 3.019825 14.461774
v 1.762463 3.019943 14.461774
v 1.770099 3.019504 14.461774
v 1.770047 3.019826 14.429591
v 1.765728 3.019943 14.428733
v 1.773208 3.019505 14.430221
v 1.779438 3.019826 14.398648
v 1.775374 3.019943 14.396964
v 1.782413 3.019505 14.399880
v 1.794684 3.019826 14.370131
v 1.791029 3.019943 14.367688
v 1.797360 3.019506 14.371919
v 1.815200 3.019826 14.345136
v 1.812093 3.019943 14.342030
v 1.817474 3.019506 14.347410
v 1.840196 3.019826 14.324624
v 1.837756 3.019943 14.320971
v 1.841983 3.019506 14.327297
v 1.868714 3.019826 14.309381
v 1.842637 3.019069 14.328276
v 1.818306 3.019068 14.348243
v 1.842637 3.007578 14.328276
v 1.818306 3.007578 14.348243
v 1.881637 3.007578 14.386643
v 1.867944 3.007578 14.397881
v 1.890177 3.022818 14.399426
v 1.878814 3.022818 14.408751
v 1.869489 3.022818 14.420114
v 1.862560 3.022818 14.433078
v 1.856707 3.007578 14.411573
v 1.848356 3.007578 14.427195
v 1.798339 3.007578 14.372573
v 1.783502 3.007578 14.400331
v 1.798339 3.019068 14.372573
v 1.783502 3.019068 14.400331
v 1.774366 3.019067 14.430450
v 1.771281 3.019065 14.461774
v 1.774366 3.007578 14.430450
v 1.771281 3.007578 14.461774
v 1.843215 3.007578 14.444145
v 1.841478 3.007578 14.461774
v 1.858292 3.022818 14.447145
v 1.856852 3.022818 14.461774
v 1.858292 3.022818 14.476402
v 1.862560 3.022818 14.490469
v 1.843215 3.007578 14.479402
v 1.848356 3.007578 14.496352
v 1.774366 3.007578 14.493096
v 1.783502 3.007578 14.523216
v 1.774366 3.019064 14.493096
v 1.783502 3.019062 14.523216
v 1.798339 3.019059 14.550974
v 1.818306 3.019056 14.575304
v 1.798339 3.007578 14.550974
v 1.818306 3.007578 14.575304
v 1.856707 3.007578 14.511974
v 1.867944 3.007578 14.525667
v 1.869489 3.022818 14.503433
v 1.878814 3.022818 14.514796
v 1.890177 3.022818 14.524122
v 1.881636 3.007578 14.536904
v 1.842637 3.007578 14.595271
v 1.842637 3.019051 14.595271
v 1.827882 3.019943 14.306194
v 1.825442 3.019826 14.302543
v 1.799530 3.019943 14.329467
v 1.796423 3.019826 14.326360
v 1.776264 3.019943 14.357823
v 1.772609 3.019826 14.355381
v 1.758979 3.019943 14.390174
v 1.754915 3.019826 14.388490
v 1.748340 3.019943 14.425274
v 1.744022 3.019826 14.424415
v 1.744756 3.019943 14.461774
v 1.740348 3.019825 14.461774
v 1.748366 3.019943 14.498268
v 1.744034 3.019825 14.499130
v 1.759029 3.019943 14.533353
v 1.754940 3.019825 14.535047
v 1.776336 3.019943 14.565677
v 1.772645 3.019825 14.568143
v 1.799619 3.019943 14.593992
v 1.796467 3.019824 14.597143
v 1.827980 3.019943 14.617208
v 1.825491 3.019824 14.620933
v 1.860322 3.019943 14.634426
v 1.858596 3.019823 14.638593
v 1.895395 3.019943 14.644980
v 1.894429 3.019822 14.649421
v 1.893779 3.019490 14.652688
v 1.894598 3.019820 14.649410
v 1.893942 3.019485 14.652708
v 1.893619 3.019027 14.653908
v 1.931754 3.019483 14.656425
v 1.931837 3.019022 14.657672
v 1.931837 3.019479 14.656425
v 1.931920 3.019479 14.656417
v 1.931837 3.019015 14.657672
v 1.931837 3.019015 14.657672
v 1.931837 3.007578 14.657672
v 1.970055 3.007578 14.653908
v 1.893619 3.007578 14.653908
v 1.931837 3.007578 14.673830
v 1.931837 3.007578 14.657672
v 1.931837 3.007578 14.657672
v 1.893619 3.007578 14.653908
v 1.970055 3.007578 14.653908
v 1.970055 3.019015 14.653908
v 1.969728 3.019479 14.652693
v 1.970055 3.019015 14.653908
v 1.969812 3.019479 14.652685
v 1.970055 3.019022 14.653908
v 1.969893 3.019483 14.652669
v 2.006804 3.019027 14.642760
v 1.970055 3.007578 14.653908
v 2.006804 3.007578 14.642760
v 2.006804 3.007578 14.642760
v 2.040672 3.007578 14.624657
v 2.012988 3.007578 14.657688
v 2.006804 3.019036 14.642760
v 2.006410 3.019490 14.641595
v 2.040672 3.019045 14.624657
v 2.040001 3.019494 14.623652
v 2.070358 3.019051 14.600295
v 2.069509 3.019497 14.599446
v 2.094721 3.019056 14.570609
v 2.070358 3.007578 14.600295
v 2.094721 3.007578 14.570609
v 2.081784 3.007578 14.611720
v 2.108156 3.007578 14.579586
v 2.086135 2.963936 14.616072
v 2.049649 3.007578 14.638092
v 2.053068 2.963936 14.643209
v 2.015343 2.963936 14.663374
v 1.974408 2.963936 14.675792
v 1.973207 3.007578 14.669756
v 1.931837 2.963936 14.679984
v 1.889266 2.963936 14.675792
v 1.890467 3.007578 14.669756
v 1.848332 2.963936 14.663374
v 1.850687 3.007578 14.657688
v 1.810606 2.963936 14.643209
v 1.814025 3.007578 14.638092
v 1.777539 2.963936 14.616072
v 1.781890 3.007578 14.611720
v 1.750402 2.963936 14.583005
v 1.755518 3.007578 14.579586
v 1.730237 2.963936 14.545280
v 1.735922 3.007578 14.542924
v 1.717819 2.963936 14.504344
v 1.723855 3.007578 14.503144
v 1.713627 2.963936 14.461774
v 1.719780 3.007578 14.461774
v 1.717819 2.963936 14.419203
v 1.723855 3.007578 14.420403
v 1.730237 2.963936 14.378268
v 1.735922 3.007578 14.380623
v 1.750402 2.963936 14.340543
v 1.755518 3.007578 14.343961
v 1.777539 2.963936 14.307475
v 1.781890 3.007578 14.311827
v 1.810606 2.963936 14.280338
v 1.814025 3.007578 14.285455
v 1.823002 3.007578 14.298890
v 1.793316 3.007578 14.323253
v 1.823002 3.019069 14.298890
v 1.823656 3.019506 14.299869
v 1.793316 3.019068 14.323253
v 1.794149 3.019506 14.324085
v 1.768954 3.019068 14.352939
v 1.769933 3.019506 14.353593
v 1.750851 3.019067 14.386806
v 1.768954 3.007578 14.352939
v 1.750851 3.007578 14.386806
v 1.739703 3.007578 14.423555
v 1.735939 3.007578 14.461774
v 1.739703 3.019067 14.423555
v 1.740860 3.019505 14.423786
v 1.735939 3.019065 14.461774
v 1.737120 3.019504 14.461774
v 1.739703 3.019064 14.499991
v 1.740864 3.019504 14.499761
v 1.750851 3.019062 14.536740
v 1.739703 3.007578 14.499991
v 1.750851 3.007578 14.536740
v 1.768954 3.007578 14.570609
v 1.793316 3.007578 14.600295
v 1.768954 3.019059 14.570609
v 1.769943 3.019501 14.569948
v 1.793316 3.019056 14.600295
v 1.794160 3.019500 14.599450
v 1.823002 3.019051 14.624657
v 1.823669 3.019497 14.623659
v 1.856870 3.019045 14.642760
v 1.823002 3.007578 14.624657
v 1.856870 3.007578 14.642760
v 1.857333 3.019494 14.641644
v 1.893619 3.019036 14.653908
v 1.751946 3.019503 14.536286
v 1.751940 3.019505 14.387258
v 1.857320 3.019506 14.281875
v 2.113272 2.963936 14.583005
v 2.133437 2.963936 14.545280
v 2.145855 2.963936 14.504344
v 2.127752 3.007578 14.542924
v 2.139819 3.007578 14.503144
v 2.112823 3.007578 14.536740
v 2.123971 3.007578 14.499991
v 2.112823 3.019059 14.536740
v 2.111725 3.019501 14.536285
v 2.123971 3.019062 14.499991
v 2.122808 3.019503 14.499760
v 2.127735 3.019064 14.461774
v 2.126552 3.019504 14.461774
v 2.123971 3.019065 14.423555
v 2.127735 3.007578 14.461774
v 2.123971 3.007578 14.423555
v 2.143894 3.007578 14.461774
v 2.139819 3.007578 14.420403
v 2.150048 2.963936 14.461774
v 2.145855 2.963936 14.419203
v 2.133437 2.963936 14.378268
v 2.113272 2.963936 14.340543
v 2.127752 3.007578 14.380623
v 2.108156 3.007578 14.343961
v 2.112823 3.007578 14.386806
v 2.094721 3.007578 14.352939
v 2.112823 3.019067 14.386806
v 2.111733 3.019505 14.387259
v 2.094721 3.019067 14.352939
v 2.093740 3.019505 14.353593
v 2.070358 3.019068 14.323253
v 2.069525 3.019506 14.324085
v 2.040672 3.019068 14.298890
v 2.070358 3.007578 14.323253
v 2.040672 3.007578 14.298890
v 2.081784 3.007578 14.311827
v 2.049649 3.007578 14.285455
v 2.086135 2.963936 14.307475
v 2.053068 2.963936 14.280338
v 2.015343 2.963936 14.260174
v 2.012988 3.007578 14.265859
v 1.973207 3.007578 14.253792
v 2.006804 3.007578 14.280787
v 1.970055 3.007578 14.269640
v 2.006804 3.019069 14.280787
v 2.006354 3.019506 14.281875
v 2.040018 3.019506 14.299870
v 2.122813 3.019504 14.423786
v 2.093728 3.019500 14.569945
v 2.006254 3.019485 14.641646
v 1.969064 3.019819 14.649350
v 1.953677 2.883950 14.447227
v 1.956472 2.884443 14.447506
v 1.877893 3.313740 14.447227
v 1.950882 2.883457 14.447506
v 1.948194 2.882983 14.448334
v 1.875098 3.313248 14.447506
v 1.872410 3.312774 14.448334
v 1.869934 3.312337 14.449677
v 1.867763 3.311954 14.451487
v 1.945717 2.882546 14.449678
v 1.943546 2.882164 14.451488
v 1.941765 2.881849 14.453691
v 1.940441 2.881616 14.456206
v 1.865981 3.311640 14.453691
v 1.864657 3.311407 14.456206
v 1.863842 3.311263 14.458936
v 1.863567 3.311214 14.461774
v 1.939626 2.881472 14.458936
v 1.939350 2.881423 14.461774
v 1.939626 2.881472 14.464612
v 1.940441 2.881616 14.467340
v 1.863842 3.311263 14.464612
v 1.864657 3.311407 14.467340
v 1.865981 3.311640 14.469855
v 1.867763 3.311954 14.472060
v 1.941765 2.881849 14.469855
v 1.943546 2.882164 14.472060
v 1.945717 2.882546 14.473869
v 1.948194 2.882983 14.475214
v 1.869934 3.312337 14.473869
v 1.872410 3.312774 14.475213
v 1.875098 3.313248 14.476042
v 1.877893 3.313740 14.476321
v 1.950882 2.883457 14.476042
v 1.953677 2.883950 14.476321
v 1.956472 2.884443 14.476042
v 1.959159 2.884916 14.475214
v 1.880688 3.314233 14.476042
v 1.883375 3.314707 14.475213
v 1.885852 3.315144 14.473869
v 1.888023 3.315527 14.472060
v 1.961636 2.885353 14.473869
v 1.963807 2.885736 14.472060
v 1.965589 2.886050 14.469855
v 1.966913 2.886283 14.467340
v 1.889805 3.315841 14.469855
v 1.891129 3.316074 14.467340
v 1.891944 3.316218 14.464612
v 1.892219 3.316267 14.461774
v 1.967728 2.886427 14.464612
v 1.968003 2.886476 14.461774
v 1.967728 2.886427 14.458936
v 1.966913 2.886283 14.456206
v 1.891944 3.316218 14.458936
v 1.891129 3.316074 14.456206
v 1.889805 3.315841 14.453691
v 1.888023 3.315527 14.451487
v 1.965589 2.886050 14.453691
v 1.963807 2.885736 14.451488
v 1.961636 2.885353 14.449678
v 1.959159 2.884916 14.448334
v 1.885852 3.315144 14.449677
v 1.883375 3.314707 14.448334
v 1.880688 3.314233 14.447506
vn -0.0000 -1.0000 -0.0000
vn 0.0971 0.1390 -0.9855
vn -0.0971 0.1390 -0.9855
vn -0.2875 0.1390 -0.9477
vn -0.0000 1.0000 -0.0000
vn -0.2903 -0.0000 -0.9569
vn -0.0980 -0.0000 -0.9952
vn -0.0343 0.9369 -0.3480
vn -0.1015 0.9369 -0.3346
vn 0.0980 -0.0000 -0.9952
vn 0.0343 0.9369 -0.3480
vn 0.0098 0.9950 -0.0990
vn -0.0098 0.9950 -0.0990
vn 0.0052 0.9996 -0.0262
vn -0.0000 0.9996 -0.0267
vn -0.0052 0.9996 -0.0262
vn -0.0289 0.9950 -0.0952
vn -0.0102 0.9996 -0.0246
vn -0.0000 0.9996 0.0267
vn 0.0052 0.9996 0.0262
vn 0.0102 0.9996 0.0246
vn -0.0052 0.9996 0.0262
vn -0.0098 0.9950 0.0990
vn 0.0098 0.9950 0.0990
vn -0.0343 0.9369 0.3480
vn 0.0343 0.9369 0.3480
vn 0.0289 0.9950 0.0952
vn 0.1015 0.9369 0.3346
vn 0.2903 -0.0000 0.9569
vn 0.0980 -0.0000 0.9952
vn -0.2049 0.7085 -0.6753
vn -0.0692 0.7085 -0.7023
vn 0.0692 0.7085 -0.7023
vn 0.2049 0.7085 -0.6753
vn -0.0980 -0.0000 0.9952
vn -0.2903 -0.0000 0.9569
vn -0.1015 0.9369 0.3346
vn -0.1648 0.9369 0.3084
vn -0.4714 -0.0000 0.8819
vn -0.2218 0.9369 0.2703
vn -0.6344 -0.0000 0.7730
vn 0.3327 0.7085 -0.6224
vn 0.4477 0.7085 -0.5455
vn 0.5455 0.7085 -0.4477
vn 0.6224 0.7085 -0.3327
vn -0.7730 -0.0000 0.6344
vn -0.8819 -0.0000 0.4714
vn -0.3084 0.9369 0.1649
vn -0.2703 0.9369 0.2218
vn -0.3346 0.9369 0.1015
vn -0.9569 -0.0000 0.2903
vn -0.3480 0.9369 0.0343
vn -0.9952 -0.0000 0.0980
vn 0.6753 0.7085 -0.2049
vn 0.7023 0.7085 -0.0692
vn 0.7023 0.7085 0.0692
vn 0.6753 0.7085 0.2049
vn -0.9952 -0.0000 -0.0980
vn -0.9569 -0.0000 -0.2903
vn -0.3347 0.9368 -0.1015
vn -0.3481 0.9368 -0.0342
vn -0.3085 0.9368 -0.1648
vn -0.8819 -0.0000 -0.4714
vn -0.2705 0.9368 -0.2218
vn -0.7730 -0.0000 -0.6344
vn 0.6224 0.7085 0.3327
vn 0.5455 0.7085 0.4477
vn 0.4477 0.7085 0.5455
vn 0.3327 0.7085 0.6224
vn -0.6344 -0.0000 -0.7730
vn -0.4714 -0.0000 -0.8819
vn -0.1652 0.9368 -0.3085
vn -0.2221 0.9368 -0.2703
vn 0.0389 -0.9332 0.3572
vn -0.0000 -0.0000 1.0000
vn -0.1018 0.9367 -0.3350
vn -0.0000 -0.0000 -1.0000
vn 0.2049 0.7085 0.6753
vn 0.0692 0.7085 0.7023
vn -0.0692 0.7085 0.7023
vn -0.2049 0.7085 0.6753
vn 0.2903 -0.0000 -0.9569
vn 0.0314 -0.9332 0.3579
vn 0.1018 0.9368 -0.3348
vn 0.0345 0.9367 -0.3484
vn 0.1133 -0.9328 0.3421
vn 0.0398 -0.9364 0.3486
vn -0.0343 0.9367 -0.3485
vn 0.0299 -0.9364 0.3497
vn 0.0076 -0.9950 0.0996
vn -0.0098 0.9950 -0.0992
vn -0.0196 -0.9943 0.1050
vn -0.0457 -0.9327 0.3577
vn -0.0290 0.9950 -0.0953
vn -0.0329 -0.9989 0.0343
vn -0.0078 0.9996 -0.0257
vn -0.0159 -0.9992 0.0356
vn 0.0066 -0.9945 0.1045
vn -0.0127 0.9996 -0.0236
vn -0.0149 0.9996 -0.0222
vn -0.0471 0.9950 -0.0878
vn -0.0189 0.9996 -0.0188
vn -0.0633 0.9950 -0.0769
vn -0.0222 0.9996 -0.0148
vn -0.0770 0.9950 -0.0631
vn -0.0247 0.9996 -0.0102
vn -0.0878 0.9950 -0.0469
vn -0.0262 0.9996 -0.0052
vn -0.0953 0.9950 -0.0288
vn -0.0267 0.9996 -0.0000
vn -0.0991 0.9950 -0.0097
vn -0.0261 0.9996 0.0052
vn -0.0990 0.9950 0.0098
vn -0.0246 0.9996 0.0102
vn -0.0952 0.9950 0.0289
vn -0.0222 0.9996 0.0148
vn -0.0878 0.9950 0.0469
vn -0.0189 0.9996 0.0189
vn -0.0769 0.9950 0.0631
vn -0.0148 0.9996 0.0222
vn -0.0631 0.9950 0.0769
vn -0.0102 0.9996 0.0246
vn -0.0469 0.9950 0.0878
vn -0.0289 0.9950 0.0952
vn 0.0148 0.9996 -0.0222
vn 0.0102 0.9996 -0.0246
vn 0.0189 0.9996 -0.0188
vn 0.0222 0.9996 -0.0148
vn 0.0246 0.9996 -0.0102
vn 0.0261 0.9996 -0.0052
vn 0.0267 0.9996 -0.0000
vn 0.0262 0.9996 0.0052
vn 0.0246 0.9996 0.0102
vn 0.0222 0.9996 0.0148
vn 0.0188 0.9996 0.0189
vn 0.0148 0.9996 0.0222
vn 0.0126 0.9996 0.0237
vn -0.0162 0.9992 0.0356
vn 0.0077 0.9996 0.0257
vn -0.0329 0.9989 0.0343
vn -0.9981 0.0624 -0.0000
vn 0.0005 0.9996 0.0270
vn 0.0012 0.9996 0.0269
vn 0.0015 0.9996 0.0269
vn -1.0000 -0.0000 -0.0000
vn 0.0005 -0.9996 0.0270
vn -0.0026 0.9996 -0.0267
vn 0.0043 -0.9996 0.0267
vn 0.0039 0.9996 0.0267
vn 0.0043 0.9996 0.0267
vn 0.0035 0.9996 0.0267
vn 0.0390 0.9989 0.0271
vn 1.0000 -0.0000 -0.0000
vn -0.0026 0.9996 0.0267
vn 0.0027 0.9996 -0.0267
vn 0.0388 -0.9989 0.0271
vn 0.0099 0.9950 -0.0992
vn 0.0401 -0.9943 0.0991
vn 0.0116 -0.9950 0.0992
vn 0.0225 -0.9992 0.0318
vn 0.0140 -0.9945 0.1038
vn 0.0103 0.9996 -0.0246
vn 0.0078 0.9996 -0.0256
vn 0.0291 0.9950 -0.0953
vn 0.0149 0.9996 -0.0222
vn 0.0471 0.9950 -0.0878
vn 0.0632 0.9950 -0.0769
vn 0.0770 0.9950 -0.0631
vn 0.0878 0.9950 -0.0469
vn 0.0262 0.9996 -0.0052
vn 0.0953 0.9950 -0.0289
vn 0.0990 0.9950 -0.0097
vn 0.0261 0.9996 0.0052
vn 0.0990 0.9950 0.0098
vn 0.0952 0.9950 0.0289
vn 0.0878 0.9950 0.0469
vn 0.0189 0.9996 0.0189
vn 0.0769 0.9950 0.0631
vn 0.0631 0.9950 0.0769
vn 0.0469 0.9950 0.0878
vn 0.2218 0.9369 0.2703
vn 0.1648 0.9369 0.3084
vn 0.6344 -0.0000 0.7730
vn 0.4714 -0.0000 0.8819
vn -0.4477 0.7085 -0.5455
vn -0.3327 0.7085 -0.6224
vn -0.5455 0.7085 -0.4477
vn -0.6224 0.7085 -0.3327
vn 0.8819 -0.0000 0.4714
vn 0.7730 -0.0000 0.6344
vn 0.2703 0.9369 0.2218
vn 0.3084 0.9369 0.1648
vn 0.3346 0.9369 0.1015
vn 0.9569 -0.0000 0.2903
vn 0.3480 0.9369 0.0343
vn 0.9952 -0.0000 0.0980
vn -0.7023 0.7085 -0.0692
vn -0.6753 0.7085 -0.2049
vn -0.7023 0.7085 0.0692
vn -0.6753 0.7085 0.2049
vn 0.9569 -0.0000 -0.2903
vn 0.9952 -0.0000 -0.0980
vn 0.3480 0.9369 -0.0342
vn 0.3347 0.9368 -0.1015
vn 0.3085 0.9368 -0.1648
vn 0.8819 -0.0000 -0.4714
vn 0.2704 0.9368 -0.2218
vn 0.7730 -0.0000 -0.6344
vn -0.5455 0.7085 0.4477
vn -0.6224 0.7085 0.3327
vn -0.4477 0.7085 0.5455
vn -0.3327 0.7085 0.6224
vn 0.4714 -0.0000 -0.8819
vn 0.6344 -0.0000 -0.7730
vn 0.2220 0.9368 -0.2703
vn 0.1651 0.9368 -0.3085
vn -0.0148 0.9996 -0.0222
vn -0.0189 0.9996 -0.0189
vn -0.0246 0.9996 -0.0102
vn -0.0261 0.9996 -0.0052
vn -0.0188 0.9996 0.0189
vn -0.0102 0.9996 0.0247
vn -0.0077 0.9996 0.0257
vn 0.0225 0.9992 0.0318
vn 0.0140 0.9945 0.1038
vn -0.0288 0.9950 0.0953
vn -0.0097 0.9950 0.0992
vn 0.0314 0.9332 0.3579
vn -0.0342 0.9367 0.3484
vn 0.1133 0.9328 0.3422
vn 0.0402 0.9943 0.0991
vn 0.0106 0.9950 0.0992
vn 0.0116 0.9950 0.0992
vn 0.0107 0.9950 0.0992
vn 0.0396 0.9364 0.3486
vn 0.0398 0.9364 0.3486
vn 0.0397 0.9364 0.3486
vn 0.0301 0.9364 0.3496
vn 0.0299 0.9364 0.3497
vn -0.0457 0.9327 0.3578
vn 0.1015 0.9367 0.3351
vn 0.0389 0.9332 0.3572
vn 0.1648 0.9368 0.3087
vn 0.2218 0.9368 0.2706
vn 0.2703 0.9368 0.2220
vn 0.7655 0.1390 0.6282
vn 0.6282 0.1390 0.7655
vn 0.4668 0.1390 0.8734
vn 0.2875 0.1390 0.9477
vn 0.0971 0.1390 0.9855
vn -0.0971 0.1390 0.9855
vn -0.2875 0.1390 0.9477
vn -0.4668 0.1390 0.8734
vn -0.6282 0.1390 0.7655
vn -0.7655 0.1390 0.6282
vn -0.8734 0.1390 0.4668
vn -0.9477 0.1390 0.2875
vn -0.9855 0.1390 0.0971
vn -0.9855 0.1390 -0.0971
vn -0.9477 0.1390 -0.2875
vn -0.8734 0.1390 -0.4668
vn -0.7655 0.1390 -0.6282
vn -0.6282 0.1390 -0.7655
vn -0.4668 0.1390 -0.8734
vn -0.1648 0.9369 -0.3084
vn -0.2218 0.9369 -0.2703
vn -0.2703 0.9369 -0.2218
vn -0.3084 0.9369 -0.1648
vn -0.3347 0.9369 -0.1015
vn -0.3480 0.9369 -0.0342
vn -0.3346 0.9369 0.1016
vn -0.3084 0.9368 0.1649
vn -0.2703 0.9368 0.2220
vn -0.2219 0.9368 0.2705
vn -0.1648 0.9368 0.3086
vn -0.1014 0.9368 0.3349
vn -0.0468 0.9950 0.0879
vn -0.0631 0.9950 0.0770
vn -0.0769 0.9950 0.0632
vn -0.0878 0.9950 0.0470
vn -0.0990 0.9950 -0.0097
vn -0.0952 0.9950 -0.0289
vn -0.0769 0.9950 -0.0631
vn -0.0631 0.9950 -0.0769
vn -0.0469 0.9950 -0.0878
vn 0.8734 0.1390 0.4668
vn 0.9477 0.1390 0.2875
vn 0.3085 0.9368 0.1650
vn 0.3347 0.9368 0.1016
vn 0.9855 0.1390 -0.0971
vn 0.9855 0.1390 0.0971
vn 0.9477 0.1390 -0.2875
vn 0.8734 0.1390 -0.4668
vn 0.3346 0.9369 -0.1015
vn 0.3084 0.9369 -0.1648
vn 0.2703 0.9369 -0.2218
vn 0.2218 0.9369 -0.2703
vn 0.6282 0.1390 -0.7655
vn 0.7655 0.1390 -0.6282
vn 0.4668 0.1390 -0.8734
vn 0.2875 0.1390 -0.9477
vn 0.1648 0.9369 -0.3084
vn 0.1015 0.9369 -0.3346
vn 0.0289 0.9950 -0.0952
vn 0.0469 0.9950 -0.0878
vn 0.0631 0.9950 -0.0769
vn 0.0769 0.9950 -0.0631
vn 0.0952 0.9950 -0.0289
vn 0.0878 0.9950 0.0470
vn 0.0769 0.9950 0.0632
vn 0.0631 0.9950 0.0770
vn 0.0468 0.9950 0.0879
vn 0.0066 0.9945 0.1045
vn 0.0288 0.9950 0.0954
vn -0.0196 0.9943 0.1050
vn 0.0076 0.9950 0.0996
vn 0.0087 0.9950 0.0994
vn 0.0086 0.9950 0.0994
vn 0.1736 -0.9848 -0.0000
vn 0.0965 0.0170 -0.9952
vn -0.0965 -0.0170 -0.9952
vn -0.2859 -0.0504 -0.9569
vn -0.1737 0.9848 -0.0000
vn -0.4642 -0.0819 -0.8819
vn -0.6248 -0.1102 -0.7730
vn -0.7613 -0.1342 -0.6344
vn -0.8685 -0.1531 -0.4714
vn -0.9424 -0.1662 -0.2903
vn -0.9801 -0.1728 -0.0980
vn -0.9801 -0.1728 0.0980
vn -0.9424 -0.1662 0.2903
vn -0.8685 -0.1531 0.4714
vn -0.7613 -0.1342 0.6344
vn -0.6248 -0.1102 0.7730
vn -0.4642 -0.0819 0.8819
vn -0.2859 -0.0504 0.9569
vn -0.0965 -0.0170 0.9952
vn 0.0965 0.0170 0.9952
vn 0.2859 0.0504 0.9569
vn 0.4642 0.0819 0.8819
vn 0.6248 0.1102 0.7730
vn 0.7613 0.1342 0.6344
vn 0.8685 0.1531 0.4714
vn 0.9424 0.1662 0.2903
vn 0.9801 0.1728 0.0980
vn 0.9801 0.1728 -0.0980
vn 0.9424 0.1662 -0.2903
vn 0.8685 0.1531 -0.4714
vn 0.7613 0.1342 -0.6344
vn 0.6248 0.1102 -0.7730
vn 0.4642 0.0819 -0.8819
vn 0.2859 0.0504 -0.9569
vt 0.750000 0.490000
vt 0.796822 0.485388
vt 0.841844 0.471731
vt 0.883337 0.449553
vt 0.919706 0.419706
vt 0.949553 0.383337
vt 0.971731 0.341844
vt 0.985388 0.296822
vt 0.990000 0.250000
vt 0.985388 0.203178
vt 0.971731 0.158156
vt 0.949553 0.116663
vt 0.919706 0.080294
vt 0.883337 0.050447
vt 0.841844 0.028269
vt 0.796822 0.014612
vt 0.750000 0.010000
vt 0.703178 0.014612
vt 0.658156 0.028269
vt 0.616663 0.050447
vt 0.580294 0.080294
vt 0.550447 0.116663
vt 0.528269 0.158156
vt 0.514612 0.203178
vt 0.510000 0.250000
vt 0.514612 0.296822
vt 0.528269 0.341844
vt 0.550447 0.383337
vt 0.580294 0.419706
vt 0.616663 0.449553
vt 0.658156 0.471731
vt 0.703178 0.485388
vt 1.000000 0.500000
vt 1.000000 1.000000
vt 0.968750 1.000000
vt 0.968750 0.500000
vt 0.031250 0.500000
vt 0.031250 1.000000
vt 0.000000 1.000000
vt 0.000000 0.500000
vt 0.062500 0.500000
vt 0.062500 1.000000
vt 0.165154 0.454835
vt 0.206746 0.467452
vt 0.203178 0.485388
vt 0.158156 0.471731
vt 0.250000 0.471712
vt 0.250000 0.490000
vt 0.206746 0.467452
vt 0.206749 0.467440
vt 0.250000 0.471700
vt 0.165159 0.454824
vt 0.293254 0.467452
vt 0.293251 0.467440
vt 0.250000 0.466743
vt 0.292284 0.462577
vt 0.207716 0.462578
vt 0.250000 0.461773
vt 0.291315 0.457703
vt 0.208685 0.457704
vt 0.167056 0.450244
vt 0.168958 0.445652
vt 0.176657 0.427065
vt 0.212610 0.437970
vt 0.250000 0.441653
vt 0.213580 0.433096
vt 0.250000 0.436683
vt 0.178559 0.422473
vt 0.287390 0.437971
vt 0.286420 0.433096
vt 0.250000 0.431726
vt 0.285453 0.428234
vt 0.214547 0.428235
vt 0.250000 0.431713
vt 0.285451 0.428222
vt 0.214549 0.428222
vt 0.180456 0.417893
vt 0.180461 0.417881
vt 0.211555 0.342815
vt 0.230401 0.348532
vt 0.250000 0.350462
vt 0.269599 0.348532
vt 0.194186 0.333531
vt 0.178963 0.321037
vt 0.166469 0.305814
vt 0.157185 0.288445
vt 0.151469 0.269599
vt 0.149538 0.250000
vt 0.151469 0.230401
vt 0.157185 0.211555
vt 0.166469 0.194186
vt 0.178963 0.178963
vt 0.194186 0.166469
vt 0.211555 0.157185
vt 0.230401 0.151468
vt 0.250000 0.149538
vt 0.269599 0.151469
vt 0.288445 0.157185
vt 0.305814 0.166469
vt 0.321037 0.178963
vt 0.333531 0.194186
vt 0.342815 0.211555
vt 0.348532 0.230401
vt 0.350462 0.250000
vt 0.348532 0.269599
vt 0.342815 0.288445
vt 0.333531 0.305814
vt 0.321037 0.321037
vt 0.305814 0.333531
vt 0.288445 0.342815
vt 0.285451 0.428222
vt 0.319539 0.417881
vt 0.319544 0.417893
vt 0.350962 0.401100
vt 0.350955 0.401089
vt 0.378500 0.378500
vt 0.378491 0.378491
vt 0.401089 0.350955
vt 0.417881 0.319539
vt 0.417893 0.319544
vt 0.401100 0.350962
vt 0.428234 0.285453
vt 0.428222 0.285451
vt 0.431726 0.250000
vt 0.431714 0.250000
vt 0.428222 0.214550
vt 0.417881 0.180461
vt 0.417893 0.180456
vt 0.428235 0.214547
vt 0.401100 0.149038
vt 0.401089 0.149045
vt 0.378500 0.121500
vt 0.378491 0.121509
vt 0.350955 0.098911
vt 0.319539 0.082119
vt 0.159669 0.041006
vt 0.350962 0.098900
vt 0.159879 0.041093
vt 0.000000 0.000000
vt 0.142615 0.035856
vt 0.285451 0.071778
vt 0.285451 0.071778
vt 0.250000 0.068287
vt 0.214550 0.071778
vt 0.180461 0.082119
vt 0.214550 0.071778
vt 0.107384 0.035856
vt 0.107160 0.035900
vt 0.180456 0.082107
vt 0.125115 0.034132
vt 0.250000 0.068287
vt 0.124884 0.034132
vt 0.142841 0.035901
vt 0.285451 0.071778
vt 0.290747 0.067002
vt 0.286478 0.066612
vt 0.124953 0.031505
vt 0.285769 0.066513
vt 0.320477 0.077734
vt 0.287506 0.061447
vt 0.287492 0.061518
vt 0.323518 0.072511
vt 0.319894 0.077110
vt 0.323481 0.072601
vt 0.356627 0.090422
vt 0.353791 0.094666
vt 0.385661 0.114339
vt 0.382076 0.117924
vt 0.409477 0.143441
vt 0.405283 0.146243
vt 0.427165 0.176616
vt 0.422523 0.178539
vt 0.438048 0.212595
vt 0.433135 0.213572
vt 0.441710 0.250000
vt 0.436712 0.250000
vt 0.438009 0.287397
vt 0.433116 0.286424
vt 0.427089 0.323353
vt 0.422485 0.321446
vt 0.409369 0.356487
vt 0.405229 0.353721
vt 0.385527 0.385527
vt 0.382009 0.382009
vt 0.356480 0.409359
vt 0.353717 0.405224
vt 0.323343 0.427067
vt 0.321441 0.422474
vt 0.331041 0.445650
vt 0.367651 0.426077
vt 0.370414 0.430212
vt 0.332943 0.450243
vt 0.403256 0.403256
vt 0.399738 0.399738
vt 0.430207 0.370411
vt 0.426068 0.367645
vt 0.450231 0.332939
vt 0.445627 0.331032
vt 0.462558 0.292281
vt 0.457665 0.291307
vt 0.466714 0.250000
vt 0.461716 0.250000
vt 0.462539 0.207723
vt 0.457626 0.208701
vt 0.450194 0.167077
vt 0.445552 0.169000
vt 0.430153 0.129626
vt 0.425959 0.132428
vt 0.403189 0.096811
vt 0.399604 0.100396
vt 0.370341 0.069898
vt 0.367505 0.074142
vt 0.166478 0.024984
vt 0.330903 0.054682
vt 0.166383 0.024971
vt 0.330866 0.054772
vt 0.146161 0.018852
vt 0.291213 0.042808
vt 0.291199 0.042879
vt 0.000000 -0.000001
vt 0.291198 0.042882
vt 0.146066 0.018853
vt 0.287506 0.061444
vt 0.250000 0.057750
vt 0.250000 0.038824
vt 0.250000 0.057753
vt 0.250000 0.063020
vt 0.250000 0.038822
vt 0.250000 0.038824
vt -0.000001 -0.000000
vt 0.125047 0.016783
vt 0.124949 0.016764
vt 0.250000 0.038749
vt 0.250000 0.057825
vt 0.103925 0.018819
vt 0.208775 0.042747
vt 0.212521 0.061579
vt 0.125032 0.031512
vt 0.212190 0.065570
vt 0.212540 0.061674
vt 0.214238 0.068506
vt 0.176554 0.072686
vt 0.178508 0.077402
vt 0.143412 0.090480
vt 0.146229 0.094695
vt 0.149038 0.098900
vt 0.114376 0.114376
vt 0.117943 0.117943
vt 0.121500 0.121500
vt 0.090556 0.143463
vt 0.094733 0.146254
vt 0.098900 0.149038
vt 0.072863 0.176627
vt 0.077491 0.178544
vt 0.082107 0.180456
vt 0.061974 0.212599
vt 0.066876 0.213574
vt 0.071766 0.214547
vt 0.058307 0.250000
vt 0.063297 0.250000
vt 0.068274 0.250000
vt 0.062003 0.287395
vt 0.066891 0.286423
vt 0.071766 0.285453
vt 0.072919 0.323349
vt 0.077519 0.321444
vt 0.082107 0.319544
vt 0.090637 0.356483
vt 0.094774 0.353719
vt 0.098900 0.350962
vt 0.114477 0.385523
vt 0.117993 0.382007
vt 0.121500 0.378500
vt 0.143522 0.409356
vt 0.146284 0.405223
vt 0.149038 0.401100
vt 0.121509 0.378491
vt 0.149045 0.401089
vt 0.098911 0.350955
vt 0.082119 0.319539
vt 0.098911 0.350955
vt 0.071778 0.285451
vt 0.068287 0.250000
vt 0.071778 0.214549
vt 0.082119 0.180461
vt 0.098911 0.149045
vt 0.121509 0.121509
vt 0.121509 0.121509
vt 0.149045 0.098911
vt 0.149045 0.098911
vt 0.132347 0.426080
vt 0.100258 0.399742
vt 0.129585 0.430214
vt 0.096742 0.403258
vt 0.069790 0.370413
vt 0.073927 0.367648
vt 0.049764 0.332940
vt 0.054364 0.331035
vt 0.037436 0.292282
vt 0.042323 0.291309
vt 0.033277 0.250000
vt 0.038267 0.250000
vt 0.037450 0.207721
vt 0.042352 0.208696
vt 0.049793 0.167071
vt 0.054421 0.168988
vt 0.069830 0.129615
vt 0.074008 0.132406
vt 0.096792 0.096792
vt 0.100359 0.100359
vt 0.129640 0.069869
vt 0.132457 0.074084
vt 0.167108 0.049881
vt 0.169061 0.054597
vt 0.103830 0.018814
vt 0.208756 0.042652
vt 0.208775 0.042747
vt 0.103264 0.016307
vt 0.103487 0.016263
vt 0.165159 0.045177
vt 0.124885 0.014155
vt 0.206746 0.032548
vt 0.206746 0.032548
vt 0.250000 0.028288
vt 0.125116 0.014155
vt 0.293254 0.032548
vt 0.250000 0.010000
vt 0.296822 0.014612
vt 0.203178 0.014612
vt 0.146511 0.016263
vt 0.146738 0.016308
vt 0.334846 0.045165
vt 0.167313 0.022549
vt 0.334846 0.045165
vt 0.373177 0.065653
vt 0.341844 0.028269
vt 0.383337 0.050447
vt 0.167523 0.022636
vt 0.373169 0.065664
vt 0.406774 0.093226
vt 0.406765 0.093235
vt 0.434347 0.126823
vt 0.434336 0.126831
vt 0.419706 0.080294
vt 0.449553 0.116663
vt 0.656250 0.500000
vt 0.656250 1.000000
vt 0.625000 1.000000
vt 0.625000 0.500000
vt 0.593750 1.000000
vt 0.593750 0.500000
vt 0.562500 1.000000
vt 0.562500 0.500000
vt 0.531250 1.000000
vt 0.531250 0.500000
vt 0.500000 1.000000
vt 0.500000 0.500000
vt 0.468750 1.000000
vt 0.468750 0.500000
vt 0.437500 1.000000
vt 0.437500 0.500000
vt 0.406250 1.000000
vt 0.406250 0.500000
vt 0.375000 1.000000
vt 0.375000 0.500000
vt 0.343750 1.000000
vt 0.343750 0.500000
vt 0.312500 1.000000
vt 0.312500 0.500000
vt 0.281250 1.000000
vt 0.281250 0.500000
vt 0.250000 1.000000
vt 0.250000 0.500000
vt 0.218750 1.000000
vt 0.218750 0.500000
vt 0.187500 1.000000
vt 0.187500 0.500000
vt 0.156250 1.000000
vt 0.156250 0.500000
vt 0.125000 1.000000
vt 0.125000 0.500000
vt 0.093750 1.000000
vt 0.093750 0.500000
vt 0.093226 0.406774
vt 0.126823 0.434347
vt 0.116663 0.449553
vt 0.080294 0.419706
vt 0.126830 0.434336
vt 0.093235 0.406765
vt 0.065653 0.373177
vt 0.065664 0.373170
vt 0.045165 0.334846
vt 0.045176 0.334841
vt 0.045165 0.334846
vt 0.050447 0.383337
vt 0.028269 0.341844
vt 0.032548 0.293254
vt 0.014612 0.296822
vt 0.028288 0.250000
vt 0.010000 0.250000
vt 0.032561 0.293251
vt 0.028301 0.250000
vt 0.032548 0.206746
vt 0.032561 0.206749
vt 0.045165 0.165154
vt 0.045177 0.165159
vt 0.014612 0.203178
vt 0.028269 0.158156
vt 0.065653 0.126823
vt 0.050447 0.116663
vt 0.093226 0.093226
vt 0.080294 0.080294
vt 0.065664 0.126830
vt 0.093235 0.093235
vt 0.126823 0.065653
vt 0.126831 0.065664
vt 0.165154 0.045165
vt 0.165154 0.045165
vt 0.116663 0.050447
vt 0.158156 0.028269
vt 0.687500 0.500000
vt 0.687500 1.000000
vt 0.718750 0.500000
vt 0.718750 1.000000
vt 0.467452 0.206746
vt 0.454835 0.165154
vt 0.471731 0.158156
vt 0.485388 0.203178
vt 0.454823 0.165159
vt 0.467440 0.206749
vt 0.471712 0.250000
vt 0.471699 0.250000
vt 0.471712 0.250000
vt 0.467452 0.293254
vt 0.467440 0.293251
vt 0.490000 0.250000
vt 0.485388 0.296822
vt 0.781250 0.500000
vt 0.781250 1.000000
vt 0.750000 1.000000
vt 0.750000 0.500000
vt 0.812500 0.500000
vt 0.812500 1.000000
vt 0.843750 0.500000
vt 0.843750 1.000000
vt 0.434347 0.373177
vt 0.454835 0.334846
vt 0.471731 0.341844
vt 0.449553 0.383337
vt 0.454835 0.334846
vt 0.454823 0.334841
vt 0.434336 0.373170
vt 0.406774 0.406774
vt 0.406765 0.406765
vt 0.373177 0.434347
vt 0.373170 0.434336
vt 0.419706 0.419706
vt 0.383337 0.449553
vt 0.906250 0.500000
vt 0.906250 1.000000
vt 0.875000 1.000000
vt 0.875000 0.500000
vt 0.937500 0.500000
vt 0.937500 1.000000
vt 0.334846 0.454835
vt 0.341844 0.471731
vt 0.296822 0.485388
vt 0.334846 0.454835
vt 0.334841 0.454823
s 1
usemtl V_Cream
f 65/131/35 66/132/35 561/133/35 560/134/35 559/135/35 543/136/35 542/137/35 541/138/35 540/139/35 524/140/35 523/141/35 522/142/35 451/143/35 453/144/35 454/145/35 455/146/35 457/147/35 458/148/35 460/149/35 462/150/35 464/151/35 466/152/35 468/153/35 470/154/35 472/155/35 474/156/35 476/157/35 478/158/35 480/159/35 482/160/35 69/161/35 68/162/35
f 65/163/36 67/164/36 563/165/36 66/166/36
f 68/167/37 70/168/37 67/169/37 65/170/37
f 69/171/38 71/172/38 70/168/38 68/167/38
f 73/173/39 72/174/39 70/175/39 71/176/39
f 72/174/39 74/177/39 67/178/39 70/175/39
f 72/174/40 73/173/40 77/173/40 75/179/40
f 74/177/41 72/174/41 75/179/41 78/177/41
f 78/177/42 75/179/42 76/180/42 80/181/42
f 75/179/43 77/173/43 521/182/43 76/180/43
f 565/183/44 74/177/44 78/177/44 79/183/44
f 79/183/45 78/177/45 80/181/45 81/184/45
f 81/184/46 80/181/46 82/185/46 83/186/46
f 80/181/47 76/180/47 85/187/47 82/185/47
f 83/186/48 82/185/49 84/188/49 252/189/48
f 82/185/49 85/187/50 87/190/50 84/188/49
f 76/180/51 521/182/51 86/191/51 85/187/51
f 85/187/50 86/191/52 88/192/52 87/190/50
f 91/193/39 89/194/39 87/190/39 88/192/39
f 89/194/39 92/195/39 84/188/39 87/190/39
f 92/195/53 89/194/54 90/196/54 94/197/53
f 89/194/54 91/193/55 339/198/55 90/196/54
f 92/195/39 93/199/39 252/189/39 84/188/39
f 93/199/56 92/195/53 94/197/53 95/200/56
f 95/200/57 94/197/57 96/201/57 97/202/57
f 94/197/58 90/196/58 99/203/58 96/201/58
f 97/202/59 96/201/59 98/204/59 118/205/59
f 96/201/60 99/203/60 101/206/60 98/204/60
f 90/196/61 339/198/61 100/207/61 99/203/61
f 99/203/62 100/207/62 102/208/62 101/206/62
f 104/208/63 103/206/63 101/206/63 102/208/63
f 103/206/64 105/204/64 98/204/64 101/206/64
f 107/209/39 106/210/39 103/206/39 104/208/39
f 106/210/39 108/211/39 105/204/39 103/206/39
f 106/210/65 107/209/65 110/209/65 109/210/65
f 108/211/66 106/210/66 109/210/66 111/211/66
f 112/212/39 111/211/39 109/210/39 110/209/39 346/213/39 347/214/39 348/215/39 349/216/39 362/217/39 363/218/39 364/219/39 365/220/39 378/221/39 379/222/39 380/223/39 192/224/39 191/225/39 190/226/39 189/227/39 169/228/39 168/229/39 167/230/39 166/231/39 150/232/39 149/233/39 148/234/39 147/235/39 131/236/39 130/237/39 129/238/39 128/239/39 113/240/39
f 114/212/67 108/211/67 111/211/67 112/212/67
f 115/240/68 114/212/68 112/212/68 113/240/68
f 108/211/39 114/212/39 116/241/39 105/204/39
f 114/212/39 115/240/39 117/242/39 116/241/39
f 105/204/69 116/241/69 118/205/69 98/204/69
f 116/241/70 117/242/70 119/242/70 118/205/70
f 120/243/71 97/202/71 118/205/71 119/242/71
f 122/244/72 120/243/72 119/242/72 121/245/72
f 117/242/73 124/245/73 121/245/73 119/242/73
f 246/246/74 122/244/74 121/245/74 123/247/74
f 124/245/75 125/247/75 123/247/75 121/245/75
f 115/240/39 126/239/39 124/245/39 117/242/39
f 126/239/39 127/238/39 125/247/39 124/245/39
f 126/239/76 115/240/76 113/240/76 128/239/76
f 127/238/77 126/239/77 128/239/77 129/238/77
f 132/237/78 127/238/78 129/238/78 130/237/78
f 133/236/79 132/237/79 130/237/79 131/236/79
f 127/238/39 132/237/39 134/248/39 125/247/39
f 132/237/39 133/236/39 135/249/39 134/248/39
f 125/247/80 134/248/80 136/248/80 123/247/80
f 134/248/81 135/249/81 138/249/81 136/248/81
f 139/250/82 137/251/82 136/248/82 138/249/82
f 137/251/83 246/246/83 123/247/83 136/248/83
f 141/252/84 139/250/84 138/249/84 140/253/84
f 135/249/85 143/253/85 140/253/85 138/249/85
f 237/254/86 141/252/86 140/253/86 142/255/86
f 143/253/87 144/255/87 142/255/87 140/253/87
f 133/236/39 145/235/39 143/253/39 135/249/39
f 145/235/39 146/234/39 144/255/39 143/253/39
f 145/235/88 133/236/88 131/236/88 147/235/88
f 146/234/89 145/235/89 147/235/89 148/234/89
f 151/233/90 146/234/90 148/234/90 149/233/90
f 152/232/91 151/233/91 149/233/91 150/232/91
f 146/234/39 151/233/39 153/256/39 144/255/39
f 151/233/39 152/232/39 154/257/39 153/256/39
f 144/255/92 153/256/92 155/256/92 142/255/92
f 153/256/93 154/257/93 157/257/93 155/256/93
f 158/258/94 156/259/94 155/256/94 157/257/94
f 156/259/95 237/254/95 142/255/95 155/256/95
f 160/260/96 158/258/96 157/257/96 159/261/96
f 154/257/97 162/261/97 159/261/97 157/257/97
f 228/262/98 160/260/98 159/261/98 161/263/98
f 162/261/99 163/263/99 161/263/99 159/261/99
f 152/232/39 164/231/39 162/261/39 154/257/39
f 164/231/39 165/230/39 163/263/39 162/261/39
f 164/231/100 152/232/100 150/232/100 166/231/100
f 165/230/101 164/231/101 166/231/101 167/230/101
f 170/229/102 165/230/102 167/230/102 168/229/102
f 171/228/103 170/229/103 168/229/103 169/228/103
f 165/230/39 170/229/39 172/264/39 163/263/39
f 170/229/39 171/228/39 173/265/39 172/264/39
f 163/263/104 172/264/104 174/264/104 161/263/104
f 172/264/105 173/265/105 176/265/105 174/264/105
f 177/266/106 175/267/106 174/264/106 176/265/106
f 175/267/107 228/262/107 161/263/107 174/264/107
f 176/265/108 178/265/108 179/268/108 177/266/108
f 173/269/109 181/269/109 178/269/109 176/269/109
f 216/270/110 179/268/110 178/265/110 180/271/110
f 181/265/40 182/272/40 180/271/40 178/265/40
f 173/265/39 183/272/39 182/272/39 181/265/39
f 182/269/109 183/269/109 186/269/109 180/269/109
f 171/228/39 187/227/39 183/272/39 173/265/39
f 187/227/39 188/226/39 184/273/39 183/272/39
f 183/272/39 184/273/39 211/273/39 185/272/39
f 183/269/111 185/269/111 210/269/111 186/269/111
f 187/227/112 171/228/112 169/228/112 189/227/112
f 188/226/113 187/227/113 189/227/113 190/226/113
f 193/225/114 188/226/114 190/226/114 191/225/114
f 194/224/115 193/225/115 191/225/115 192/224/115
f 188/226/39 193/225/39 195/274/39 184/273/39
f 193/225/39 194/224/39 196/275/39 195/274/39
f 184/273/39 195/274/39 197/274/39 206/273/39
f 195/274/116 196/275/116 200/275/116 198/276/116
f 197/269/109 195/269/109 198/269/109 201/269/109
f 199/277/117 202/278/117 201/274/117 198/276/117
f 305/279/118 199/277/118 198/276/118 200/275/118
f 202/278/119 204/280/119 203/281/119 201/274/119
f 206/273/44 197/274/44 201/274/44 203/281/44
f 205/273/120 203/281/120 204/280/120 207/269/120
f 184/269/111 206/269/111 203/269/111 205/269/111
f 207/269/121 209/282/121 208/273/121 205/273/121
f 211/269/109 184/269/109 205/269/109 208/269/109
f 209/282/122 212/283/122 210/272/122 208/273/122
f 185/272/41 211/273/41 208/273/41 210/272/41
f 212/283/123 214/269/123 186/284/123 210/272/123
f 213/285/124 215/286/124 214/269/124 212/283/124
f 287/287/125 213/285/125 212/283/125 209/282/125
f 215/286/126 217/288/126 216/270/126 214/269/126
f 214/269/127 216/270/127 180/271/127 186/284/127
f 217/288/128 219/289/128 179/268/128 216/270/128
f 284/290/129 218/291/129 217/288/129 215/286/129
f 218/291/130 220/292/130 219/289/130 217/288/130
f 221/293/131 219/289/131 220/292/131 222/294/131
f 177/266/132 179/268/132 219/289/132 221/293/132
f 222/294/133 224/295/134 223/296/134 221/293/133
f 221/293/135 223/296/135 175/267/135 177/266/135
f 224/295/134 226/297/136 225/298/136 223/296/134
f 223/296/137 225/298/137 228/262/137 175/267/137
f 226/297/136 229/299/138 227/300/138 225/298/136
f 225/298/139 227/300/139 160/260/139 228/262/139
f 229/299/138 231/301/140 230/302/140 227/300/138
f 227/300/141 230/302/141 158/258/141 160/260/141
f 231/301/140 233/303/142 232/304/142 230/302/140
f 230/302/143 232/304/143 156/259/143 158/258/143
f 233/303/142 235/305/144 234/306/144 232/304/142
f 232/304/145 234/306/145 237/254/145 156/259/145
f 235/305/144 238/307/146 236/308/146 234/306/144
f 234/306/147 236/308/147 141/252/147 237/254/147
f 238/307/146 240/309/148 239/310/148 236/308/146
f 236/308/149 239/310/149 139/250/149 141/252/149
f 240/309/148 242/311/150 241/312/150 239/310/148
f 239/310/151 241/312/151 137/251/151 139/250/151
f 242/311/150 244/313/152 243/314/152 241/312/150
f 241/312/153 243/314/153 246/246/153 137/251/153
f 244/313/152 247/315/154 245/316/154 243/314/152
f 243/314/155 245/316/155 122/244/155 246/246/155
f 247/315/154 249/317/156 248/318/156 245/316/154
f 245/316/157 248/318/157 120/243/157 122/244/157
f 249/317/156 93/199/56 95/200/56 248/318/156
f 248/318/158 95/200/158 97/202/158 120/243/158
f 93/199/39 249/317/39 250/319/39 252/189/39
f 249/317/39 247/315/39 253/320/39 250/319/39
f 254/321/159 251/322/160 250/319/160 253/320/159
f 251/322/160 83/186/48 252/189/48 250/319/160
f 256/323/161 254/321/159 253/320/159 255/324/161
f 247/315/39 244/313/39 255/324/39 253/320/39
f 258/325/162 256/323/161 255/324/161 257/326/162
f 244/313/39 242/311/39 257/326/39 255/324/39
f 260/327/163 258/325/162 257/326/162 259/328/163
f 242/311/39 240/309/39 259/328/39 257/326/39
f 262/329/164 260/327/163 259/328/163 261/330/164
f 240/309/39 238/307/39 261/330/39 259/328/39
f 264/331/165 262/329/164 261/330/164 263/332/165
f 238/307/39 235/305/39 263/332/39 261/330/39
f 266/333/166 264/331/165 263/332/165 265/334/166
f 235/305/39 233/303/39 265/334/39 263/332/39
f 268/335/167 266/333/166 265/334/166 267/336/167
f 233/303/39 231/301/39 267/336/39 265/334/39
f 270/337/168 268/335/167 267/336/167 269/338/168
f 231/301/39 229/299/39 269/338/39 267/336/39
f 272/339/169 270/337/168 269/338/168 271/340/169
f 229/299/39 226/297/39 271/340/39 269/338/39
f 274/341/170 272/339/169 271/340/169 273/342/170
f 226/297/39 224/295/39 273/342/39 271/340/39
f 276/343/171 274/341/170 273/342/170 275/344/171
f 224/295/39 222/294/39 275/344/39 273/342/39
f 278/345/172 276/343/172 275/344/172 277/346/172
f 275/344/35 222/294/35 220/292/35 277/346/35
f 280/347/173 278/345/173 277/346/173 279/348/173
f 220/292/39 218/291/39 279/348/39 277/346/39
f 279/348/174 281/349/174 282/350/174 280/347/174
f 284/290/175 281/349/175 279/348/175 218/291/175
f 281/349/176 283/351/177 572/352/178 282/350/176
f 281/349/179 284/290/179 285/353/179 283/351/179
f 285/353/180 284/290/180 215/286/180 213/285/180
f 285/353/39 286/354/39 289/355/39 283/351/39
f 286/354/181 285/353/181 213/285/181 287/287/181
f 288/356/182 286/354/182 287/287/182 300/357/182
f 288/356/39 291/358/39 289/359/39 286/354/39
f 289/355/183 291/358/184 292/360/184 290/361/185
f 290/361/185 572/352/178 283/351/177 289/355/183
f 294/362/186 292/360/186 291/358/186 293/363/186
f 291/358/187 288/356/187 296/364/187 293/363/187
f 411/365/188 294/362/188 293/363/188 295/366/188
f 296/364/39 297/367/39 295/366/39 293/363/39
f 297/367/189 296/364/189 298/368/189 299/369/189
f 300/357/190 298/368/190 296/364/190 288/356/190
f 299/369/191 298/368/191 204/280/191 202/278/191
f 207/269/192 204/280/192 298/368/192 300/357/192
f 300/357/193 287/287/193 209/282/193 207/269/193
f 302/370/194 297/367/194 299/369/194 301/371/194
f 301/371/195 299/369/195 202/278/195 199/277/195
f 304/372/196 302/370/197 301/371/197 303/373/196
f 303/373/198 301/371/198 199/277/198 305/279/198
f 307/374/199 304/372/196 303/373/196 306/375/199
f 306/375/200 303/373/200 305/279/200 308/376/200
f 310/377/161 307/374/199 306/375/199 309/378/161
f 309/378/201 306/375/201 308/376/201 311/379/201
f 313/380/162 310/377/161 309/378/161 312/381/162
f 312/381/202 309/378/202 311/379/202 314/382/202
f 316/383/163 313/380/162 312/381/162 315/384/163
f 315/384/203 312/381/203 314/382/203 317/385/203
f 319/386/204 316/383/163 315/384/163 318/387/204
f 318/387/205 315/384/205 317/385/205 320/388/205
f 322/389/165 319/386/204 318/387/204 321/390/165
f 321/390/206 318/387/206 320/388/206 323/391/206
f 325/392/207 322/389/165 321/390/165 324/393/207
f 324/393/208 321/390/208 323/391/208 326/394/208
f 328/395/167 325/392/207 324/393/207 327/396/167
f 327/396/209 324/393/209 326/394/209 329/397/209
f 331/398/168 328/395/167 327/396/167 330/399/168
f 330/399/210 327/396/210 329/397/210 332/400/210
f 334/401/211 331/398/168 330/399/168 333/402/169
f 333/402/212 330/399/212 332/400/212 335/403/212
f 337/404/170 334/401/211 333/402/169 336/405/170
f 336/405/213 333/402/213 335/403/213 338/406/213
f 91/193/55 337/404/170 336/405/170 339/198/55
f 339/198/214 336/405/214 338/406/214 100/207/214
f 338/406/215 335/403/215 341/407/215 340/408/215
f 100/207/216 338/406/216 340/408/216 102/208/216
f 343/407/217 342/408/217 340/408/217 341/407/217
f 342/408/218 104/208/218 102/208/218 340/408/218
f 345/214/39 344/213/39 342/408/39 343/407/39
f 344/213/39 107/209/39 104/208/39 342/408/39
f 344/213/219 345/214/219 347/214/219 346/213/219
f 107/209/220 344/213/220 346/213/220 110/209/220
f 345/214/221 350/215/221 348/215/221 347/214/221
f 350/215/222 351/216/222 349/216/222 348/215/222
f 351/216/39 350/215/39 352/409/39 353/410/39
f 350/215/39 345/214/39 343/407/39 352/409/39
f 353/410/223 352/409/223 354/411/223 355/410/223
f 352/409/224 343/407/224 341/407/224 354/411/224
f 335/403/225 332/400/225 354/411/225 341/407/225
f 332/400/226 329/397/226 355/410/226 354/411/226
f 329/397/227 326/394/227 356/412/227 355/410/227
f 358/412/228 353/410/228 355/410/228 356/412/228
f 326/394/229 323/391/229 357/413/229 356/412/229
f 359/413/230 358/412/230 356/412/230 357/413/230
f 361/218/39 360/217/39 358/412/39 359/413/39
f 360/217/39 351/216/39 353/410/39 358/412/39
f 360/217/231 361/218/231 363/218/231 362/217/231
f 351/216/232 360/217/232 362/217/232 349/216/232
f 361/218/233 366/219/233 364/219/233 363/218/233
f 366/219/234 367/220/234 365/220/234 364/219/234
f 367/220/39 366/219/39 368/414/39 369/415/39
f 366/219/39 361/218/39 359/413/39 368/414/39
f 369/415/235 368/414/235 370/414/235 371/415/235
f 368/414/236 359/413/236 357/413/236 370/414/236
f 323/391/237 320/388/237 370/414/237 357/413/237
f 320/388/238 317/385/238 371/415/238 370/414/238
f 317/385/239 314/382/239 372/416/239 371/415/239
f 374/416/240 369/415/240 371/415/240 372/416/240
f 314/382/241 311/379/241 373/417/241 372/416/241
f 375/418/242 374/416/242 372/416/242 373/417/242
f 377/222/39 376/221/39 374/416/39 375/418/39
f 376/221/39 367/220/39 369/415/39 374/416/39
f 376/221/243 377/222/243 379/222/243 378/221/243
f 367/220/244 376/221/244 378/221/244 365/220/244
f 377/222/245 381/223/245 380/223/245 379/222/245
f 381/223/246 194/224/246 192/224/246 380/223/246
f 194/224/39 381/223/39 382/419/39 196/275/39
f 381/223/39 377/222/39 375/418/39 382/419/39
f 196/275/247 382/419/247 383/420/247 200/275/247
f 382/419/248 375/418/248 373/417/248 383/420/248
f 311/379/249 308/376/249 383/420/249 373/417/249
f 308/376/250 305/279/250 200/275/250 383/420/250
f 334/401/39 337/404/39 384/421/39 386/422/39
f 337/404/39 91/193/39 88/192/39 384/421/39
f 86/191/52 385/423/251 384/421/251 88/192/52
f 385/423/251 387/424/252 386/422/252 384/421/251
f 387/424/252 389/425/138 388/426/138 386/422/252
f 331/398/39 334/401/39 386/422/39 388/426/39
f 389/425/138 391/427/253 390/428/253 388/426/138
f 328/395/39 331/398/39 388/426/39 390/428/39
f 391/427/253 393/429/254 392/430/142 390/428/253
f 325/392/39 328/395/39 390/428/39 392/430/39
f 393/429/254 395/431/144 394/432/144 392/430/142
f 322/389/39 325/392/39 392/430/39 394/432/39
f 395/431/144 397/433/146 396/434/146 394/432/144
f 319/386/39 322/389/39 394/432/39 396/434/39
f 397/433/146 399/435/148 398/436/148 396/434/146
f 316/383/39 319/386/39 396/434/39 398/436/39
f 399/435/148 401/437/150 400/438/150 398/436/148
f 313/380/39 316/383/39 398/436/39 400/438/39
f 401/437/150 403/439/255 402/440/255 400/438/150
f 310/377/39 313/380/39 400/438/39 402/440/39
f 403/439/255 405/441/154 404/442/154 402/440/255
f 307/374/39 310/377/39 402/440/39 404/442/39
f 405/441/154 407/443/256 406/444/256 404/442/154
f 304/372/39 307/374/39 404/442/39 406/444/39
f 407/443/256 409/445/257 408/446/257 406/444/256
f 302/370/39 304/372/39 406/444/39 408/446/39
f 295/366/258 408/446/258 409/445/258 411/365/258
f 302/370/175 408/446/175 295/447/175 297/367/175
f 411/365/259 409/445/259 410/448/259 412/449/259
f 517/450/260 410/448/260 409/445/260 407/443/260
f 412/449/261 414/451/261 294/362/261 411/365/261
f 412/449/262 410/448/262 518/452/262 413/453/262
f 413/453/263 415/454/263 414/451/263 412/449/263
f 415/454/264 418/454/264 416/269/264 414/451/264
f 414/451/265 416/269/265 292/360/265 294/362/265
f 290/361/266 292/360/267 416/269/267 417/455/268
f 417/455/269 416/269/270 418/454/270 419/454/271
f 420/454/111 424/454/111 419/454/111 418/454/111
f 425/454/111 420/454/111 418/454/111 415/454/111
f 420/454/39 421/456/39 427/456/39 424/454/39
f 421/456/39 420/454/39 423/457/39 456/458/39
f 422/452/39 420/454/39 425/454/39 426/452/39
f 420/454/39 422/452/39 459/459/39 423/457/39
f 426/452/69 425/454/69 415/454/69 413/453/69
f 422/452/109 426/452/109 413/453/109 518/452/109
f 424/454/64 427/456/64 428/456/64 419/454/64
f 427/456/109 421/456/109 430/456/109 428/456/109
f 419/454/271 428/456/272 429/460/272 417/455/269
f 431/269/273 429/460/272 428/456/272 430/456/273
f 433/461/274 431/269/274 430/456/274 432/456/274
f 421/456/109 435/456/109 432/456/109 430/456/109
f 432/456/275 434/462/275 571/463/275 433/461/275
f 435/456/63 436/464/63 434/462/63 432/456/63
f 421/456/39 437/464/39 436/464/39 435/456/39
f 436/464/109 437/464/109 440/462/109 434/462/109
f 437/464/218 438/465/218 442/465/218 440/462/218
f 438/465/39 437/464/39 439/466/39 452/467/39
f 437/464/39 421/456/39 456/458/39 439/466/39
f 434/462/276 440/462/276 441/468/276 571/463/276
f 440/462/277 442/465/277 443/469/277 441/468/277
f 442/465/278 444/470/278 445/471/278 443/469/278
f 438/465/217 447/470/217 444/470/217 442/465/217
f 444/470/279 446/472/279 570/473/279 445/471/279
f 447/470/224 448/472/224 446/472/224 444/470/224
f 448/472/39 447/470/39 449/474/39 450/475/39
f 447/470/39 438/465/39 452/467/39 449/474/39
f 522/476/280 450/477/280 449/478/280 451/479/280
f 451/479/281 449/478/281 452/480/281 453/481/281
f 453/481/282 452/480/282 439/482/282 454/483/282
f 454/483/283 439/482/283 456/484/283 455/485/283
f 455/485/284 456/484/284 423/486/284 457/487/284
f 457/487/285 423/486/285 459/488/285 458/489/285
f 458/489/286 459/488/286 461/490/286 460/491/286
f 460/491/287 461/490/287 463/492/287 462/493/287
f 462/493/288 463/492/288 465/494/288 464/495/288
f 464/495/289 465/494/289 467/496/289 466/497/289
f 466/497/290 467/496/290 469/498/290 468/499/290
f 468/499/291 469/498/291 471/500/291 470/501/291
f 470/501/292 471/500/292 473/502/292 472/503/292
f 472/503/293 473/502/293 475/504/293 474/505/293
f 474/505/294 475/504/294 477/506/294 476/507/294
f 476/507/295 477/506/295 479/508/295 478/509/295
f 478/509/296 479/508/296 481/510/296 480/511/296
f 480/511/297 481/510/297 483/512/297 482/513/297
f 482/513/298 483/512/298 71/172/298 69/171/298
f 485/514/39 484/515/39 483/516/39 481/517/39
f 484/515/39 73/173/39 71/176/39 483/516/39
f 484/515/104 485/514/104 488/514/104 486/515/104
f 73/173/105 484/515/105 486/515/105 77/173/105
f 77/173/299 486/515/299 487/518/299 521/182/299
f 486/515/300 488/514/300 489/519/300 487/518/300
f 488/514/301 490/520/301 491/521/301 489/519/301
f 485/514/99 493/520/99 490/520/99 488/514/99
f 490/520/302 492/522/302 520/523/302 491/521/302
f 493/520/97 494/524/97 492/522/97 490/520/97
f 494/524/39 493/520/39 479/525/39 477/526/39
f 493/520/39 485/514/39 481/517/39 479/525/39
f 494/524/93 495/527/93 497/527/93 492/522/93
f 495/527/39 494/524/39 477/526/39 475/528/39
f 495/527/92 496/529/92 499/529/92 497/527/92
f 496/529/39 495/527/39 475/528/39 473/530/39
f 492/522/303 497/527/303 498/531/303 520/523/303
f 497/527/304 499/529/304 500/532/304 498/531/304
f 499/529/86 501/533/86 502/534/86 500/532/86
f 496/529/87 504/533/87 501/533/87 499/529/87
f 501/533/305 503/535/305 519/536/305 502/534/305
f 504/533/85 505/535/85 503/535/85 501/533/85
f 505/535/39 504/533/39 471/537/39 469/538/39
f 504/533/39 496/529/39 473/530/39 471/537/39
f 505/535/81 506/539/81 508/539/81 503/535/81
f 506/539/39 505/535/39 469/538/39 467/540/39
f 506/539/80 507/541/80 510/541/80 508/539/80
f 507/541/39 506/539/39 467/540/39 465/542/39
f 503/535/306 508/539/306 509/543/306 519/536/306
f 508/539/307 510/541/307 511/544/307 509/543/307
f 510/541/308 512/545/308 513/546/308 511/544/308
f 507/541/75 515/545/75 512/545/75 510/541/75
f 512/545/309 514/547/309 517/450/309 513/546/309
f 515/545/73 516/548/73 514/547/73 512/545/73
f 516/548/39 515/545/39 463/549/39 461/550/39
f 515/545/39 507/541/39 465/542/39 463/549/39
f 516/548/70 422/452/70 518/452/70 514/547/70
f 422/452/39 516/548/39 461/550/39 459/459/39
f 514/547/310 518/452/310 410/448/310 517/450/310
f 513/546/311 517/450/311 407/443/311 405/441/311
f 511/544/312 513/546/312 405/441/312 403/439/312
f 509/543/313 511/544/313 403/439/313 401/437/313
f 519/536/314 509/543/314 401/437/314 399/435/314
f 502/534/149 519/536/149 399/435/149 397/433/149
f 500/532/147 502/534/147 397/433/147 395/431/147
f 498/531/315 500/532/315 395/431/315 393/429/315
f 520/523/316 498/531/316 393/429/316 391/427/316
f 491/521/141 520/523/141 391/427/141 389/425/141
f 489/519/317 491/521/317 389/425/317 387/424/317
f 487/518/318 489/519/318 387/424/318 385/423/318
f 521/182/319 487/518/319 385/423/319 86/191/319
f 523/551/320 525/552/320 450/477/320 522/476/320
f 524/553/321 526/554/321 525/552/321 523/551/321
f 528/555/39 527/556/39 525/557/39 526/558/39
f 527/556/39 448/472/39 450/475/39 525/557/39
f 527/556/228 528/555/228 531/555/228 529/556/228
f 448/472/223 527/556/223 529/556/223 446/472/223
f 446/472/322 529/556/322 530/559/322 570/473/322
f 529/556/323 531/555/323 532/560/323 530/559/323
f 531/555/229 533/561/229 534/562/229 532/560/229
f 528/555/230 536/563/230 533/561/230 531/555/230
f 533/561/237 535/564/237 569/565/237 534/562/237
f 536/563/236 537/564/236 535/564/236 533/561/236
f 537/564/39 536/563/39 538/566/39 539/567/39
f 536/563/39 528/555/39 526/558/39 538/566/39
f 541/568/324 539/569/324 538/570/324 540/571/324
f 540/571/325 538/570/325 526/554/325 524/553/325
f 542/572/326 544/573/326 539/569/326 541/568/326
f 543/574/327 545/575/327 544/573/327 542/572/327
f 547/576/39 546/577/39 544/578/39 545/579/39
f 546/577/39 537/564/39 539/567/39 544/578/39
f 546/577/240 547/576/240 550/576/240 548/580/240
f 537/564/235 546/577/235 548/580/235 535/564/235
f 535/564/328 548/580/328 549/581/328 569/565/328
f 548/580/329 550/576/329 551/582/329 549/581/329
f 550/576/330 552/583/330 553/584/330 551/582/330
f 547/576/242 555/583/242 552/583/242 550/576/242
f 552/583/331 554/585/331 568/586/331 553/584/331
f 555/583/248 556/585/248 554/585/248 552/583/248
f 556/585/39 555/583/39 557/587/39 558/588/39
f 555/583/39 547/576/39 545/579/39 557/587/39
f 560/589/332 558/590/332 557/591/332 559/592/332
f 559/592/333 557/591/333 545/575/333 543/574/333
f 561/593/334 562/594/334 558/590/334 560/589/334
f 66/166/335 563/165/335 562/594/335 561/593/335
f 565/183/39 564/595/39 562/596/39 563/597/39
f 564/595/39 556/585/39 558/588/39 562/596/39
f 564/595/116 565/183/116 79/183/116 566/598/116
f 556/585/247 564/595/247 566/598/247 554/585/247
f 554/585/336 566/598/336 567/599/336 568/586/336
f 566/598/337 79/183/337 81/184/337 567/599/337
f 567/599/338 81/184/338 83/186/338 251/322/338
f 568/586/339 567/599/339 251/322/339 254/321/339
f 553/584/340 568/586/340 254/321/340 256/323/340
f 74/177/39 565/183/39 563/597/39 67/178/39
f 551/582/341 553/584/341 256/323/341 258/325/341
f 549/581/203 551/582/203 258/325/203 260/327/203
f 569/565/342 549/581/342 260/327/342 262/329/342
f 534/562/206 569/565/206 262/329/206 264/331/206
f 532/560/208 534/562/208 264/331/208 266/333/208
f 530/559/209 532/560/209 266/333/209 268/335/209
f 570/473/343 530/559/343 268/335/343 270/337/343
f 445/471/344 570/473/344 270/337/344 272/339/344
f 443/469/345 445/471/345 272/339/345 274/341/345
f 441/468/346 443/469/346 274/341/346 276/343/346
f 571/463/347 441/468/347 276/343/347 278/345/347
f 433/461/348 571/463/348 278/345/348 280/347/348
f 280/347/349 282/350/349 431/269/349 433/461/349
f 282/350/350 572/352/351 429/460/352 431/269/350
f 417/455/268 429/460/352 572/352/351 290/361/266
f 573/131/353 574/132/353 633/133/353 632/134/353 631/135/353 630/136/353 625/137/353 624/138/353 623/139/353 622/140/353 617/141/353 616/142/353 615/143/353 614/144/353 609/145/353 608/146/353 607/147/353 606/148/353 601/149/353 600/150/353 599/151/353 598/152/353 593/153/353 592/154/353 591/155/353 590/156/353 585/157/353 584/158/353 583/159/353 582/160/353 577/161/353 576/162/353
f 573/163/354 575/164/354 636/165/354 574/166/354
f 576/167/355 578/168/355 575/169/355 573/170/355
f 577/171/356 579/172/356 578/168/356 576/167/356
f 636/597/357 575/178/357 578/175/357 579/176/357 580/516/357 581/517/357 586/525/357 587/526/357 588/528/357 589/530/357 594/537/357 595/538/357 596/540/357 597/542/357 602/549/357 603/550/357 604/459/357 605/457/357 610/458/357 611/466/357 612/467/357 613/474/357 618/475/357 619/557/357 620/558/357 621/566/357 626/567/357 627/578/357 628/579/357 629/587/357 634/588/357 635/596/357
f 582/513/358 580/512/358 579/172/358 577/171/358
f 583/511/359 581/510/359 580/512/359 582/513/359
f 584/509/360 586/508/360 581/510/360 583/511/360
f 585/507/361 587/506/361 586/508/361 584/509/361
f 590/505/362 588/504/362 587/506/362 585/507/362
f 591/503/363 589/502/363 588/504/363 590/505/363
f 592/501/364 594/500/364 589/502/364 591/503/364
f 593/499/365 595/498/365 594/500/365 592/501/365
f 598/497/366 596/496/366 595/498/366 593/499/366
f 599/495/367 597/494/367 596/496/367 598/497/367
f 600/493/368 602/492/368 597/494/368 599/495/368
f 601/491/369 603/490/369 602/492/369 600/493/369
f 606/489/370 604/488/370 603/490/370 601/491/370
f 607/487/371 605/486/371 604/488/371 606/489/371
f 608/485/372 610/484/372 605/486/372 607/487/372
f 609/483/373 611/482/373 610/484/373 608/485/373
f 614/481/374 612/480/374 611/482/374 609/483/374
f 615/479/375 613/478/375 612/480/375 614/481/375
f 616/476/376 618/477/376 613/478/376 615/479/376
f 617/551/377 619/552/377 618/477/377 616/476/377
f 622/553/378 620/554/378 619/552/378 617/551/378
f 623/571/379 621/570/379 620/554/379 622/553/379
f 624/568/380 626/569/380 621/570/380 623/571/380
f 625/572/381 627/573/381 626/569/381 624/568/381
f 630/574/382 628/575/382 627/573/382 625/572/382
f 631/592/383 629/591/383 628/575/383 630/574/383
f 632/589/384 634/590/384 629/591/384 631/592/384
f 633/593/385 635/594/385 634/590/385 632/589/385
f 574/166/386 636/165/386 635/594/386 633/593/386
